<svg width="56" height="56" viewBox="0 0 56 56" fill="none" xmlns="http://www.w3.org/2000/svg">
<path d="M0 25.6C0 16.6392 0 12.1587 1.7439 8.73615C3.27787 5.72556 5.72556 3.27787 8.73615 1.7439C12.1587 0 16.6392 0 25.6 0H30.4C39.3608 0 43.8413 0 47.2638 1.7439C50.2744 3.27787 52.7221 5.72556 54.2561 8.73615C56 12.1587 56 16.6392 56 25.6V30.4C56 39.3608 56 43.8413 54.2561 47.2638C52.7221 50.2744 50.2744 52.7221 47.2638 54.2561C43.8413 56 39.3608 56 30.4 56H25.6C16.6392 56 12.1587 56 8.73615 54.2561C5.72556 52.7221 3.27787 50.2744 1.7439 47.2638C0 43.8413 0 39.3608 0 30.4V25.6Z" fill="#ECF2F6"/>
<path d="M28 40C28 46.6274 22.6274 52 16 52C9.37258 52 4 46.6274 4 40C4 33.3726 9.37258 28 16 28C22.6274 28 28 33.3726 28 40Z" fill="#FFDC60"/>
<path d="M52 16C52 22.6274 46.6274 28 40 28C33.3726 28 28 22.6274 28 16C28 9.37258 33.3726 4 40 4C46.6274 4 52 9.37258 52 16Z" fill="#346AF7"/>
</svg>
