<svg width="56" height="56" viewBox="0 0 56 56" fill="none" xmlns="http://www.w3.org/2000/svg">
<path d="M0 25.6C0 16.6392 0 12.1587 1.7439 8.73615C3.27787 5.72556 5.72556 3.27787 8.73615 1.7439C12.1587 0 16.6392 0 25.6 0H30.4C39.3608 0 43.8413 0 47.2638 1.7439C50.2744 3.27787 52.7221 5.72556 54.2561 8.73615C56 12.1587 56 16.6392 56 25.6V30.4C56 39.3608 56 43.8413 54.2561 47.2638C52.7221 50.2744 50.2744 52.7221 47.2638 54.2561C43.8413 56 39.3608 56 30.4 56H25.6C16.6392 56 12.1587 56 8.73615 54.2561C5.72556 52.7221 3.27787 50.2744 1.7439 47.2638C0 43.8413 0 39.3608 0 30.4V25.6Z" fill="#ECF2F6"/>
<path d="M26 18C26 22.4183 22.4183 26 18 26C13.5817 26 10 22.4183 10 18C10 13.5817 13.5817 10 18 10C22.4183 10 26 13.5817 26 18Z" fill="#346AF7"/>
<path d="M26 38C26 42.4183 22.4183 46 18 46C13.5817 46 10 42.4183 10 38C10 33.5817 13.5817 30 18 30C22.4183 30 26 33.5817 26 38Z" fill="#FFDC60"/>
<path d="M46 18C46 22.4183 42.4183 26 38 26C33.5817 26 30 22.4183 30 18C30 13.5817 33.5817 10 38 10C42.4183 10 46 13.5817 46 18Z" fill="#FFDC60"/>
<path d="M46 38C46 42.4183 42.4183 46 38 46C33.5817 46 30 42.4183 30 38C30 33.5817 33.5817 30 38 30C42.4183 30 46 33.5817 46 38Z" fill="#346AF7"/>
</svg>
