<svg width="80" height="80" viewBox="0 0 80 80" fill="none" xmlns="http://www.w3.org/2000/svg">
<path d="M33.3335 16.6665L40.0001 9.99985M26.6668 53.3332L53.3335 26.6665M40.0001 69.9998L46.6668 63.3332M55.0001 63.3332C57.2103 63.3332 59.3299 62.4552 60.8927 60.8924C62.4555 59.3296 63.3335 57.21 63.3335 54.9998C63.3335 52.7897 62.4555 50.6701 60.8927 49.1073C59.3299 47.5445 57.2103 46.6665 55.0001 46.6665C52.79 46.6665 50.6704 47.5445 49.1076 49.1073C47.5448 50.6701 46.6668 52.7897 46.6668 54.9998C46.6668 57.21 47.5448 59.3296 49.1076 60.8924C50.6704 62.4552 52.79 63.3332 55.0001 63.3332ZM25.0001 33.3332C27.2103 33.3332 29.3299 32.4552 30.8927 30.8924C32.4555 29.3296 33.3335 27.21 33.3335 24.9998C33.3335 22.7897 32.4555 20.6701 30.8927 19.1073C29.3299 17.5445 27.2103 16.6665 25.0001 16.6665C22.79 16.6665 20.6704 17.5445 19.1076 19.1073C17.5448 20.6701 16.6668 22.7897 16.6668 24.9998C16.6668 27.21 17.5448 29.3296 19.1076 30.8924C20.6704 32.4552 22.79 33.3332 25.0001 33.3332ZM18.3335 69.9998C20.5436 69.9998 22.6632 69.1219 24.226 67.5591C25.7888 65.9963 26.6668 63.8767 26.6668 61.6665C26.6668 59.4564 25.7888 57.3368 24.226 55.774C22.6632 54.2112 20.5436 53.3332 18.3335 53.3332C16.1233 53.3332 14.0037 54.2112 12.4409 55.774C10.8781 57.3368 10.0001 59.4564 10.0001 61.6665C10.0001 63.8767 10.8781 65.9963 12.4409 67.5591C14.0037 69.1219 16.1233 69.9998 18.3335 69.9998ZM61.6668 26.6665C63.8769 26.6665 65.9965 25.7885 67.5593 24.2257C69.1221 22.6629 70.0001 20.5433 70.0001 18.3332C70.0001 16.123 69.1221 14.0034 67.5593 12.4406C65.9965 10.8778 63.8769 9.99985 61.6668 9.99985C59.4567 9.99985 57.337 10.8778 55.7742 12.4406C54.2114 14.0034 53.3335 16.123 53.3335 18.3332C53.3335 20.5433 54.2114 22.6629 55.7742 24.2257C57.337 25.7885 59.4567 26.6665 61.6668 26.6665Z" stroke="white" stroke-width="5" stroke-linecap="round" stroke-linejoin="round"/>
</svg>
