<svg width="82" height="28" viewBox="0 0 82 28" fill="none" xmlns="http://www.w3.org/2000/svg">
<g id="Frame" clip-path="url(#clip0_578_194)">
<g id="Group">
<path id="Vector" d="M1.66418 28H26.6842C27.6024 28 28.3484 27.2617 28.3484 26.3529V1.64706C28.3484 0.738337 27.6024 0 26.6842 0H1.66418C0.74601 0 0 0.738337 0 1.64706V26.4097C0 27.3185 0.74601 28 1.66418 28ZM18.7076 10.5639V7.09939C18.7076 6.87221 18.5929 6.58824 18.4207 6.41785L16.2401 4.14604C15.781 3.69168 16.1253 2.89655 16.7565 2.89655H23.7002C24.6183 2.89655 25.3643 3.63489 25.3643 4.54361V23.5132C25.3643 24.4219 24.6183 25.1602 23.7002 25.1602H20.0849C19.6258 25.1602 19.1667 24.9899 18.8798 24.6491L11.3049 16.7546C10.6737 16.1298 9.58335 16.5274 9.58335 17.4361V20.9006C9.58335 21.1278 9.69813 21.4118 9.87028 21.5821L12.0509 23.854C12.51 24.3083 12.1657 25.1034 11.5345 25.1034H4.59083C3.67266 25.1034 2.92665 24.3651 2.92665 23.4564V4.54361C2.92665 3.63489 3.67266 2.89655 4.59083 2.89655H8.20611C8.66519 2.89655 9.12427 3.06694 9.4112 3.40771L17.0435 11.2454C17.6747 11.8702 18.7076 11.4726 18.7076 10.5639Z" fill="#346AF7"/>
<g id="Group 8043">
<path id="Vector_2" d="M44.4483 4.8999H37.3437C34.2935 4.8999 32.7998 6.314 32.7998 9.23804V18.9331C32.7998 21.8451 34.281 23.2712 37.3437 23.2712H44.4483C47.4985 23.2712 48.9922 21.8571 48.9922 18.9331V9.23804C48.9922 6.314 47.4985 4.8999 44.4483 4.8999ZM44.988 18.9211C44.988 19.6281 44.6868 19.6281 44.4483 19.6281H37.3437C37.1052 19.6281 36.804 19.6281 36.804 18.9211V9.23804C36.804 8.53099 37.1052 8.53105 37.3437 8.53105H44.4483C44.6868 8.53105 44.988 8.53099 44.988 9.23804V18.9211Z" fill="#1B1B1D"/>
<path id="Vector_3" d="M49.6147 7.53338C49.6147 8.08566 50.0625 8.53338 50.6147 8.53338H55.473V22.2712C55.473 22.8235 55.9207 23.2712 56.473 23.2712H58.3261C58.8784 23.2712 59.3261 22.8235 59.3261 22.2712V8.53338H64.1843C64.7366 8.53338 65.1843 8.08566 65.1843 7.53338V5.8999C65.1843 5.34762 64.7366 4.8999 64.1843 4.8999H50.6147C50.0625 4.8999 49.6147 5.34762 49.6147 5.8999V7.53338Z" fill="#1B1B1D"/>
<path id="Vector_4" d="M67.4297 4.8999C66.8774 4.8999 66.4297 5.34762 66.4297 5.8999V7.53338C66.4297 8.08566 66.8774 8.53338 67.4297 8.53338H72.2832V22.2712C72.2832 22.8235 72.7309 23.2712 73.2832 23.2712H75.1457C75.698 23.2712 76.1457 22.8235 76.1457 22.2712V8.53338H80.9993C81.5516 8.53338 81.9993 8.08566 81.9993 7.53338V5.8999C81.9993 5.34762 81.5516 4.8999 80.9993 4.8999H67.4297Z" fill="#1B1B1D"/>
</g>
</g>
</g>
<defs>
<clipPath id="clip0_578_194">
<rect width="82" height="28" fill="white"/>
</clipPath>
</defs>
</svg>
