<svg width="162" height="56" viewBox="0 0 162 56" fill="none" xmlns="http://www.w3.org/2000/svg">
<path d="M3.28776 56H52.7175C54.5315 56 56.0053 54.5233 56.0053 52.7059V3.29412C56.0053 1.47667 54.5315 0 52.7175 0H3.28776C1.47382 0 0 1.47667 0 3.29412V52.8195C0 54.6369 1.47382 56 3.28776 56ZM36.959 21.1278V14.1988C36.959 13.7444 36.7322 13.1765 36.3921 12.8357L32.084 8.29209C31.177 7.38337 31.8573 5.7931 33.1043 5.7931H46.8222C48.6362 5.7931 50.11 7.26978 50.11 9.08722V47.0264C50.11 48.8438 48.6362 50.3205 46.8222 50.3205H39.6799C38.7729 50.3205 37.8659 49.9797 37.2991 49.2982L22.3341 33.5091C21.087 32.2596 18.933 33.0548 18.933 34.8722V41.8012C18.933 42.2556 19.1597 42.8235 19.4998 43.1643L23.8079 47.7079C24.7149 48.6166 24.0347 50.2069 22.7876 50.2069H9.06968C7.25575 50.2069 5.78192 48.7302 5.78192 46.9128V9.08722C5.78192 7.26978 7.25575 5.7931 9.06968 5.7931H16.2121C17.119 5.7931 18.026 6.13387 18.5929 6.81542L33.6712 22.4909C34.9183 23.7404 36.959 22.9452 36.959 21.1278Z" fill="#346AF7"/>
<path d="M87.8129 9.8H73.777C67.7509 9.8 64.8 12.6282 64.8 18.4763V37.8663C64.8 43.6904 67.7262 46.5426 73.777 46.5426H87.8129C93.8389 46.5426 96.7898 43.7144 96.7898 37.8663V18.4763C96.7898 12.6282 93.8389 9.8 87.8129 9.8ZM88.8791 37.8423C88.8791 39.2564 88.284 39.2564 87.8129 39.2564H73.777C73.3058 39.2564 72.7107 39.2564 72.7107 37.8423V18.4763C72.7107 17.0622 73.3058 17.0623 73.777 17.0623H87.8129C88.284 17.0623 88.8791 17.0622 88.8791 18.4763V37.8423Z" fill="white"/>
<path d="M98.0199 16.0669C98.0199 16.6192 98.4676 17.0669 99.0199 17.0669H109.593V45.5426C109.593 46.0949 110.041 46.5426 110.593 46.5426H116.206C116.758 46.5426 117.206 46.0949 117.206 45.5426V17.0669H127.779C128.332 17.0669 128.779 16.6192 128.779 16.0669V10.8C128.779 10.2477 128.332 9.8 127.779 9.8H99.0199C98.4676 9.8 98.0199 10.2477 98.0199 10.8V16.0669Z" fill="white"/>
<path d="M132.241 9.8C131.688 9.8 131.241 10.2477 131.241 10.8V16.0669C131.241 16.6192 131.688 17.0669 132.241 17.0669H142.805V45.5426C142.805 46.0949 143.253 46.5426 143.805 46.5426H149.436C149.988 46.5426 150.436 46.0949 150.436 45.5426V17.0669H161C161.552 17.0669 162 16.6192 162 16.0669V10.8C162 10.2477 161.552 9.8 161 9.8H132.241Z" fill="white"/>
</svg>
