<svg width="394" height="416" viewBox="0 0 394 416" fill="none" xmlns="http://www.w3.org/2000/svg">
<path d="M8.33333 3C8.33333 4.47276 9.52724 5.66667 11 5.66667C12.4728 5.66667 13.6667 4.47276 13.6667 3C13.6667 1.52724 12.4728 0.333333 11 0.333333C9.52724 0.333333 8.33333 1.52724 8.33333 3ZM1 3V2.5H0.5V3H1ZM1 355.5H0.5V355.798L0.762329 355.94L1 355.5ZM103.833 412.5C103.833 413.973 105.027 415.167 106.5 415.167C107.973 415.167 109.167 413.973 109.167 412.5C109.167 411.027 107.973 409.833 106.5 409.833C105.027 409.833 103.833 411.027 103.833 412.5ZM11 2.5H1V3.5H11V2.5ZM0.5 3V355.5H1.5V3H0.5ZM0.762329 355.94L106.262 412.94L106.738 412.06L1.23767 355.06L0.762329 355.94Z" fill="#346AF7"/>
<path d="M379.333 136C379.333 137.473 380.527 138.667 382 138.667C383.473 138.667 384.667 137.473 384.667 136C384.667 134.527 383.473 133.333 382 133.333C380.527 133.333 379.333 134.527 379.333 136ZM393 136H393.5V135.5H393V136ZM393 338.5L393.334 338.872L393.5 338.723V338.5H393ZM307.833 412.5C307.833 413.973 309.027 415.167 310.5 415.167C311.973 415.167 313.167 413.973 313.167 412.5C313.167 411.027 311.973 409.833 310.5 409.833C309.027 409.833 307.833 411.027 307.833 412.5ZM382 136.5H393V135.5H382V136.5ZM392.5 136V338.5H393.5V136H392.5ZM392.666 338.128L310.166 412.128L310.834 412.872L393.334 338.872L392.666 338.128Z" fill="#346AF7"/>
</svg>
