<svg width="98" height="34" viewBox="0 0 98 34" fill="none" xmlns="http://www.w3.org/2000/svg">
<g clip-path="url(#clip0_1169_23625)">
<path d="M1.98889 34H31.8909C32.9882 34 33.8798 33.1035 33.8798 32V2C33.8798 0.896552 32.9882 0 31.8909 0H1.98889C0.891572 0 0 0.896552 0 2V32.069C0 33.1724 0.891572 34 1.98889 34ZM22.3579 12.8276V8.62069C22.3579 8.34483 22.2207 8 22.015 7.7931L19.4088 5.03448C18.8602 4.48276 19.2717 3.51724 20.0261 3.51724H28.3246C29.4219 3.51724 30.3135 4.41379 30.3135 5.51724V28.5517C30.3135 29.6552 29.4219 30.5517 28.3246 30.5517H24.0039C23.4552 30.5517 22.9066 30.3448 22.5636 29.931L13.5108 20.3448C12.7563 19.5862 11.4533 20.069 11.4533 21.1724V25.3793C11.4533 25.6552 11.5904 26 11.7962 26.2069L14.4023 28.9655C14.951 29.5172 14.5395 30.4828 13.7851 30.4828H5.4866C4.38928 30.4828 3.49771 29.5862 3.49771 28.4828V5.51724C3.49771 4.41379 4.38928 3.51724 5.4866 3.51724H9.8073C10.356 3.51724 10.9046 3.72414 11.2475 4.13793L20.369 13.6552C21.1234 14.4138 22.3579 13.931 22.3579 12.8276Z" fill="#346AF7"/>
<path d="M53.1213 5.9502H44.6305C40.9851 5.9502 39.2 7.66732 39.2 11.2179V22.9905C39.2 26.5265 40.9701 28.2582 44.6305 28.2582H53.1213C56.7667 28.2582 58.5518 26.5411 58.5518 22.9905V11.2179C58.5518 7.66732 56.7667 5.9502 53.1213 5.9502ZM53.7663 22.9759C53.7663 23.8344 53.4063 23.8344 53.1213 23.8344H44.6305C44.3455 23.8344 43.9854 23.8344 43.9854 22.9759V11.2179C43.9854 10.3594 44.3455 10.3594 44.6305 10.3594H53.1213C53.4063 10.3594 53.7663 10.3594 53.7663 11.2179V22.9759Z" fill="white"/>
<path d="M59.2959 9.36227C59.2959 9.91456 59.7436 10.3623 60.2959 10.3623H66.2972V27.2582C66.2972 27.8105 66.7449 28.2582 67.2972 28.2582H69.9022C70.4545 28.2582 70.9022 27.8105 70.9022 27.2582V10.3623H76.9035C77.4557 10.3623 77.9035 9.91456 77.9035 9.36227V6.95019C77.9035 6.39791 77.4557 5.9502 76.9035 5.9502H60.2959C59.7436 5.9502 59.2959 6.39791 59.2959 6.9502V9.36227Z" fill="white"/>
<path d="M80.392 5.9502C79.8397 5.9502 79.392 6.39791 79.392 6.9502V9.36227C79.392 9.91456 79.8397 10.3623 80.392 10.3623H86.3877V27.2582C86.3877 27.8105 86.8354 28.2582 87.3877 28.2582H90.0038C90.5561 28.2582 91.0038 27.8105 91.0038 27.2582V10.3623H96.9995C97.5518 10.3623 97.9995 9.91456 97.9995 9.36227V6.95019C97.9995 6.39791 97.5518 5.9502 96.9995 5.9502H80.392Z" fill="white"/>
</g>
<defs>
<clipPath id="clip0_1169_23625">
<rect width="98" height="34" fill="white"/>
</clipPath>
</defs>
</svg>
