<svg width="115" height="40" viewBox="0 0 115 40" fill="none" xmlns="http://www.w3.org/2000/svg">
<g clip-path="url(#clip0_582_965)">
<path d="M2.3339 40H37.4229C38.7106 40 39.7568 38.9452 39.7568 37.6471V2.35294C39.7568 1.05477 38.7106 0 37.4229 0H2.3339C1.04623 0 0 1.05477 0 2.35294V37.7282C0 39.0264 1.04623 40 2.3339 40ZM26.2363 15.0913V10.142C26.2363 9.81744 26.0753 9.41177 25.8339 9.16836L22.7757 5.92292C22.1318 5.27383 22.6147 4.13793 23.5 4.13793H33.238C34.5257 4.13793 35.5719 5.1927 35.5719 6.49087V33.5903C35.5719 34.8884 34.5257 35.9432 33.238 35.9432H28.1678C27.524 35.9432 26.8801 35.6998 26.4777 35.213L15.8545 23.9351C14.9692 23.0426 13.4401 23.6105 13.4401 24.9087V29.858C13.4401 30.1826 13.601 30.5882 13.8425 30.8316L16.9007 34.0771C17.5445 34.7262 17.0616 35.8621 16.1764 35.8621H6.43836C5.15068 35.8621 4.10445 34.8073 4.10445 33.5091V6.49087C4.10445 5.1927 5.15068 4.13793 6.43836 4.13793H11.5086C12.1524 4.13793 12.7962 4.38134 13.1986 4.86815L23.9024 16.0649C24.7877 16.9574 26.2363 16.3895 26.2363 15.0913Z" fill="#346AF7"/>
<path d="M62.3363 7H52.3725C48.0948 7 46 9.02014 46 13.1973V27.0474C46 31.2074 48.0772 33.2447 52.3725 33.2447H62.3363C66.614 33.2447 68.7088 31.2246 68.7088 27.0474V13.1973C68.7088 9.02014 66.614 7 62.3363 7ZM63.0932 27.0302C63.0932 28.0403 62.6707 28.0403 62.3363 28.0403H52.3725C52.0381 28.0403 51.6156 28.0403 51.6156 27.0302V13.1973C51.6156 12.1873 52.0381 12.1874 52.3725 12.1874H62.3363C62.6707 12.1874 63.0932 12.1873 63.0932 13.1973V27.0302Z" fill="#333333"/>
<path d="M69.582 11.1907C69.582 11.743 70.0297 12.1907 70.582 12.1907H77.7978V32.2447C77.7978 32.797 78.2455 33.2447 78.7978 33.2447H82.2016C82.7539 33.2447 83.2016 32.797 83.2016 32.2447V12.1907H90.4174C90.9697 12.1907 91.4174 11.743 91.4174 11.1907V8C91.4174 7.44772 90.9697 7 90.4174 7H70.582C70.0297 7 69.582 7.44772 69.582 8V11.1907Z" fill="#333333"/>
<path d="M94.1646 7C93.6123 7 93.1646 7.44772 93.1646 8V11.1907C93.1646 11.743 93.6123 12.1907 94.1646 12.1907H101.374V32.2447C101.374 32.797 101.822 33.2447 102.374 33.2447H105.791C106.343 33.2447 106.791 32.797 106.791 32.2447V12.1907H114C114.552 12.1907 115 11.743 115 11.1907V8C115 7.44772 114.552 7 114 7H94.1646Z" fill="#333333"/>
</g>
<defs>
<clipPath id="clip0_582_965">
<rect width="115" height="40" fill="white"/>
</clipPath>
</defs>
</svg>
