<svg width="80" height="80" viewBox="0 0 80 80" fill="none" xmlns="http://www.w3.org/2000/svg">
<path fill-rule="evenodd" clip-rule="evenodd" d="M40.0023 36.6665C39.1182 36.6665 38.2704 37.0177 37.6453 37.6428C37.0201 38.2679 36.6689 39.1157 36.6689 39.9998C36.6689 40.8839 37.0201 41.7317 37.6453 42.3568C38.2704 42.9819 39.1182 43.3331 40.0023 43.3331C40.8863 43.3331 41.7342 42.9819 42.3593 42.3568C42.9844 41.7317 43.3356 40.8839 43.3356 39.9998C43.3356 39.1157 42.9844 38.2679 42.3593 37.6428C41.7342 37.0177 40.8863 36.6665 40.0023 36.6665Z" fill="#0F244D"/>
<path fill-rule="evenodd" clip-rule="evenodd" d="M36.6689 13.5665C30.8026 14.3115 25.3502 16.9849 21.1688 21.1663C16.9874 25.3478 14.314 30.8002 13.5689 36.6665H10.0023C8.16133 36.6665 6.66895 38.1588 6.66895 39.9998C6.66895 41.8407 8.16133 43.3331 10.0023 43.3331H13.5689C14.314 49.1994 16.9874 54.6518 21.1688 58.8333C25.3502 63.0147 30.8026 65.6881 36.6689 66.4331V69.9998C36.6689 71.8408 38.1613 73.3331 40.0023 73.3331C41.8432 73.3331 43.3356 71.8408 43.3356 69.9998V66.4331C49.2019 65.6881 54.6543 63.0147 58.8357 58.8333C63.0172 54.6518 65.6905 49.1994 66.4356 43.3331H70.0023C71.8432 43.3331 73.3356 41.8407 73.3356 39.9998C73.3356 38.1588 71.8432 36.6665 70.0023 36.6665H66.4356C65.6905 30.8002 63.0172 25.3478 58.8357 21.1663C54.6543 16.9849 49.2019 14.3115 43.3356 13.5665V9.99947C43.3356 8.15852 41.8432 6.66614 40.0023 6.66614C38.1613 6.66614 36.6689 8.15852 36.6689 9.99947V13.5665ZM36.6689 23.3331V20.2665C28.3356 21.6665 21.6689 28.3331 20.3023 36.6665H23.3356C25.1766 36.6665 26.6689 38.1588 26.6689 39.9998C26.6689 41.8407 25.1766 43.3331 23.3356 43.3331H20.2689C21.6689 51.6665 28.3356 58.3331 36.6689 59.6998V56.6665C36.6689 54.8255 38.1613 53.3331 40.0023 53.3331C41.8432 53.3331 43.3356 54.8255 43.3356 56.6665V59.7331C51.6689 58.3331 58.3356 51.6665 59.7023 43.3331H56.6689C54.828 43.3331 53.3356 41.8407 53.3356 39.9998C53.3356 38.1588 54.828 36.6665 56.6689 36.6665H59.7356C58.3356 28.3331 51.6689 21.6665 43.3356 20.2998V23.3331C43.3356 25.1741 41.8432 26.6665 40.0023 26.6665C38.1613 26.6665 36.6689 25.1741 36.6689 23.3331Z" fill="#0F244D"/>
</svg>
