<svg width="116" height="116" viewBox="0 0 116 116" fill="none" xmlns="http://www.w3.org/2000/svg">
<path fill-rule="evenodd" clip-rule="evenodd" d="M58.0003 53.1675C56.7184 53.1675 55.4891 53.6767 54.5826 54.5831C53.6762 55.4895 53.167 56.7189 53.167 58.0008C53.167 59.2827 53.6762 60.5121 54.5826 61.4185C55.4891 62.3249 56.7184 62.8341 58.0003 62.8341C59.2822 62.8341 60.5116 62.3249 61.418 61.4185C62.3244 60.5121 62.8337 59.2827 62.8337 58.0008C62.8337 56.7189 62.3244 55.4895 61.418 54.5831C60.5116 53.6767 59.2822 53.1675 58.0003 53.1675Z" fill="#313131"/>
<path fill-rule="evenodd" clip-rule="evenodd" d="M53.167 19.6725C44.6609 20.7528 36.7549 24.6292 30.6918 30.6923C24.6287 36.7554 20.7524 44.6613 19.672 53.1675H14.5003C11.831 53.1675 9.66699 55.3314 9.66699 58.0008C9.66699 60.6702 11.831 62.8341 14.5003 62.8341H19.672C20.7524 71.3403 24.6287 79.2462 30.6918 85.3093C36.7549 91.3724 44.6609 95.2488 53.167 96.3291V101.501C53.167 104.17 55.331 106.334 58.0003 106.334C60.6697 106.334 62.8337 104.17 62.8337 101.501V96.3291C71.3398 95.2488 79.2458 91.3724 85.3089 85.3093C91.3719 79.2462 95.2483 71.3403 96.3287 62.8341H101.5C104.17 62.8341 106.334 60.6702 106.334 58.0008C106.334 55.3314 104.17 53.1675 101.5 53.1675H96.3287C95.2483 44.6613 91.3719 36.7554 85.3089 30.6923C79.2458 24.6292 71.3398 20.7528 62.8337 19.6725V14.5003C62.8337 11.831 60.6697 9.66699 58.0003 9.66699C55.331 9.66699 53.167 11.8309 53.167 14.5003V19.6725ZM53.167 33.8341V29.3875C41.0837 31.4175 31.417 41.0841 29.4353 53.1675H33.8337C36.503 53.1675 38.667 55.3314 38.667 58.0008C38.667 60.6702 36.503 62.8341 33.8337 62.8341H29.387C31.417 74.9175 41.0837 84.5841 53.167 86.5658V82.1675C53.167 79.4981 55.331 77.3341 58.0003 77.3341C60.6697 77.3341 62.8337 79.4981 62.8337 82.1675V86.6141C74.917 84.5841 84.5837 74.9175 86.5653 62.8341H82.167C79.4976 62.8341 77.3337 60.6702 77.3337 58.0008C77.3337 55.3314 79.4976 53.1675 82.167 53.1675H86.6137C84.5837 41.0841 74.917 31.4175 62.8337 29.4358V33.8341C62.8337 36.5035 60.6697 38.6675 58.0003 38.6675C55.331 38.6675 53.167 36.5035 53.167 33.8341Z" fill="#313131"/>
</svg>
