<svg width="80" height="80" viewBox="0 0 80 80" fill="none" xmlns="http://www.w3.org/2000/svg">
<path d="M37.1436 47.6194C36.3859 47.6194 35.6592 47.3184 35.1233 46.7826C34.5875 46.2467 34.2865 45.52 34.2865 44.7623C34.2865 44.0045 34.5875 43.2778 35.1233 42.742C35.6592 42.2061 36.3859 41.9051 37.1436 41.9051C37.9014 41.9051 38.6281 42.2061 39.1639 42.742C39.6998 43.2778 40.0008 44.0045 40.0008 44.7623C40.0008 45.52 39.6998 46.2467 39.1639 46.7826C38.6281 47.3184 37.9014 47.6194 37.1436 47.6194Z" fill="white"/>
<mask id="path-2-outside-1_1_519" maskUnits="userSpaceOnUse" x="4.71436" y="4.71442" width="71" height="71" fill="black">
<rect fill="white" x="4.71436" y="4.71442" width="71" height="71"/>
<path fill-rule="evenodd" clip-rule="evenodd" d="M12.2458 32.3811C12.6153 32.3811 12.9791 32.3506 13.3334 32.2897V47.6192H8.5715C8.31891 47.6192 8.07667 47.7195 7.89806 47.8981C7.71946 48.0767 7.61912 48.319 7.61912 48.5716V50.4763C7.61912 50.7289 7.71946 50.9711 7.89806 51.1498C8.07667 51.3284 8.31891 51.4287 8.5715 51.4287H71.4286C71.6812 51.4287 71.9235 51.3284 72.1021 51.1498C72.2807 50.9711 72.381 50.7289 72.381 50.4763V48.5716C72.381 48.319 72.2807 48.0767 72.1021 47.8981C71.9235 47.7195 71.6812 47.6192 71.4286 47.6192H66.6667V32.2897C67.021 32.3506 67.3848 32.3811 67.7543 32.3811C71.3772 32.3811 74.2858 29.4249 74.2858 25.8116V21.2592C74.286 20.6552 74.1809 20.0557 73.9753 19.4877L69.8229 8.04013C69.5766 7.35878 69.1262 6.76992 68.5331 6.35375C67.9401 5.93758 67.2332 5.71433 66.5086 5.71442H13.4896C12.7655 5.71526 12.0592 5.93914 11.4669 6.35562C10.8746 6.7721 10.4249 7.36094 10.1791 8.04204L6.02674 19.4877C5.82042 20.0556 5.71471 20.655 5.71436 21.2592V25.8116C5.71436 29.4249 8.62293 32.3811 12.2458 32.3811ZM9.60769 20.7868L13.6934 9.52394H66.3048L70.3905 20.7868C70.4477 20.9392 70.4743 21.0973 70.4743 21.2592V25.8116C70.4789 26.5384 70.1948 27.2373 69.6845 27.7547C69.1741 28.2722 68.4792 28.566 67.7524 28.5716C66.2667 28.5716 65.0324 27.3525 65.0324 25.8116C65.0324 25.3064 64.8318 24.8219 64.4746 24.4647C64.1173 24.1075 63.6329 23.9068 63.1277 23.9068C62.6225 23.9068 62.138 24.1075 61.7808 24.4647C61.4236 24.8219 61.2229 25.3064 61.2229 25.8116C61.2275 26.5384 60.9434 27.2373 60.433 27.7547C59.9227 28.2722 59.2278 28.566 58.501 28.5716C57.0153 28.5716 55.781 27.3525 55.781 25.8135C55.781 25.3083 55.5803 24.8238 55.2231 24.4666C54.8659 24.1094 54.3814 23.9087 53.8763 23.9087C53.3711 23.9087 52.8866 24.1094 52.5294 24.4666C52.1722 24.8238 51.9715 25.3083 51.9715 25.8135C51.9715 27.3525 50.7372 28.5716 49.2496 28.5716C47.762 28.5716 46.5296 27.3525 46.5296 25.8116C46.5296 25.3064 46.3289 24.8219 45.9717 24.4647C45.6145 24.1075 45.13 23.9068 44.6248 23.9068C44.1197 23.9068 43.6352 24.1075 43.278 24.4647C42.9207 24.8219 42.7201 25.3064 42.7201 25.8116C42.7251 26.5382 42.4415 27.2371 41.9314 27.7546C41.4214 28.2722 40.7267 28.566 40.0001 28.5716C39.2736 28.566 38.579 28.2725 38.0687 27.7554C37.5584 27.2383 37.2741 26.5399 37.2782 25.8135C37.2782 25.3083 37.0775 24.8238 36.7203 24.4666C36.3631 24.1094 35.8786 23.9087 35.3734 23.9087C34.8682 23.9087 34.3837 24.1094 34.0265 24.4666C33.6693 24.8238 33.4686 25.3083 33.4686 25.8135C33.4686 27.3525 32.2363 28.5716 30.7486 28.5716C29.261 28.5716 28.0267 27.3525 28.0267 25.8116C28.0267 25.3064 27.8261 24.8219 27.4688 24.4647C27.1116 24.1075 26.6271 23.9068 26.122 23.9068C25.6168 23.9068 25.1323 24.1075 24.7751 24.4647C24.4179 24.8219 24.2172 25.3064 24.2172 25.8116C24.2172 27.3506 22.9848 28.5716 21.4972 28.5716C20.0096 28.5716 18.7753 27.3525 18.7753 25.8116C18.7753 25.3064 18.5746 24.8219 18.2174 24.4647C17.8602 24.1075 17.3757 23.9068 16.8705 23.9068C16.3654 23.9068 15.8809 24.1075 15.5237 24.4647C15.1665 24.8219 14.9658 25.3064 14.9658 25.8116C14.9658 27.3506 13.7334 28.5716 12.2458 28.5716C10.7563 28.5716 9.52388 27.3525 9.52388 25.8116V21.2592C9.52384 21.098 9.55221 20.9381 9.60769 20.7868ZM62.8572 30.7087C61.6638 31.7875 60.1117 32.3836 58.5029 32.3811C57.6425 32.3821 56.7904 32.2119 55.9964 31.8803C55.2024 31.5487 54.4823 31.0624 53.8782 30.4497C53.2738 31.0626 52.5534 31.549 51.7591 31.8807C50.9647 32.2123 50.1123 32.3824 49.2515 32.3811C48.391 32.3821 47.539 32.2119 46.7449 31.8803C45.9509 31.5487 45.2309 31.0624 44.6267 30.4497C44.0224 31.0626 43.302 31.549 42.5076 31.8807C41.7133 32.2123 40.8609 32.3824 40.0001 32.3811C39.1393 32.3824 38.2868 32.2123 37.4925 31.8807C36.6981 31.549 35.9778 31.0626 35.3734 30.4497C34.7693 31.0624 34.0492 31.5487 33.2552 31.8803C32.4612 32.2119 31.6091 32.3821 30.7486 32.3811C28.9372 32.3811 27.301 31.6401 26.122 30.4497C25.5178 31.0624 24.7978 31.5487 24.0038 31.8803C23.2097 32.2119 22.3577 32.3821 21.4972 32.3811C19.821 32.3811 18.2972 31.7468 17.1429 30.7087V47.6192H21.9048C21.6522 47.6192 21.41 47.5188 21.2314 47.3402C21.0528 47.1616 20.9524 46.9194 20.9524 46.6668V42.8573C20.9524 42.6047 21.0528 42.3624 21.2314 42.1838C21.41 42.0052 21.6522 41.9049 21.9048 41.9049H27.6191C27.8717 41.9049 28.1139 42.0052 28.2926 42.1838C28.4712 42.3624 28.5715 42.6047 28.5715 42.8573V43.8097H31.4286C31.6812 43.8097 31.9235 43.91 32.1021 44.0886C32.2807 44.2672 32.381 44.5094 32.381 44.762V46.6668C32.381 46.9194 32.2807 47.1616 32.1021 47.3402C31.9235 47.5188 31.6812 47.6192 31.4286 47.6192H62.8572V30.7087ZM9.52388 57.143C9.52388 56.6378 9.72456 56.1533 10.0818 55.7961C10.439 55.4389 10.9235 55.2382 11.4286 55.2382H68.5715C69.0767 55.2382 69.5612 55.4389 69.9184 55.7961C70.2756 56.1533 70.4763 56.6378 70.4763 57.143V72.3811C70.4763 72.8863 70.2756 73.3707 69.9184 73.728C69.5612 74.0852 69.0767 74.2858 68.5715 74.2858H11.4286C10.9235 74.2858 10.439 74.0852 10.0818 73.728C9.72456 73.3707 9.52388 72.8863 9.52388 72.3811V57.143ZM13.3334 70.4763V59.0477H66.6667V70.4763H13.3334Z"/>
</mask>
<path fill-rule="evenodd" clip-rule="evenodd" d="M12.2458 32.3811C12.6153 32.3811 12.9791 32.3506 13.3334 32.2897V47.6192H8.5715C8.31891 47.6192 8.07667 47.7195 7.89806 47.8981C7.71946 48.0767 7.61912 48.319 7.61912 48.5716V50.4763C7.61912 50.7289 7.71946 50.9711 7.89806 51.1498C8.07667 51.3284 8.31891 51.4287 8.5715 51.4287H71.4286C71.6812 51.4287 71.9235 51.3284 72.1021 51.1498C72.2807 50.9711 72.381 50.7289 72.381 50.4763V48.5716C72.381 48.319 72.2807 48.0767 72.1021 47.8981C71.9235 47.7195 71.6812 47.6192 71.4286 47.6192H66.6667V32.2897C67.021 32.3506 67.3848 32.3811 67.7543 32.3811C71.3772 32.3811 74.2858 29.4249 74.2858 25.8116V21.2592C74.286 20.6552 74.1809 20.0557 73.9753 19.4877L69.8229 8.04013C69.5766 7.35878 69.1262 6.76992 68.5331 6.35375C67.9401 5.93758 67.2332 5.71433 66.5086 5.71442H13.4896C12.7655 5.71526 12.0592 5.93914 11.4669 6.35562C10.8746 6.7721 10.4249 7.36094 10.1791 8.04204L6.02674 19.4877C5.82042 20.0556 5.71471 20.655 5.71436 21.2592V25.8116C5.71436 29.4249 8.62293 32.3811 12.2458 32.3811ZM9.60769 20.7868L13.6934 9.52394H66.3048L70.3905 20.7868C70.4477 20.9392 70.4743 21.0973 70.4743 21.2592V25.8116C70.4789 26.5384 70.1948 27.2373 69.6845 27.7547C69.1741 28.2722 68.4792 28.566 67.7524 28.5716C66.2667 28.5716 65.0324 27.3525 65.0324 25.8116C65.0324 25.3064 64.8318 24.8219 64.4746 24.4647C64.1173 24.1075 63.6329 23.9068 63.1277 23.9068C62.6225 23.9068 62.138 24.1075 61.7808 24.4647C61.4236 24.8219 61.2229 25.3064 61.2229 25.8116C61.2275 26.5384 60.9434 27.2373 60.433 27.7547C59.9227 28.2722 59.2278 28.566 58.501 28.5716C57.0153 28.5716 55.781 27.3525 55.781 25.8135C55.781 25.3083 55.5803 24.8238 55.2231 24.4666C54.8659 24.1094 54.3814 23.9087 53.8763 23.9087C53.3711 23.9087 52.8866 24.1094 52.5294 24.4666C52.1722 24.8238 51.9715 25.3083 51.9715 25.8135C51.9715 27.3525 50.7372 28.5716 49.2496 28.5716C47.762 28.5716 46.5296 27.3525 46.5296 25.8116C46.5296 25.3064 46.3289 24.8219 45.9717 24.4647C45.6145 24.1075 45.13 23.9068 44.6248 23.9068C44.1197 23.9068 43.6352 24.1075 43.278 24.4647C42.9207 24.8219 42.7201 25.3064 42.7201 25.8116C42.7251 26.5382 42.4415 27.2371 41.9314 27.7546C41.4214 28.2722 40.7267 28.566 40.0001 28.5716C39.2736 28.566 38.579 28.2725 38.0687 27.7554C37.5584 27.2383 37.2741 26.5399 37.2782 25.8135C37.2782 25.3083 37.0775 24.8238 36.7203 24.4666C36.3631 24.1094 35.8786 23.9087 35.3734 23.9087C34.8682 23.9087 34.3837 24.1094 34.0265 24.4666C33.6693 24.8238 33.4686 25.3083 33.4686 25.8135C33.4686 27.3525 32.2363 28.5716 30.7486 28.5716C29.261 28.5716 28.0267 27.3525 28.0267 25.8116C28.0267 25.3064 27.8261 24.8219 27.4688 24.4647C27.1116 24.1075 26.6271 23.9068 26.122 23.9068C25.6168 23.9068 25.1323 24.1075 24.7751 24.4647C24.4179 24.8219 24.2172 25.3064 24.2172 25.8116C24.2172 27.3506 22.9848 28.5716 21.4972 28.5716C20.0096 28.5716 18.7753 27.3525 18.7753 25.8116C18.7753 25.3064 18.5746 24.8219 18.2174 24.4647C17.8602 24.1075 17.3757 23.9068 16.8705 23.9068C16.3654 23.9068 15.8809 24.1075 15.5237 24.4647C15.1665 24.8219 14.9658 25.3064 14.9658 25.8116C14.9658 27.3506 13.7334 28.5716 12.2458 28.5716C10.7563 28.5716 9.52388 27.3525 9.52388 25.8116V21.2592C9.52384 21.098 9.55221 20.9381 9.60769 20.7868ZM62.8572 30.7087C61.6638 31.7875 60.1117 32.3836 58.5029 32.3811C57.6425 32.3821 56.7904 32.2119 55.9964 31.8803C55.2024 31.5487 54.4823 31.0624 53.8782 30.4497C53.2738 31.0626 52.5534 31.549 51.7591 31.8807C50.9647 32.2123 50.1123 32.3824 49.2515 32.3811C48.391 32.3821 47.539 32.2119 46.7449 31.8803C45.9509 31.5487 45.2309 31.0624 44.6267 30.4497C44.0224 31.0626 43.302 31.549 42.5076 31.8807C41.7133 32.2123 40.8609 32.3824 40.0001 32.3811C39.1393 32.3824 38.2868 32.2123 37.4925 31.8807C36.6981 31.549 35.9778 31.0626 35.3734 30.4497C34.7693 31.0624 34.0492 31.5487 33.2552 31.8803C32.4612 32.2119 31.6091 32.3821 30.7486 32.3811C28.9372 32.3811 27.301 31.6401 26.122 30.4497C25.5178 31.0624 24.7978 31.5487 24.0038 31.8803C23.2097 32.2119 22.3577 32.3821 21.4972 32.3811C19.821 32.3811 18.2972 31.7468 17.1429 30.7087V47.6192H21.9048C21.6522 47.6192 21.41 47.5188 21.2314 47.3402C21.0528 47.1616 20.9524 46.9194 20.9524 46.6668V42.8573C20.9524 42.6047 21.0528 42.3624 21.2314 42.1838C21.41 42.0052 21.6522 41.9049 21.9048 41.9049H27.6191C27.8717 41.9049 28.1139 42.0052 28.2926 42.1838C28.4712 42.3624 28.5715 42.6047 28.5715 42.8573V43.8097H31.4286C31.6812 43.8097 31.9235 43.91 32.1021 44.0886C32.2807 44.2672 32.381 44.5094 32.381 44.762V46.6668C32.381 46.9194 32.2807 47.1616 32.1021 47.3402C31.9235 47.5188 31.6812 47.6192 31.4286 47.6192H62.8572V30.7087ZM9.52388 57.143C9.52388 56.6378 9.72456 56.1533 10.0818 55.7961C10.439 55.4389 10.9235 55.2382 11.4286 55.2382H68.5715C69.0767 55.2382 69.5612 55.4389 69.9184 55.7961C70.2756 56.1533 70.4763 56.6378 70.4763 57.143V72.3811C70.4763 72.8863 70.2756 73.3707 69.9184 73.728C69.5612 74.0852 69.0767 74.2858 68.5715 74.2858H11.4286C10.9235 74.2858 10.439 74.0852 10.0818 73.728C9.72456 73.3707 9.52388 72.8863 9.52388 72.3811V57.143ZM13.3334 70.4763V59.0477H66.6667V70.4763H13.3334Z" fill="white"/>
<path fill-rule="evenodd" clip-rule="evenodd" d="M12.2458 32.3811C12.6153 32.3811 12.9791 32.3506 13.3334 32.2897V47.6192H8.5715C8.31891 47.6192 8.07667 47.7195 7.89806 47.8981C7.71946 48.0767 7.61912 48.319 7.61912 48.5716V50.4763C7.61912 50.7289 7.71946 50.9711 7.89806 51.1498C8.07667 51.3284 8.31891 51.4287 8.5715 51.4287H71.4286C71.6812 51.4287 71.9235 51.3284 72.1021 51.1498C72.2807 50.9711 72.381 50.7289 72.381 50.4763V48.5716C72.381 48.319 72.2807 48.0767 72.1021 47.8981C71.9235 47.7195 71.6812 47.6192 71.4286 47.6192H66.6667V32.2897C67.021 32.3506 67.3848 32.3811 67.7543 32.3811C71.3772 32.3811 74.2858 29.4249 74.2858 25.8116V21.2592C74.286 20.6552 74.1809 20.0557 73.9753 19.4877L69.8229 8.04013C69.5766 7.35878 69.1262 6.76992 68.5331 6.35375C67.9401 5.93758 67.2332 5.71433 66.5086 5.71442H13.4896C12.7655 5.71526 12.0592 5.93914 11.4669 6.35562C10.8746 6.7721 10.4249 7.36094 10.1791 8.04204L6.02674 19.4877C5.82042 20.0556 5.71471 20.655 5.71436 21.2592V25.8116C5.71436 29.4249 8.62293 32.3811 12.2458 32.3811ZM9.60769 20.7868L13.6934 9.52394H66.3048L70.3905 20.7868C70.4477 20.9392 70.4743 21.0973 70.4743 21.2592V25.8116C70.4789 26.5384 70.1948 27.2373 69.6845 27.7547C69.1741 28.2722 68.4792 28.566 67.7524 28.5716C66.2667 28.5716 65.0324 27.3525 65.0324 25.8116C65.0324 25.3064 64.8318 24.8219 64.4746 24.4647C64.1173 24.1075 63.6329 23.9068 63.1277 23.9068C62.6225 23.9068 62.138 24.1075 61.7808 24.4647C61.4236 24.8219 61.2229 25.3064 61.2229 25.8116C61.2275 26.5384 60.9434 27.2373 60.433 27.7547C59.9227 28.2722 59.2278 28.566 58.501 28.5716C57.0153 28.5716 55.781 27.3525 55.781 25.8135C55.781 25.3083 55.5803 24.8238 55.2231 24.4666C54.8659 24.1094 54.3814 23.9087 53.8763 23.9087C53.3711 23.9087 52.8866 24.1094 52.5294 24.4666C52.1722 24.8238 51.9715 25.3083 51.9715 25.8135C51.9715 27.3525 50.7372 28.5716 49.2496 28.5716C47.762 28.5716 46.5296 27.3525 46.5296 25.8116C46.5296 25.3064 46.3289 24.8219 45.9717 24.4647C45.6145 24.1075 45.13 23.9068 44.6248 23.9068C44.1197 23.9068 43.6352 24.1075 43.278 24.4647C42.9207 24.8219 42.7201 25.3064 42.7201 25.8116C42.7251 26.5382 42.4415 27.2371 41.9314 27.7546C41.4214 28.2722 40.7267 28.566 40.0001 28.5716C39.2736 28.566 38.579 28.2725 38.0687 27.7554C37.5584 27.2383 37.2741 26.5399 37.2782 25.8135C37.2782 25.3083 37.0775 24.8238 36.7203 24.4666C36.3631 24.1094 35.8786 23.9087 35.3734 23.9087C34.8682 23.9087 34.3837 24.1094 34.0265 24.4666C33.6693 24.8238 33.4686 25.3083 33.4686 25.8135C33.4686 27.3525 32.2363 28.5716 30.7486 28.5716C29.261 28.5716 28.0267 27.3525 28.0267 25.8116C28.0267 25.3064 27.8261 24.8219 27.4688 24.4647C27.1116 24.1075 26.6271 23.9068 26.122 23.9068C25.6168 23.9068 25.1323 24.1075 24.7751 24.4647C24.4179 24.8219 24.2172 25.3064 24.2172 25.8116C24.2172 27.3506 22.9848 28.5716 21.4972 28.5716C20.0096 28.5716 18.7753 27.3525 18.7753 25.8116C18.7753 25.3064 18.5746 24.8219 18.2174 24.4647C17.8602 24.1075 17.3757 23.9068 16.8705 23.9068C16.3654 23.9068 15.8809 24.1075 15.5237 24.4647C15.1665 24.8219 14.9658 25.3064 14.9658 25.8116C14.9658 27.3506 13.7334 28.5716 12.2458 28.5716C10.7563 28.5716 9.52388 27.3525 9.52388 25.8116V21.2592C9.52384 21.098 9.55221 20.9381 9.60769 20.7868ZM62.8572 30.7087C61.6638 31.7875 60.1117 32.3836 58.5029 32.3811C57.6425 32.3821 56.7904 32.2119 55.9964 31.8803C55.2024 31.5487 54.4823 31.0624 53.8782 30.4497C53.2738 31.0626 52.5534 31.549 51.7591 31.8807C50.9647 32.2123 50.1123 32.3824 49.2515 32.3811C48.391 32.3821 47.539 32.2119 46.7449 31.8803C45.9509 31.5487 45.2309 31.0624 44.6267 30.4497C44.0224 31.0626 43.302 31.549 42.5076 31.8807C41.7133 32.2123 40.8609 32.3824 40.0001 32.3811C39.1393 32.3824 38.2868 32.2123 37.4925 31.8807C36.6981 31.549 35.9778 31.0626 35.3734 30.4497C34.7693 31.0624 34.0492 31.5487 33.2552 31.8803C32.4612 32.2119 31.6091 32.3821 30.7486 32.3811C28.9372 32.3811 27.301 31.6401 26.122 30.4497C25.5178 31.0624 24.7978 31.5487 24.0038 31.8803C23.2097 32.2119 22.3577 32.3821 21.4972 32.3811C19.821 32.3811 18.2972 31.7468 17.1429 30.7087V47.6192H21.9048C21.6522 47.6192 21.41 47.5188 21.2314 47.3402C21.0528 47.1616 20.9524 46.9194 20.9524 46.6668V42.8573C20.9524 42.6047 21.0528 42.3624 21.2314 42.1838C21.41 42.0052 21.6522 41.9049 21.9048 41.9049H27.6191C27.8717 41.9049 28.1139 42.0052 28.2926 42.1838C28.4712 42.3624 28.5715 42.6047 28.5715 42.8573V43.8097H31.4286C31.6812 43.8097 31.9235 43.91 32.1021 44.0886C32.2807 44.2672 32.381 44.5094 32.381 44.762V46.6668C32.381 46.9194 32.2807 47.1616 32.1021 47.3402C31.9235 47.5188 31.6812 47.6192 31.4286 47.6192H62.8572V30.7087ZM9.52388 57.143C9.52388 56.6378 9.72456 56.1533 10.0818 55.7961C10.439 55.4389 10.9235 55.2382 11.4286 55.2382H68.5715C69.0767 55.2382 69.5612 55.4389 69.9184 55.7961C70.2756 56.1533 70.4763 56.6378 70.4763 57.143V72.3811C70.4763 72.8863 70.2756 73.3707 69.9184 73.728C69.5612 74.0852 69.0767 74.2858 68.5715 74.2858H11.4286C10.9235 74.2858 10.439 74.0852 10.0818 73.728C9.72456 73.3707 9.52388 72.8863 9.52388 72.3811V57.143ZM13.3334 70.4763V59.0477H66.6667V70.4763H13.3334Z" stroke="white" mask="url(#path-2-outside-1_1_519)"/>
</svg>
