<svg width="80" height="80" viewBox="0 0 80 80" fill="none" xmlns="http://www.w3.org/2000/svg">
<path d="M57.4997 23.334C57.4997 22.6709 57.2363 22.0351 56.7674 21.5662C56.2986 21.0974 55.6627 20.834 54.9997 20.834C54.3366 20.834 53.7007 21.0974 53.2319 21.5662C52.7631 22.0351 52.4997 22.6709 52.4997 23.334V27.5007H48.333C47.67 27.5007 47.0341 27.764 46.5652 28.2329C46.0964 28.7017 45.833 29.3376 45.833 30.0007C45.833 30.6637 46.0964 31.2996 46.5652 31.7684C47.0341 32.2373 47.67 32.5006 48.333 32.5006H52.4997V36.6673C52.4997 37.3304 52.7631 37.9662 53.2319 38.4351C53.7007 38.9039 54.3366 39.1673 54.9997 39.1673C55.6627 39.1673 56.2986 38.9039 56.7674 38.4351C57.2363 37.9662 57.4997 37.3304 57.4997 36.6673V32.5006H61.6663C62.3294 32.5006 62.9653 32.2373 63.4341 31.7684C63.9029 31.2996 64.1663 30.6637 64.1663 30.0007C64.1663 29.3376 63.9029 28.7017 63.4341 28.2329C62.9653 27.764 62.3294 27.5007 61.6663 27.5007H57.4997V23.334Z" fill="#313131"/>
<path d="M16.6181 8.22446C8.67778 11.3311 3.66699 19.8342 3.66699 31.0568C3.66699 38.2889 7.5173 45.3461 12.2302 51.3553L12.6173 51.0517L12.2302 51.3553C17.0024 57.4396 22.9936 62.8761 27.9809 66.9242C27.9812 66.9244 27.9816 66.9247 27.9819 66.925L28.4264 67.2899L28.4284 67.2915L28.4993 67.3491C32.4379 70.5493 35.4582 73.0034 40.0003 73.0034C44.5369 73.0034 47.5478 70.5589 51.4778 67.3682L51.5721 67.2916L51.5742 67.2899L52.0186 66.9251C52.0189 66.9249 52.0191 66.9247 52.0194 66.9245C57.007 62.8795 62.9983 57.4396 67.7704 51.3553L67.377 51.0468L67.7704 51.3553C72.4833 45.3461 76.3337 38.2889 76.3337 31.0601C76.3337 19.8343 71.3229 11.3311 63.3825 8.22446C56.1469 5.38798 47.5563 7.46625 40.0003 14.3626C32.4444 7.46625 23.8538 5.38798 16.6181 8.22446ZM16.6181 8.22446L16.8003 8.69009L16.6178 8.22458C16.6179 8.22454 16.618 8.2245 16.6181 8.22446ZM63.0469 47.6515L63.0467 47.6517C58.6659 53.2436 53.0578 58.3567 48.2385 62.2685C45.9082 64.1589 44.4035 65.343 43.1858 66.0601C41.9964 66.7604 41.1056 67.0001 40.0003 67.0001C38.8951 67.0001 38.0043 66.7604 36.815 66.0597C35.5972 65.3422 34.0925 64.1573 31.7622 62.2652L31.7619 62.2651C26.943 58.3567 21.3347 53.2402 16.9537 47.6548L16.589 47.9409L16.9537 47.6548C12.5133 41.9941 9.66699 36.2613 9.66699 31.0601C9.66699 21.5186 13.8209 15.7629 18.8029 13.8089C23.7723 11.8658 30.8618 13.2014 37.8084 20.6316C38.0891 20.9319 38.4284 21.1713 38.8055 21.335C39.1825 21.4988 39.5892 21.5833 40.0003 21.5833C40.4114 21.5833 40.8181 21.4988 41.1952 21.335C41.5722 21.1713 41.9116 20.9319 42.1922 20.6316C49.139 13.2013 56.2286 11.8658 61.198 13.809C66.1796 15.7597 70.3337 21.5184 70.3337 31.0601C70.3337 36.2612 67.4841 41.9939 63.0469 47.6515Z" fill="#313131" stroke="#313131"/>
</svg>
