<svg width="80" height="80" viewBox="0 0 80 80" fill="none" xmlns="http://www.w3.org/2000/svg">
<path d="M45.0928 18.9767C47.9087 21.2755 50.6055 23.7165 53.1728 26.2901C55.7451 28.8575 58.1849 31.5543 60.4828 34.3701C62.2392 31.7231 63.7765 28.9372 65.0794 26.0401C66.5928 22.5967 67.3494 19.6601 67.4461 17.3801C67.5428 15.1067 66.9794 13.8501 66.2928 13.1667C65.6094 12.4801 64.3528 11.9201 62.0794 12.0167C59.8028 12.1101 56.8661 12.8667 53.4194 14.3834C50.5242 15.6867 47.7395 17.2228 45.0928 18.9767ZM39.4661 14.7334C43.3428 12.0334 47.1528 9.85673 50.7328 8.28007C54.6261 6.57007 58.4061 5.49673 61.7994 5.3534C65.1994 5.2134 68.5594 6.0034 71.0094 8.4534C73.4594 10.9034 74.2495 14.2634 74.1095 17.6601C73.9628 21.0534 72.8928 24.8367 71.1795 28.7267C69.6061 32.3067 67.4261 36.1167 64.7294 39.9934C67.4294 43.8734 69.6061 47.6834 71.1828 51.2667C72.8928 55.1567 73.9661 58.9401 74.1095 62.3334C74.2495 65.7267 73.4594 69.0901 71.0094 71.5401C68.5594 73.9901 65.1995 74.7801 61.8028 74.6401C58.4095 74.4967 54.6261 73.4234 50.7361 71.7101C47.1561 70.1367 43.3428 67.9567 39.4661 65.2567C35.5895 67.9567 31.7761 70.1367 28.1961 71.7101C24.3061 73.4234 20.5228 74.4934 17.1294 74.6367C13.7328 74.7801 10.3694 73.9901 7.92278 71.5367C5.47278 69.0901 4.67945 65.7267 4.82278 62.3301C4.96612 58.9401 6.03945 55.1567 7.74945 51.2634C9.32612 47.6834 11.5061 43.8734 14.2028 39.9967C11.5061 36.1167 9.32612 32.3067 7.75278 28.7267C6.03945 24.8367 4.96945 21.0534 4.82612 17.6601C4.68278 14.2634 5.47278 10.9034 7.92612 8.4534C10.3728 6.0034 13.7361 5.2134 17.1328 5.3534C20.5228 5.49673 24.3061 6.57007 28.1994 8.28007C31.7761 9.85673 35.5895 12.0367 39.4661 14.7334ZM18.4494 34.3667C20.7464 31.5523 23.1851 28.8566 25.7561 26.2901C28.3246 23.7166 31.0226 21.2757 33.8395 18.9767C31.1934 17.2218 28.4086 15.6856 25.5128 14.3834C22.0661 12.8667 19.1294 12.1101 16.8528 12.0167C14.5794 11.9201 13.3194 12.4834 12.6361 13.1667C11.9528 13.8501 11.3894 15.1067 11.4861 17.3801C11.5828 19.6601 12.3394 22.5967 13.8528 26.0401C15.1559 28.9371 16.6932 31.7197 18.4494 34.3667ZM22.4894 39.9967C24.966 43.1544 27.632 46.1589 30.4728 48.9934C33.3064 51.8339 36.3097 54.4999 39.4661 56.9767C42.6227 54.5001 45.626 51.8341 48.4594 48.9934C51.3002 46.1589 53.9663 43.1545 56.4428 39.9967C53.9661 36.8413 51.3 33.8391 48.4594 31.0067C45.6262 28.1649 42.6229 25.4977 39.4661 23.0201C36.3084 25.4967 33.304 28.1627 30.4694 31.0034C27.6289 33.8358 24.9629 36.838 22.4861 39.9934M18.4461 45.6201C16.6885 48.268 15.1501 51.055 13.8461 53.9534C12.3328 57.3967 11.5794 60.3334 11.4794 62.6101C11.3861 64.8834 11.9461 66.1434 12.6328 66.8267C13.3161 67.5101 14.5728 68.0734 16.8461 67.9767C19.1228 67.8801 22.0628 67.1234 25.5061 65.6101C28.4044 64.306 31.1915 62.7676 33.8395 61.0101C31.0227 58.7134 28.3247 56.2746 25.7561 53.7034C23.1838 51.1348 20.744 48.4369 18.4461 45.6201ZM45.0895 61.0134C47.7365 62.7696 50.5224 64.3069 53.4194 65.6101C56.8628 67.1234 59.8028 67.8801 62.0794 67.9767C64.3528 68.0734 65.6094 67.5101 66.2928 66.8267C66.9761 66.1401 67.5394 64.8834 67.4428 62.6101C67.3494 60.3334 66.5928 57.3967 65.0761 53.9501C63.773 51.053 62.2357 48.2671 60.4794 45.6201C58.1816 48.4369 55.7418 51.1348 53.1694 53.7034C50.602 56.2757 47.9052 58.7155 45.0895 61.0134ZM36.6695 36.6667H43.3494V43.3467H36.6695V36.6667Z" fill="#0F244D"/>
</svg>
