<svg width="116" height="116" viewBox="0 0 116 116" fill="none" xmlns="http://www.w3.org/2000/svg">
<path d="M65.3837 27.5164C69.4668 30.8497 73.3772 34.3891 77.0997 38.1208C80.8295 41.8436 84.3672 45.754 87.6992 49.8368C90.2459 45.9987 92.4751 41.9591 94.3643 37.7583C96.5587 32.7654 97.6558 28.5073 97.796 25.2013C97.9362 21.9049 97.1193 20.0828 96.1236 19.0919C95.1328 18.0963 93.3107 17.2843 90.0143 17.4244C86.7132 17.5598 82.455 18.6569 77.4573 20.8561C73.2592 22.7458 69.2214 24.9733 65.3837 27.5164ZM57.225 21.3636C62.8462 17.4486 68.3707 14.2924 73.5617 12.0063C79.207 9.52677 84.688 7.97043 89.6083 7.7626C94.5383 7.5596 99.4103 8.7051 102.963 12.2576C106.515 15.8101 107.661 20.6821 107.458 25.6073C107.245 30.5276 105.694 36.0134 103.209 41.6539C100.928 46.8449 97.767 52.3694 93.8568 57.9906C97.7718 63.6166 100.928 69.1411 103.214 74.3369C105.694 79.9774 107.25 85.4633 107.458 90.3836C107.661 95.3039 106.515 100.181 102.963 103.733C99.4103 107.286 94.5383 108.431 89.6132 108.228C84.6928 108.02 79.207 106.464 73.5665 103.98C68.3755 101.698 62.8462 98.5374 57.225 94.6224C51.6038 98.5374 46.0745 101.698 40.8835 103.98C35.243 106.464 29.7572 108.016 24.8368 108.223C19.9117 108.431 15.0348 107.286 11.4872 103.728C7.93465 100.181 6.78432 95.3039 6.99215 90.3788C7.19999 85.4633 8.75632 79.9774 11.2358 74.3321C13.522 69.1411 16.683 63.6166 20.5932 57.9954C16.683 52.3694 13.522 46.8449 11.2407 41.6539C8.75632 36.0134 7.20482 30.5276 6.99699 25.6073C6.78915 20.6821 7.93466 15.8101 11.492 12.2576C15.0397 8.7051 19.9165 7.5596 24.8417 7.7626C29.7572 7.97043 35.243 9.52677 40.8883 12.0063C46.0745 14.2924 51.6038 17.4534 57.225 21.3636ZM26.7508 49.8319C30.0814 45.751 33.6175 41.8422 37.3455 38.1208C41.0698 34.3892 44.9818 30.8499 49.0663 27.5164C45.2295 24.9717 41.1916 22.7442 36.9927 20.8561C31.995 18.6569 27.7368 17.5598 24.4357 17.4244C21.1393 17.2843 19.3123 18.1011 18.3215 19.0919C17.3307 20.0828 16.5138 21.9049 16.654 25.2013C16.7942 28.5073 17.8913 32.7654 20.0857 37.7583C21.9752 41.959 24.2043 45.9937 26.7508 49.8319ZM32.6088 57.9954C36.1998 62.5741 40.0656 66.9305 44.1847 71.0406C48.2933 75.1594 52.6481 79.0251 57.225 82.6164C61.802 79.0253 66.1568 75.1596 70.2653 71.0406C74.3845 66.9306 78.2502 62.5742 81.8412 57.9954C78.2499 53.42 74.3842 49.0668 70.2653 44.9599C66.1571 40.8392 61.8023 36.9719 57.225 33.3793C52.6464 36.9703 48.29 40.8361 44.1798 44.9551C40.061 49.0621 36.1953 53.4152 32.604 57.9906M26.746 66.1493C24.1975 69.9888 21.9667 74.03 20.076 78.2326C17.8817 83.2254 16.7893 87.4836 16.6443 90.7848C16.509 94.0811 17.321 95.9081 18.3167 96.8989C19.3075 97.8898 21.1297 98.7066 24.426 98.5664C27.7272 98.4263 31.9902 97.3291 36.983 95.1348C41.1855 93.2439 45.2267 91.0131 49.0663 88.4648C44.982 85.1346 41.07 81.5984 37.3455 77.8701C33.6156 74.1456 30.0779 70.2336 26.746 66.1493ZM65.3788 88.4696C69.217 91.0161 73.2566 93.2452 77.4573 95.1348C82.4502 97.3291 86.7132 98.4263 90.0143 98.5664C93.3107 98.7066 95.1328 97.8898 96.1236 96.8989C97.1145 95.9033 97.9313 94.0811 97.7912 90.7848C97.6558 87.4836 96.5587 83.2254 94.3595 78.2278C92.47 74.027 90.2409 69.9874 87.6943 66.1493C84.3624 70.2336 80.8247 74.1456 77.0948 77.8701C73.372 81.5999 69.4616 85.1377 65.3788 88.4696ZM53.1698 53.1669H62.8558V62.8529H53.1698V53.1669Z" fill="#313131"/>
</svg>
