<svg width="80" height="80" viewBox="0 0 80 80" fill="none" xmlns="http://www.w3.org/2000/svg">
<g clip-path="url(#clip0_1_514)">
<path d="M40 73.333C58.4095 73.333 73.3333 58.4091 73.3333 39.9996C73.3333 21.5901 58.4095 6.66629 40 6.66629C21.5905 6.66629 6.66663 21.5901 6.66663 39.9996C6.66663 58.4091 21.5905 73.333 40 73.333Z" stroke="white" stroke-width="4" stroke-linecap="round" stroke-linejoin="round"/>
<path d="M46.4022 35.0911V30.1418C46.4022 29.8173 46.2402 29.4116 45.9973 29.1682L42.9201 25.9228C42.2722 25.2737 42.7581 24.1378 43.6489 24.1378H53.4474C54.7431 24.1378 55.7958 25.1925 55.7958 26.4907V53.5901C55.7958 54.8883 54.7431 55.9431 53.4474 55.9431H48.3457C47.6979 55.9431 47.05 55.6996 46.6451 55.2128L35.9559 43.9349C35.0651 43.0424 33.5265 43.6104 33.5265 44.9086V49.8579C33.5265 50.1824 33.6884 50.5881 33.9314 50.8315L37.0086 54.0769C37.6564 54.726 37.1705 55.8619 36.2798 55.8619H26.4813C25.1856 55.8619 24.1329 54.8071 24.1329 53.509V26.4907C24.1329 25.1925 25.1856 24.1378 26.4813 24.1378H31.583C32.2308 24.1378 32.8786 24.3812 33.2835 24.868L44.0538 36.0648C44.9446 36.9573 46.4022 36.3893 46.4022 35.0911Z" fill="white"/>
<path d="M75.4166 4.58318L80 6.66651L75.4166 8.74985L73.3333 13.3332L71.25 8.74985L66.6666 6.66651L71.25 4.58318L73.3333 -0.000152588L75.4166 4.58318Z" fill="#BCCFFF"/>
</g>
<defs>
<clipPath id="clip0_1_514">
<rect width="80" height="80" fill="white"/>
</clipPath>
</defs>
</svg>
