<svg width="60" height="60" viewBox="0 0 60 60" fill="none" xmlns="http://www.w3.org/2000/svg">
<g id="bedtime 1">
<g id="Group">
<path id="Vector" d="M23.1404 26.6582H29.8863C30.8247 26.6582 31.5855 25.8974 31.5855 24.959C31.5855 24.0206 30.8247 23.2598 29.8863 23.2598H27.2428L31.1389 19.3636C32.2057 18.2967 31.4499 16.4629 29.9374 16.4629H23.2027C22.2643 16.4629 21.5035 17.2237 21.5035 18.1621C21.5035 19.1005 22.2643 19.8613 23.2027 19.8613H25.835L21.9389 23.7575C20.8721 24.8243 21.6279 26.6582 23.1404 26.6582Z" fill="#333333"/>
<path id="Vector_2" d="M36.6431 18.0488H46.8794C47.8179 18.0488 48.5787 17.288 48.5787 16.3496C48.5787 15.4112 47.8179 14.6504 46.8794 14.6504H40.7454L48.0399 7.35576C49.1068 6.28887 48.351 4.45508 46.8384 4.45508H36.6841C35.7457 4.45508 34.9849 5.21587 34.9849 6.1543C34.9849 7.09272 35.7457 7.85352 36.6841 7.85352H42.7361L35.4416 15.1481C34.3748 16.2149 35.1306 18.0488 36.6431 18.0488Z" fill="#333333"/>
<path id="Vector_3" d="M4.39844 21.6738C4.39844 20.7359 3.63719 19.9746 2.69922 19.9746C1.76125 19.9746 1 20.7359 1 21.6738V53.8457C1 54.7837 1.76125 55.5449 2.69922 55.5449C3.63719 55.5449 4.39844 54.7837 4.39844 53.8457V50.5605H16.4062V45.4629H4.39844V21.6738Z" fill="#333333"/>
<path id="Vector_4" d="M57.3008 33.5684C56.3628 33.5684 55.6016 34.3296 55.6016 35.2676V45.4629H52.2031V38.5527C52.2031 33.8674 48.3912 30.0566 43.707 30.0566H19.8047V50.5605H55.6016V53.8457C55.6016 54.7837 56.3628 55.5449 57.3008 55.5449C58.2388 55.5449 59 54.7837 59 53.8457V35.2676C59 34.3296 58.2388 33.5684 57.3008 33.5684Z" fill="#333333"/>
<path id="Vector_5" d="M4.4043 38.666V42.0645H16.4064V35.2676C15.7177 35.2676 14.4254 35.2676 13.008 35.2676C11.119 35.2676 9.00759 35.2676 7.80273 35.2676C5.92566 35.2676 4.4043 36.7889 4.4043 38.666Z" fill="#333333"/>
<path id="Vector_6" d="M13.0078 35.2676C15.8232 35.2676 18.1055 32.9853 18.1055 30.1699C18.1055 27.3546 15.8232 25.0723 13.0078 25.0723C10.1925 25.0723 7.91016 27.3546 7.91016 30.1699C7.91016 32.9853 10.1925 35.2676 13.0078 35.2676Z" fill="#333333"/>
</g>
</g>
</svg>
