<svg width="60" height="60" viewBox="0 0 60 60" fill="none" xmlns="http://www.w3.org/2000/svg">
<g id="blockchain 1">
<g id="Group">
<path id="Vector" d="M31.6406 29.5255V42.0244L42.465 35.775V23.2761L31.6406 29.5255Z" fill="#333333"/>
<path id="Vector_2" d="M19.1755 20.4345L29.9999 26.684L40.8242 20.4345L29.9999 14.185L19.1755 20.4345Z" fill="#333333"/>
<path id="Vector_3" d="M28.3593 29.5255L17.5349 23.2761V35.775L28.3593 42.0244V29.5255Z" fill="#333333"/>
<path id="Vector_4" d="M51.4076 11.4013C50.2279 11.4013 49.1472 11.8308 48.3114 12.5405L30.0548 2L11.7324 12.5785C10.8908 11.8462 9.79291 11.4013 8.5924 11.4013C5.95077 11.4013 3.80176 13.5503 3.80176 16.1919C3.80176 18.297 5.16731 20.0882 7.05874 20.7292V41.8302L25.1956 52.3014C25.1389 52.5957 25.1082 52.899 25.1082 53.2095C25.1082 55.851 27.2572 58 29.8988 58C32.5404 58 34.6894 55.851 34.6894 53.2095C34.6894 52.9562 34.6693 52.7074 34.6312 52.4646L53.0508 41.83V20.6922C54.8854 20.0201 56.1983 18.2565 56.1983 16.1919C56.1983 13.5504 54.0492 11.4013 51.4076 11.4013ZM49.7645 39.9329L33.0341 49.5922C32.1931 48.8623 31.0971 48.419 29.8987 48.419C28.7599 48.419 27.7132 48.8191 26.8901 49.4852L10.3451 39.9329V20.6489C12.1219 19.9477 13.3829 18.2149 13.3829 16.1919C13.3829 15.9407 13.3632 15.694 13.3258 15.4532L30.0548 5.79467L46.6844 15.3958C46.6408 15.6549 46.617 15.9205 46.617 16.1919C46.617 18.2565 47.9298 20.0201 49.7645 20.6922V39.9329Z" fill="#333333"/>
</g>
</g>
</svg>
