<svg width="44" height="44" viewBox="0 0 44 44" fill="none" xmlns="http://www.w3.org/2000/svg">
<g id="Checkbox Person">
<path id="Shape" d="M9.625 2.75C5.82804 2.75 2.75 5.82804 2.75 9.625V28.875C2.75 32.672 5.82804 35.75 9.625 35.75H22.1375C22.3438 34.734 22.774 33.7994 23.3745 33H9.625C7.34683 33 5.5 31.1532 5.5 28.875V9.625C5.5 7.34683 7.34683 5.5 9.625 5.5H28.875C31.1532 5.5 33 7.34683 33 9.625V16.6141C33.4472 16.539 33.9065 16.5 34.375 16.5C34.8435 16.5 35.3028 16.539 35.75 16.6141V9.625C35.75 5.82804 32.672 2.75 28.875 2.75H9.625ZM27.0973 16.0973C27.6342 15.5603 27.6342 14.6897 27.0973 14.1527C26.5603 13.6158 25.6897 13.6158 25.1527 14.1527L16.5 22.8055L13.3473 19.6527C12.8103 19.1158 11.9397 19.1158 11.4027 19.6527C10.8658 20.1897 10.8658 21.0603 11.4027 21.5973L15.5277 25.7223C16.0647 26.2592 16.9353 26.2592 17.4723 25.7223L27.0973 16.0973ZM39.875 24.75C39.875 27.7876 37.4126 30.25 34.375 30.25C31.3374 30.25 28.875 27.7876 28.875 24.75C28.875 21.7124 31.3374 19.25 34.375 19.25C37.4126 19.25 39.875 21.7124 39.875 24.75ZM44 37.125C44 40.5493 41.25 44 34.375 44C27.5 44 24.75 40.5622 24.75 37.125C24.75 34.8468 26.5968 33 28.875 33H39.875C42.1532 33 44 34.8468 44 37.125Z" fill="white"/>
</g>
</svg>
