<svg width="26" height="26" viewBox="0 0 26 26" fill="none" xmlns="http://www.w3.org/2000/svg">
<g id="icon">
<g id="Group">
<g id="Icon">
<g id="Group_2">
<path id="Vector" d="M13 23.8332C18.9831 23.8332 23.8334 18.9829 23.8334 12.9998C23.8334 7.01675 18.9831 2.1665 13 2.1665C7.01694 2.1665 2.16669 7.01675 2.16669 12.9998C2.16669 18.9829 7.01694 23.8332 13 23.8332Z" fill="#2CB853"/>
</g>
<g id="Group_3">
<path id="Vector_2" fill-rule="evenodd" clip-rule="evenodd" d="M8.67876 12.2388C8.27979 11.9723 7.74685 12.0329 7.41685 12.3816C7.08733 12.7299 7.0563 13.2658 7.34444 13.6494L10.2997 17.5898C10.478 17.8272 10.7538 17.972 11.0509 17.9834C11.3474 17.9942 11.6335 17.8711 11.8291 17.6474L18.7248 9.76668C19.0651 9.37806 19.0469 8.79242 18.6834 8.42498C18.3199 8.05754 17.7347 8.0339 17.3422 8.36982L11.0134 13.7947L8.67876 12.2388Z" fill="#FAFAFA"/>
</g>
</g>
</g>
</g>
</svg>
