<svg width="355" height="112" viewBox="0 0 355 112" fill="none" xmlns="http://www.w3.org/2000/svg">
<g clip-path="url(#clip0_549_5010)">
<path d="M31.2811 109.391H323.85C341.068 109.391 355.131 95.5049 355.131 78.2129C355.131 61.0519 341.2 47.0349 323.85 47.0349H31.2811C13.9319 47.0349 0 61.0519 0 78.2129C0 95.3739 13.9319 109.391 31.2811 109.391Z" fill="#346AF7"/>
<path d="M137.623 75.1836H133.734C133.663 74.6805 133.518 74.2337 133.299 73.843C133.08 73.4465 132.799 73.1091 132.456 72.831C132.112 72.5528 131.716 72.3397 131.266 72.1918C130.822 72.0438 130.34 71.9698 129.819 71.9698C128.878 71.9698 128.058 72.2036 127.36 72.6712C126.661 73.1328 126.12 73.8075 125.735 74.6953C125.35 75.5772 125.158 76.6484 125.158 77.9091C125.158 79.2053 125.35 80.2943 125.735 81.1761C126.126 82.058 126.67 82.7238 127.369 83.1737C128.067 83.6235 128.875 83.8484 129.792 83.8484C130.307 83.8484 130.784 83.7803 131.222 83.6442C131.665 83.508 132.059 83.3098 132.402 83.0494C132.746 82.783 133.03 82.4605 133.255 82.0817C133.485 81.7029 133.645 81.2708 133.734 80.7855L137.623 80.8033C137.522 81.6378 137.27 82.4427 136.868 83.218C136.471 83.9875 135.936 84.677 135.261 85.2866C134.592 85.8903 133.793 86.3697 132.864 86.7248C131.941 87.074 130.896 87.2486 129.73 87.2486C128.108 87.2486 126.658 86.8816 125.38 86.1477C124.107 85.4138 123.101 84.3514 122.362 82.9606C121.628 81.5697 121.261 79.8859 121.261 77.9091C121.261 75.9264 121.634 74.2396 122.379 72.8487C123.125 71.4579 124.137 70.3984 125.415 69.6705C126.694 68.9366 128.132 68.5696 129.73 68.5696C130.784 68.5696 131.76 68.7176 132.66 69.0135C133.565 69.3094 134.367 69.7415 135.066 70.3097C135.764 70.8719 136.332 71.5614 136.77 72.3782C137.214 73.195 137.498 74.1301 137.623 75.1836ZM157.087 77.9091C157.087 79.8918 156.711 81.5786 155.96 82.9695C155.214 84.3603 154.196 85.4227 152.906 86.1566C151.621 86.8846 150.177 87.2486 148.573 87.2486C146.958 87.2486 145.508 86.8816 144.223 86.1477C142.939 85.4138 141.924 84.3514 141.178 82.9606C140.432 81.5697 140.059 79.8859 140.059 77.9091C140.059 75.9264 140.432 74.2396 141.178 72.8487C141.924 71.4579 142.939 70.3984 144.223 69.6705C145.508 68.9366 146.958 68.5696 148.573 68.5696C150.177 68.5696 151.621 68.9366 152.906 69.6705C154.196 70.3984 155.214 71.4579 155.96 72.8487C156.711 74.2396 157.087 75.9264 157.087 77.9091ZM153.19 77.9091C153.19 76.6248 152.997 75.5417 152.613 74.6598C152.234 73.7779 151.698 73.1091 151.006 72.6534C150.313 72.1977 149.503 71.9698 148.573 71.9698C147.644 71.9698 146.833 72.1977 146.141 72.6534C145.448 73.1091 144.91 73.7779 144.525 74.6598C144.146 75.5417 143.957 76.6248 143.957 77.9091C143.957 79.1934 144.146 80.2765 144.525 81.1584C144.91 82.0402 145.448 82.709 146.141 83.1648C146.833 83.6205 147.644 83.8484 148.573 83.8484C149.503 83.8484 150.313 83.6205 151.006 83.1648C151.698 82.709 152.234 82.0402 152.613 81.1584C152.997 80.2765 153.19 79.1934 153.19 77.9091ZM159.935 68.8182H164.676L169.683 81.0341H169.896L174.903 68.8182H179.644V87H175.915V75.1658H175.764L171.059 86.9112H168.52L163.814 75.1214H163.663V87H159.935V68.8182ZM186.655 68.8182V87H182.811V68.8182H186.655ZM205.025 68.8182V87H201.705L193.795 75.5565H193.662V87H189.818V68.8182H193.191L201.039 80.2528H201.199V68.8182H205.025ZM220.257 74.6953C220.133 74.2633 219.959 73.8815 219.734 73.5501C219.509 73.2127 219.234 72.9286 218.908 72.6978C218.588 72.4611 218.221 72.2805 217.807 72.1562C217.399 72.032 216.946 71.9698 216.449 71.9698C215.52 71.9698 214.703 72.2006 213.999 72.6623C213.3 73.1239 212.756 73.7957 212.365 74.6776C211.974 75.5535 211.779 76.6248 211.779 77.8913C211.779 79.1579 211.971 80.2351 212.356 81.1229C212.741 82.0107 213.285 82.6883 213.99 83.1559C214.694 83.6175 215.526 83.8484 216.484 83.8484C217.354 83.8484 218.097 83.6945 218.713 83.3867C219.334 83.073 219.808 82.6321 220.133 82.0639C220.465 81.4957 220.63 80.824 220.63 80.0487L221.412 80.1641H216.724V77.2699H224.332V79.5604C224.332 81.1584 223.995 82.5315 223.32 83.6797C222.646 84.822 221.716 85.7038 220.533 86.3253C219.349 86.9408 217.994 87.2486 216.467 87.2486C214.762 87.2486 213.265 86.8728 211.974 86.1211C210.684 85.3635 209.678 84.2893 208.956 82.8984C208.24 81.5017 207.882 79.8445 207.882 77.9268C207.882 76.4531 208.095 75.1392 208.521 73.9851C208.953 72.825 209.557 71.8426 210.332 71.0376C211.107 70.2327 212.01 69.6201 213.04 69.1999C214.07 68.7797 215.185 68.5696 216.387 68.5696C217.417 68.5696 218.375 68.7205 219.263 69.0224C220.151 69.3183 220.938 69.7385 221.625 70.283C222.317 70.8275 222.882 71.4756 223.32 72.2273C223.758 72.973 224.039 73.7957 224.164 74.6953H220.257ZM242.869 74.0472C242.798 73.3311 242.493 72.7747 241.955 72.3782C241.416 71.9817 240.685 71.7834 239.762 71.7834C239.135 71.7834 238.605 71.8722 238.173 72.0497C237.741 72.2214 237.409 72.4611 237.179 72.7688C236.954 73.0766 236.841 73.4258 236.841 73.8164C236.829 74.1419 236.897 74.426 237.045 74.6687C237.199 74.9113 237.409 75.1214 237.676 75.299C237.942 75.4706 238.25 75.6216 238.599 75.7518C238.948 75.8761 239.321 75.9826 239.718 76.0714L241.351 76.462C242.144 76.6396 242.872 76.8763 243.535 77.1722C244.198 77.4682 244.772 77.8321 245.257 78.2642C245.743 78.6963 246.119 79.2053 246.385 79.7912C246.657 80.3771 246.796 81.0489 246.802 81.8065C246.796 82.9192 246.512 83.8839 245.95 84.7006C245.394 85.5115 244.589 86.1418 243.535 86.5916C242.488 87.0355 241.224 87.2575 239.744 87.2575C238.277 87.2575 236.998 87.0326 235.909 86.5827C234.826 86.1329 233.98 85.4671 233.37 84.5852C232.766 83.6974 232.45 82.5996 232.42 81.2915H236.14C236.181 81.9012 236.356 82.4102 236.664 82.8185C236.977 83.221 237.395 83.5258 237.915 83.733C238.442 83.9342 239.037 84.0348 239.7 84.0348C240.351 84.0348 240.916 83.9401 241.396 83.7507C241.881 83.5613 242.257 83.2979 242.523 82.9606C242.789 82.6232 242.923 82.2356 242.923 81.7976C242.923 81.3892 242.801 81.0459 242.559 80.7678C242.322 80.4896 241.973 80.2528 241.511 80.0575C241.055 79.8622 240.496 79.6847 239.833 79.5249L237.853 79.0277C236.32 78.6548 235.11 78.0719 234.222 77.2788C233.335 76.4857 232.894 75.4174 232.9 74.0739C232.894 72.973 233.187 72.0112 233.778 71.1886C234.376 70.3659 235.196 69.7237 236.238 69.2621C237.279 68.8004 238.463 68.5696 239.789 68.5696C241.138 68.5696 242.316 68.8004 243.322 69.2621C244.334 69.7237 245.121 70.3659 245.684 71.1886C246.246 72.0112 246.536 72.9641 246.554 74.0472H242.869ZM266.096 77.9091C266.096 79.8918 265.72 81.5786 264.968 82.9695C264.223 84.3603 263.205 85.4227 261.915 86.1566C260.63 86.8846 259.186 87.2486 257.582 87.2486C255.966 87.2486 254.516 86.8816 253.232 86.1477C251.948 85.4138 250.933 84.3514 250.187 82.9606C249.441 81.5697 249.068 79.8859 249.068 77.9091C249.068 75.9264 249.441 74.2396 250.187 72.8487C250.933 71.4579 251.948 70.3984 253.232 69.6705C254.516 68.9366 255.966 68.5696 257.582 68.5696C259.186 68.5696 260.63 68.9366 261.915 69.6705C263.205 70.3984 264.223 71.4579 264.968 72.8487C265.72 74.2396 266.096 75.9264 266.096 77.9091ZM262.199 77.9091C262.199 76.6248 262.006 75.5417 261.622 74.6598C261.243 73.7779 260.707 73.1091 260.015 72.6534C259.322 72.1977 258.511 71.9698 257.582 71.9698C256.653 71.9698 255.842 72.1977 255.15 72.6534C254.457 73.1091 253.919 73.7779 253.534 74.6598C253.155 75.5417 252.966 76.6248 252.966 77.9091C252.966 79.1934 253.155 80.2765 253.534 81.1584C253.919 82.0402 254.457 82.709 255.15 83.1648C255.842 83.6205 256.653 83.8484 257.582 83.8484C258.511 83.8484 259.322 83.6205 260.015 83.1648C260.707 82.709 261.243 82.0402 261.622 81.1584C262.006 80.2765 262.199 79.1934 262.199 77.9091ZM285.652 77.9091C285.652 79.8918 285.276 81.5786 284.524 82.9695C283.778 84.3603 282.76 85.4227 281.47 86.1566C280.186 86.8846 278.742 87.2486 277.138 87.2486C275.522 87.2486 274.072 86.8816 272.788 86.1477C271.503 85.4138 270.488 84.3514 269.743 82.9606C268.997 81.5697 268.624 79.8859 268.624 77.9091C268.624 75.9264 268.997 74.2396 269.743 72.8487C270.488 71.4579 271.503 70.3984 272.788 69.6705C274.072 68.9366 275.522 68.5696 277.138 68.5696C278.742 68.5696 280.186 68.9366 281.47 69.6705C282.76 70.3984 283.778 71.4579 284.524 72.8487C285.276 74.2396 285.652 75.9264 285.652 77.9091ZM281.754 77.9091C281.754 76.6248 281.562 75.5417 281.177 74.6598C280.798 73.7779 280.263 73.1091 279.57 72.6534C278.878 72.1977 278.067 71.9698 277.138 71.9698C276.209 71.9698 275.398 72.1977 274.705 72.6534C274.013 73.1091 273.474 73.7779 273.089 74.6598C272.711 75.5417 272.521 76.6248 272.521 77.9091C272.521 79.1934 272.711 80.2765 273.089 81.1584C273.474 82.0402 274.013 82.709 274.705 83.1648C275.398 83.6205 276.209 83.8484 277.138 83.8484C278.067 83.8484 278.878 83.6205 279.57 83.1648C280.263 82.709 280.798 82.0402 281.177 81.1584C281.562 80.2765 281.754 79.1934 281.754 77.9091ZM303.707 68.8182V87H300.387L292.476 75.5565H292.343V87H288.499V68.8182H291.873L299.721 80.2528H299.881V68.8182H303.707Z" fill="white"/>
<path d="M48.5962 114.5H112.473L74.0943 41.926H10.2178L48.5962 114.5Z" fill="url(#paint0_linear_549_5010)"/>
<path d="M126.115 19.6395L116.884 8.13892L107.999 26.1948L126.115 19.6395Z" fill="#346AF7"/>
<path d="M150 40.8005L114.461 33.6702L138.923 47.4709L150 40.8005Z" fill="#346AF7"/>
<path d="M53.9987 88.298C49.6141 88.298 45.5756 85.6529 43.9601 81.5127L40.4986 72.7722C40.3832 72.7722 40.2678 72.7722 40.1524 72.7722C38.4216 72.7722 36.8062 72.4272 35.1908 71.9672C34.1523 71.6222 33.1138 71.1621 32.0754 70.7021C31.0369 70.1271 30.1138 69.5521 29.3061 68.862C27.1138 67.0219 25.383 64.6068 24.2291 61.9617C22.4983 57.5914 22.6137 52.8762 24.4599 48.621C26.3061 44.3658 29.7677 41.0306 34.0369 39.3055L48.8064 33.4402L49.0371 34.0152C53.768 31.1401 63.1142 24.3547 66.3451 13.5442C67.4989 6.06879 71.0759 3.19364 73.9605 2.04358C75.1144 1.35355 76.3836 1.12354 77.7683 1.12354C88.153 1.12354 98.6532 15.6143 104.307 29.99C111.23 47.2409 112.5 67.0219 101.653 71.2771C100.499 71.7372 99.2301 71.9672 97.8455 71.9672C94.73 71.9672 91.4992 70.7021 88.153 68.057C83.4222 65.2968 77.7683 63.9168 71.422 63.9168C66.922 63.9168 62.9989 64.6068 60.6911 65.1818L64.0373 73.4623C65.0758 76.1074 65.0758 79.0975 63.9219 81.6277C62.7681 84.2728 60.6911 86.3429 58.0373 87.378C56.768 88.068 55.3834 88.298 53.9987 88.298Z" fill="white"/>
<path d="M56.4215 83.3526C53.1907 84.6177 49.4983 83.0076 48.229 79.9025L41.8828 63.9166L53.5368 59.3164L59.8831 75.3022C61.1523 78.4074 59.5369 82.0876 56.4215 83.3526Z" fill="#1A54ED"/>
<path d="M55.9598 63.1117L45.3442 67.2519C38.6518 69.897 31.1517 66.6768 28.4979 60.0065C25.844 53.4512 29.0748 45.9758 35.7672 43.3306L46.3827 39.1904L55.9598 63.1117Z" fill="#346AF7"/>
<path d="M55.9597 49.1959C58.6135 55.8663 58.6135 62.0766 55.9597 63.1117C53.3058 64.1467 48.9211 59.6615 46.3826 52.9911C43.6133 46.4358 43.6133 40.2255 46.3826 39.0754C49.0365 38.0404 53.3058 42.5256 55.9597 49.1959Z" fill="#5F8BFF"/>
<path d="M48.1138 39.4205C45.6907 40.3405 45.5753 46.2058 48.1138 52.3012C50.5369 58.3965 54.5754 62.6517 56.9985 61.6166C57.1139 61.6166 75.9218 55.1763 91.2682 64.6068L70.9602 13.7742C66.2294 31.1401 48.2292 39.4205 48.1138 39.4205Z" fill="#EFF1FF"/>
<path d="M100.153 31.715C106.845 48.6209 106.845 64.4917 100.037 67.1369C93.2294 69.782 82.2677 58.2814 75.5753 41.4905C68.8829 24.5847 68.8829 8.71385 75.6907 6.06871C82.4984 3.42358 93.4601 14.8092 100.153 31.715Z" fill="#346AF7"/>
<path d="M97.5243 60.9222C101.965 59.1615 101.212 46.8257 95.8421 33.3693C90.472 19.913 82.5185 10.4317 78.0774 12.1924C73.6363 13.9531 74.3895 26.2889 79.7596 39.7452C85.1297 53.2016 93.0832 62.6828 97.5243 60.9222Z" fill="#EFF1FF"/>
<path d="M87.7132 36.9004C85.9744 32.5871 81.2217 30.3722 76.9326 31.8877C77.6281 34.5689 78.5555 37.3667 79.7147 40.1644C80.8739 42.9622 82.0331 45.6434 83.3082 48.0915C87.4813 46.1097 89.452 41.2136 87.7132 36.9004Z" fill="#346AF7"/>
</g>
<defs>
<linearGradient id="paint0_linear_549_5010" x1="85.8904" y1="53.7438" x2="36.9611" y2="102.835" gradientUnits="userSpaceOnUse">
<stop offset="0.3356" stop-color="#444444"/>
<stop offset="1" stop-color="#232323"/>
</linearGradient>
<clipPath id="clip0_549_5010">
<rect width="355" height="111" fill="white" transform="translate(0 0.5)"/>
</clipPath>
</defs>
</svg>
