<svg width="25" height="24" viewBox="0 0 25 24" fill="none" xmlns="http://www.w3.org/2000/svg">
<g clip-path="url(#clip0_46_88)">
<path d="M21.2486 5.1227C21.4226 5.00626 21.6317 4.96491 21.8375 5.00578C22.0432 5.04666 22.2205 5.16499 22.3365 5.33846C23.6667 7.32784 24.3696 9.63137 24.3696 12C24.3696 15.2055 23.1216 18.2186 20.8546 20.4851C18.5882 22.752 15.5751 24 12.3696 24C9.16402 24 6.15095 22.752 3.8845 20.4851C1.61757 18.2186 0.369569 15.2055 0.36957 12C0.369571 8.79446 1.61757 5.78139 3.8845 3.51493C6.15096 1.248 9.16403 1.53767e-06 12.3696 2.09815e-06C14.5638 2.4818e-06 16.711 0.597865 18.5787 1.72943C18.7578 1.83779 18.8843 2.00982 18.9342 2.21323C18.9841 2.41664 18.9517 2.62717 18.8434 2.80634C18.735 2.98551 18.563 3.11192 18.3596 3.16182C18.1562 3.21172 17.9457 3.17941 17.7665 3.07105C16.1435 2.08776 14.2772 1.56832 12.3696 1.56832C6.61765 1.56832 1.93789 6.24808 1.93789 12C1.93789 17.7519 6.61765 22.4317 12.3696 22.4317C18.1215 22.4317 22.8013 17.7519 22.8013 12C22.8013 9.94313 22.1896 7.94091 21.0329 6.21006C20.9164 6.03612 20.8746 5.82701 20.9155 5.62123C20.9563 5.41592 21.0747 5.23866 21.2486 5.1227Z" fill="#0F244C"/>
<path d="M9.9662 7.64833L16.448 14.1301C16.8056 14.4877 16.7792 15.0953 16.3891 15.4854C15.999 15.8755 15.3914 15.9019 15.0338 15.5444L8.55198 9.06254C8.19476 8.70532 8.22082 8.09734 8.61091 7.70725C9.001 7.31717 9.60898 7.29111 9.9662 7.64833Z" fill="#0F244C"/>
<path d="M16.448 9.06239L9.96617 15.5442C9.60895 15.9014 9.00057 15.875 8.61088 15.4853C8.22118 15.0956 8.19473 14.4872 8.55195 14.13L15.0338 7.64818C15.3913 7.2906 15.9994 7.31741 16.3891 7.70711C16.7787 8.0968 16.8056 8.70481 16.448 9.06239Z" fill="#0F244C"/>
</g>
<defs>
<clipPath id="clip0_46_88">
<rect width="24" height="24" fill="white" transform="matrix(-1 0 0 1 24.3696 0)"/>
</clipPath>
</defs>
</svg>
