<svg width="54" height="55" viewBox="0 0 54 55" fill="none" xmlns="http://www.w3.org/2000/svg">
<g filter="url(#filter0_d_565_652)">
<g clip-path="url(#clip0_565_652)">
<path d="M10.019 21.9999C10.019 17.966 10.019 15.9491 10.8165 14.4139C11.4886 13.1201 12.5434 12.0653 13.8371 11.3933C15.3724 10.5958 17.3893 10.5958 21.4232 10.5958H32.6149C36.6488 10.5958 38.6657 10.5958 40.2009 11.3933C41.4947 12.0653 42.5495 13.1201 43.2216 14.4139C44.019 15.9491 44.019 17.966 44.019 21.9999V33.1916C44.019 37.2255 44.019 39.2424 43.2216 40.7777C42.5495 42.0714 41.4947 43.1262 40.2009 43.7983C38.6657 44.5958 36.6488 44.5958 32.6149 44.5958H21.4232C17.3893 44.5958 15.3724 44.5958 13.8371 43.7983C12.5434 43.1262 11.4886 42.0714 10.8165 40.7777C10.019 39.2424 10.019 37.2255 10.019 33.1916V21.9999Z" fill="#5865F2"/>
<path d="M35.8368 19.4888C34.2115 18.7431 32.4687 18.1936 30.6464 17.8789C30.6132 17.8729 30.58 17.8881 30.563 17.9184C30.3388 18.3171 30.0905 18.8372 29.9167 19.246C27.9567 18.9525 26.0067 18.9525 24.087 19.246C23.9131 18.8281 23.6558 18.3171 23.4306 17.9184C23.4135 17.8891 23.3804 17.8739 23.3472 17.8789C21.5259 18.1926 19.783 18.7421 18.1567 19.4888C18.1427 19.4949 18.1306 19.505 18.1226 19.5182C14.8167 24.457 13.9111 29.2745 14.3554 34.0323C14.3574 34.0556 14.3705 34.0778 14.3885 34.092C16.5697 35.6938 18.6824 36.6662 20.756 37.3107C20.7892 37.3208 20.8243 37.3087 20.8454 37.2814C21.3359 36.6115 21.7732 35.9052 22.1481 35.1625C22.1702 35.119 22.1491 35.0674 22.1039 35.0502C21.4103 34.7871 20.75 34.4664 20.1147 34.1021C20.0645 34.0728 20.0604 34.0009 20.1067 33.9665C20.2404 33.8663 20.374 33.7621 20.5017 33.6569C20.5248 33.6377 20.557 33.6336 20.5841 33.6458C24.7574 35.5511 29.2754 35.5511 33.3994 33.6458C33.4265 33.6326 33.4587 33.6366 33.4828 33.6559C33.6105 33.7611 33.7442 33.8663 33.8788 33.9665C33.9251 34.0009 33.9221 34.0728 33.8718 34.1021C33.2366 34.4735 32.5762 34.7871 31.8817 35.0492C31.8364 35.0664 31.8163 35.119 31.8385 35.1625C32.2214 35.9042 32.6586 36.6105 33.1401 37.2804C33.1602 37.3087 33.1964 37.3208 33.2295 37.3107C35.3132 36.6662 37.4259 35.6938 39.607 34.092C39.6261 34.0778 39.6382 34.0566 39.6402 34.0333C40.1719 28.5328 38.7497 23.7548 35.87 19.5192C35.863 19.505 35.8509 19.4949 35.8368 19.4888ZM22.7713 31.1353C21.5149 31.1353 20.4796 29.9818 20.4796 28.5652C20.4796 27.1486 21.4948 25.9951 22.7713 25.9951C24.0578 25.9951 25.083 27.1587 25.0629 28.5652C25.0629 29.9818 24.0478 31.1353 22.7713 31.1353ZM31.2444 31.1353C29.988 31.1353 28.9527 29.9818 28.9527 28.5652C28.9527 27.1486 29.9679 25.9951 31.2444 25.9951C32.531 25.9951 33.5562 27.1587 33.5361 28.5652C33.5361 29.9818 32.531 31.1353 31.2444 31.1353Z" fill="white"/>
</g>
</g>
<defs>
<filter id="filter0_d_565_652" x="0" y="0.595764" width="54" height="54" filterUnits="userSpaceOnUse" color-interpolation-filters="sRGB">
<feFlood flood-opacity="0" result="BackgroundImageFix"/>
<feColorMatrix in="SourceAlpha" type="matrix" values="0 0 0 0 0 0 0 0 0 0 0 0 0 0 0 0 0 0 127 0" result="hardAlpha"/>
<feOffset/>
<feGaussianBlur stdDeviation="5"/>
<feComposite in2="hardAlpha" operator="out"/>
<feColorMatrix type="matrix" values="0 0 0 0 0.191667 0 0 0 0 0.682884 0 0 0 0 1 0 0 0 0.44 0"/>
<feBlend mode="normal" in2="BackgroundImageFix" result="effect1_dropShadow_565_652"/>
<feBlend mode="normal" in="SourceGraphic" in2="effect1_dropShadow_565_652" result="shape"/>
</filter>
<clipPath id="clip0_565_652">
<rect x="10" y="10.5958" width="34" height="34" rx="10" fill="white"/>
</clipPath>
</defs>
</svg>
