<svg width="68" height="68" viewBox="0 0 68 68" fill="none" xmlns="http://www.w3.org/2000/svg">
<g filter="url(#filter0_d_37_97)">
<g clip-path="url(#clip0_37_97)">
<path d="M10.0273 26.1C10.0273 20.4051 10.0273 17.5576 11.1532 15.3903C12.102 13.5638 13.5912 12.0746 15.4176 11.1259C17.585 10 20.4324 10 26.1273 10H41.9273C47.6222 10 50.4697 10 52.6371 11.1259C54.4635 12.0746 55.9527 13.5638 56.9015 15.3903C58.0273 17.5576 58.0273 20.4051 58.0273 26.1V41.9C58.0273 47.5949 58.0273 50.4424 56.9015 52.6097C55.9527 54.4362 54.4635 55.9254 52.6371 56.8741C50.4697 58 47.6222 58 41.9273 58H26.1273C20.4324 58 17.585 58 15.4176 56.8741C13.5912 55.9254 12.102 54.4362 11.1532 52.6097C10.0273 50.4424 10.0273 47.5949 10.0273 41.9V26.1Z" fill="#5865F2"/>
<path d="M46.4755 22.5549C44.181 21.5021 41.7205 20.7264 39.1478 20.2821C39.101 20.2736 39.0542 20.295 39.03 20.3378C38.7136 20.9007 38.3631 21.6349 38.1176 22.2121C35.3506 21.7978 32.5977 21.7978 29.8875 22.2121C29.642 21.6221 29.2787 20.9007 28.9609 20.3378C28.9367 20.2964 28.8899 20.275 28.8431 20.2821C26.2719 20.725 23.8113 21.5007 21.5154 22.5549C21.4955 22.5635 21.4785 22.5777 21.4672 22.5963C16.8001 29.5689 15.5216 36.37 16.1488 43.0868C16.1516 43.1197 16.1701 43.1511 16.1956 43.1711C19.2748 45.4325 22.2575 46.8053 25.1849 47.7152C25.2318 47.7295 25.2814 47.7124 25.3112 47.6738C26.0037 46.7281 26.6209 45.731 27.1502 44.6825C27.1814 44.6211 27.1517 44.5482 27.0878 44.5239C26.1087 44.1525 25.1764 43.6997 24.2796 43.1854C24.2087 43.144 24.203 43.0426 24.2683 42.994C24.457 42.8526 24.6457 42.7054 24.8259 42.5569C24.8586 42.5297 24.904 42.524 24.9423 42.5412C30.8339 45.231 37.2123 45.231 43.0345 42.5412C43.0728 42.5226 43.1182 42.5283 43.1522 42.5554C43.3324 42.704 43.5212 42.8526 43.7113 42.994C43.7766 43.0426 43.7723 43.144 43.7014 43.1854C42.8046 43.7097 41.8723 44.1525 40.8918 44.5225C40.8279 44.5468 40.7995 44.6211 40.8308 44.6825C41.3714 45.7296 41.9887 46.7267 42.6684 47.6724C42.6967 47.7124 42.7478 47.7295 42.7946 47.7152C45.7362 46.8053 48.7189 45.4325 51.7982 43.1711C51.8251 43.1511 51.8421 43.1211 51.845 43.0883C52.5956 35.3229 50.5878 28.5775 46.5223 22.5977C46.5124 22.5777 46.4954 22.5635 46.4755 22.5549ZM28.03 38.997C26.2563 38.997 24.7947 37.3685 24.7947 35.3686C24.7947 33.3687 26.2279 31.7402 28.03 31.7402C29.8463 31.7402 31.2937 33.383 31.2653 35.3686C31.2653 37.3685 29.8321 38.997 28.03 38.997ZM39.9921 38.997C38.2184 38.997 36.7568 37.3685 36.7568 35.3686C36.7568 33.3687 38.19 31.7402 39.9921 31.7402C41.8084 31.7402 43.2558 33.383 43.2274 35.3686C43.2274 37.3685 41.8084 38.997 39.9921 38.997Z" fill="white"/>
</g>
</g>
<defs>
<filter id="filter0_d_37_97" x="0" y="0" width="68" height="68" filterUnits="userSpaceOnUse" color-interpolation-filters="sRGB">
<feFlood flood-opacity="0" result="BackgroundImageFix"/>
<feColorMatrix in="SourceAlpha" type="matrix" values="0 0 0 0 0 0 0 0 0 0 0 0 0 0 0 0 0 0 127 0" result="hardAlpha"/>
<feOffset/>
<feGaussianBlur stdDeviation="5"/>
<feComposite in2="hardAlpha" operator="out"/>
<feColorMatrix type="matrix" values="0 0 0 0 0.191667 0 0 0 0 0.682884 0 0 0 0 1 0 0 0 0.44 0"/>
<feBlend mode="normal" in2="BackgroundImageFix" result="effect1_dropShadow_37_97"/>
<feBlend mode="normal" in="SourceGraphic" in2="effect1_dropShadow_37_97" result="shape"/>
</filter>
<clipPath id="clip0_37_97">
<rect x="10" y="10" width="48" height="48" rx="10" fill="white"/>
</clipPath>
</defs>
</svg>
