<svg width="46" height="46" viewBox="0 0 46 46" fill="none" xmlns="http://www.w3.org/2000/svg">
<g filter="url(#filter0_d_1030_2048)">
<g clip-path="url(#clip0_1030_2048)">
<path d="M10.0137 18.7208C10.0137 15.6361 10.0137 14.0937 10.6235 12.9197C11.1374 11.9304 11.9441 11.1238 12.9334 10.6098C14.1074 10 15.6498 10 18.7345 10H27.2928C30.3776 10 31.92 10 33.094 10.6098C34.0833 11.1238 34.8899 11.9304 35.4038 12.9197C36.0137 14.0937 36.0137 15.6361 36.0137 18.7208V27.2792C36.0137 30.3639 36.0137 31.9063 35.4038 33.0803C34.8899 34.0696 34.0833 34.8762 33.094 35.3902C31.92 36 30.3776 36 27.2928 36H18.7345C15.6498 36 14.1074 36 12.9334 35.3902C11.9441 34.8762 11.1374 34.0696 10.6235 33.0803C10.0137 31.9063 10.0137 30.3639 10.0137 27.2792V18.7208Z" fill="#5865F2"/>
<path d="M29.7576 16.8004C28.5147 16.2302 27.1819 15.81 25.7884 15.5694C25.763 15.5647 25.7377 15.5763 25.7246 15.5995C25.5532 15.9044 25.3634 16.3021 25.2304 16.6147C23.7316 16.3903 22.2404 16.3903 20.7724 16.6147C20.6394 16.2952 20.4426 15.9044 20.2705 15.5995C20.2574 15.5771 20.232 15.5655 20.2067 15.5694C18.8139 15.8092 17.4811 16.2294 16.2375 16.8004C16.2268 16.8051 16.2175 16.8128 16.2114 16.8229C13.6834 20.5997 12.9909 24.2836 13.3306 27.9219C13.3321 27.9397 13.3421 27.9567 13.3559 27.9676C15.0239 29.1925 16.6395 29.9361 18.2252 30.429C18.2505 30.4367 18.2774 30.4274 18.2936 30.4065C18.6687 29.8943 19.003 29.3542 19.2897 28.7862C19.3066 28.753 19.2905 28.7135 19.2559 28.7003C18.7255 28.4992 18.2206 28.2539 17.7348 27.9753C17.6964 27.9529 17.6933 27.8979 17.7286 27.8716C17.8309 27.795 17.9331 27.7153 18.0307 27.6349C18.0484 27.6202 18.073 27.6171 18.0937 27.6263C21.2851 29.0834 24.74 29.0834 27.8937 27.6263C27.9144 27.6163 27.939 27.6194 27.9575 27.6341C28.0551 27.7146 28.1573 27.795 28.2603 27.8716C28.2957 27.8979 28.2933 27.9529 28.2549 27.9753C27.7691 28.2593 27.2642 28.4992 26.733 28.6996C26.6985 28.7127 26.6831 28.753 26.7 28.7862C26.9928 29.3534 27.3272 29.8935 27.6954 30.4057C27.7107 30.4274 27.7384 30.4367 27.7638 30.429C29.3571 29.9361 30.9728 29.1925 32.6407 27.9676C32.6553 27.9567 32.6645 27.9405 32.666 27.9227C33.0726 23.7165 31.985 20.0627 29.7829 16.8237C29.7776 16.8128 29.7683 16.8051 29.7576 16.8004ZM19.7663 25.7066C18.8055 25.7066 18.0138 24.8245 18.0138 23.7412C18.0138 22.6579 18.7901 21.7758 19.7663 21.7758C20.7501 21.7758 21.5341 22.6657 21.5187 23.7412C21.5187 24.8245 20.7424 25.7066 19.7663 25.7066ZM26.2457 25.7066C25.285 25.7066 24.4933 24.8245 24.4933 23.7412C24.4933 22.6579 25.2696 21.7758 26.2457 21.7758C27.2296 21.7758 28.0136 22.6657 27.9982 23.7412C27.9982 24.8245 27.2296 25.7066 26.2457 25.7066Z" fill="white"/>
</g>
</g>
<defs>
<filter id="filter0_d_1030_2048" x="0" y="0" width="46" height="46" filterUnits="userSpaceOnUse" color-interpolation-filters="sRGB">
<feFlood flood-opacity="0" result="BackgroundImageFix"/>
<feColorMatrix in="SourceAlpha" type="matrix" values="0 0 0 0 0 0 0 0 0 0 0 0 0 0 0 0 0 0 127 0" result="hardAlpha"/>
<feOffset/>
<feGaussianBlur stdDeviation="5"/>
<feComposite in2="hardAlpha" operator="out"/>
<feColorMatrix type="matrix" values="0 0 0 0 0.191667 0 0 0 0 0.682884 0 0 0 0 1 0 0 0 0.44 0"/>
<feBlend mode="normal" in2="BackgroundImageFix" result="effect1_dropShadow_1030_2048"/>
<feBlend mode="normal" in="SourceGraphic" in2="effect1_dropShadow_1030_2048" result="shape"/>
</filter>
<clipPath id="clip0_1030_2048">
<rect x="10" y="10" width="26" height="26" rx="10" fill="white"/>
</clipPath>
</defs>
</svg>
