<svg width="122" height="122" viewBox="0 0 122 122" fill="none" xmlns="http://www.w3.org/2000/svg">
<g id="error-404 2">
<g id="Error_404">
<path id="Vector (Stroke)" fill-rule="evenodd" clip-rule="evenodd" d="M14.2969 92.3027C11.007 92.3027 8.33984 94.9699 8.33984 98.2598C8.33984 101.55 11.007 104.217 14.2969 104.217H107.703C110.993 104.217 113.66 101.55 113.66 98.2598C113.66 94.9699 110.993 92.3027 107.703 92.3027H14.2969ZM1.19141 98.2598C1.19141 91.0219 7.05902 85.1543 14.2969 85.1543H107.703C114.941 85.1543 120.809 91.0219 120.809 98.2598C120.809 105.498 114.941 111.365 107.703 111.365H14.2969C7.05902 111.365 1.19141 105.498 1.19141 98.2598Z" fill="#70BAFF"/>
<path id="Vector (Stroke)_2" fill-rule="evenodd" clip-rule="evenodd" d="M32.4062 12.1523C23.8523 12.1523 16.918 19.0866 16.918 27.6406V75.2969C16.918 77.2709 15.3177 78.8711 13.3438 78.8711C11.3698 78.8711 9.76953 77.2709 9.76953 75.2969V27.6406C9.76953 15.1387 19.9043 5.00391 32.4062 5.00391H89.5938C102.096 5.00391 112.23 15.1387 112.23 27.6406V75.2969C112.23 77.2709 110.63 78.8711 108.656 78.8711C106.682 78.8711 105.082 77.2709 105.082 75.2969V27.6406C105.082 19.0866 98.1477 12.1523 89.5938 12.1523H32.4062Z" fill="#FF6666"/>
<path id="Vector (Stroke)_3" fill-rule="evenodd" clip-rule="evenodd" d="M61.0002 59.8086C54.625 59.8086 48.622 62.81 44.7971 67.9101C43.6128 69.4893 41.3724 69.8094 39.7932 68.625C38.214 67.4407 37.8939 65.2004 39.0783 63.6211C44.2533 56.7209 52.3751 52.6602 61.0002 52.6602C69.6253 52.6602 77.7471 56.7209 82.9221 63.6211C84.1065 65.2004 83.7864 67.4407 82.2072 68.625C80.628 69.8094 78.3877 69.4893 77.2033 67.9101C73.3784 62.81 67.3754 59.8086 61.0002 59.8086Z" fill="#FF6666"/>
<path id="Vector (Stroke)_4" fill-rule="evenodd" clip-rule="evenodd" d="M29.8789 25.1133C31.2747 23.7175 33.5378 23.7175 34.9336 25.1133L49.2305 39.4101C50.6263 40.806 50.6263 43.069 49.2305 44.4649C47.8347 45.8607 45.5716 45.8607 44.1758 44.4649L29.8789 30.168C28.4831 28.7722 28.4831 26.5091 29.8789 25.1133Z" fill="#FF6666"/>
<path id="Vector (Stroke)_5" fill-rule="evenodd" clip-rule="evenodd" d="M49.2305 25.1133C50.6263 26.5091 50.6263 28.7722 49.2305 30.168L34.9336 44.4649C33.5378 45.8607 31.2747 45.8607 29.8789 44.4649C28.4831 43.069 28.4831 40.806 29.8789 39.4101L44.1758 25.1133C45.5716 23.7175 47.8347 23.7175 49.2305 25.1133Z" fill="#FF6666"/>
<path id="Vector (Stroke)_6" fill-rule="evenodd" clip-rule="evenodd" d="M92.1211 25.1133C93.5169 26.5091 93.5169 28.7722 92.1211 30.168L77.8242 44.4649C76.4284 45.8607 74.1653 45.8607 72.7695 44.4649C71.3737 43.069 71.3737 40.806 72.7695 39.4101L87.0664 25.1133C88.4622 23.7175 90.7253 23.7175 92.1211 25.1133Z" fill="#FF6666"/>
<path id="Vector (Stroke)_7" fill-rule="evenodd" clip-rule="evenodd" d="M72.7695 25.1133C74.1653 23.7175 76.4284 23.7175 77.8242 25.1133L92.1211 39.4101C93.5169 40.806 93.5169 43.069 92.1211 44.4649C90.7253 45.8607 88.4622 45.8607 87.0664 44.4649L72.7695 30.168C71.3737 28.7722 71.3737 26.5091 72.7695 25.1133Z" fill="#FF6666"/>
</g>
</g>
</svg>
