<svg width="46" height="46" viewBox="0 0 46 46" fill="none" xmlns="http://www.w3.org/2000/svg">
<g filter="url(#filter0_d_1030_2130)">
<g clip-path="url(#clip0_1030_2130)">
<path d="M10 18.7208C10 15.6361 10 14.0937 10.6098 12.9197C11.1238 11.9304 11.9304 11.1238 12.9197 10.6098C14.0937 10 15.6361 10 18.7208 10H27.2792C30.3639 10 31.9063 10 33.0803 10.6098C34.0696 11.1238 34.8762 11.9304 35.3902 12.9197C36 14.0937 36 15.6361 36 18.7208V27.2792C36 30.3639 36 31.9063 35.3902 33.0803C34.8762 34.0696 34.0696 34.8762 33.0803 35.3902C31.9063 36 30.3639 36 27.2792 36H18.7208C15.6361 36 14.0937 36 12.9197 35.3902C11.9304 34.8762 11.1238 34.0696 10.6098 33.0803C10 31.9063 10 30.3639 10 27.2792V18.7208Z" fill="#1977F3"/>
<path fill-rule="evenodd" clip-rule="evenodd" d="M27.638 22.9851H24.9683V31H20.9237V22.9851H19V20.1675H20.9237V18.3449C20.9237 17.0417 21.6787 15 25.005 15L28 15.0106V17.7449H25.8267C25.4696 17.7449 24.9683 17.8911 24.9683 18.5124V20.1708H27.9924L27.638 22.9851Z" fill="white"/>
</g>
</g>
<defs>
<filter id="filter0_d_1030_2130" x="0" y="0" width="46" height="46" filterUnits="userSpaceOnUse" color-interpolation-filters="sRGB">
<feFlood flood-opacity="0" result="BackgroundImageFix"/>
<feColorMatrix in="SourceAlpha" type="matrix" values="0 0 0 0 0 0 0 0 0 0 0 0 0 0 0 0 0 0 127 0" result="hardAlpha"/>
<feOffset/>
<feGaussianBlur stdDeviation="5"/>
<feComposite in2="hardAlpha" operator="out"/>
<feColorMatrix type="matrix" values="0 0 0 0 0.191667 0 0 0 0 0.682884 0 0 0 0 1 0 0 0 0.44 0"/>
<feBlend mode="normal" in2="BackgroundImageFix" result="effect1_dropShadow_1030_2130"/>
<feBlend mode="normal" in="SourceGraphic" in2="effect1_dropShadow_1030_2130" result="shape"/>
</filter>
<clipPath id="clip0_1030_2130">
<rect x="10" y="10" width="26" height="26" rx="10" fill="white"/>
</clipPath>
</defs>
</svg>
