<svg width="26" height="26" viewBox="0 0 26 26" fill="none" xmlns="http://www.w3.org/2000/svg">
<g id="Telegram">
<g clip-path="url(#clip0_637_100)">
<path id="Container" d="M0 8.72083C0 5.63609 0 4.09372 0.609844 2.91972C1.12375 1.9304 1.9304 1.12375 2.91972 0.609844C4.09372 0 5.63609 0 8.72083 0H17.2792C20.3639 0 21.9063 0 23.0803 0.609844C24.0696 1.12375 24.8762 1.9304 25.3902 2.91972C26 4.09372 26 5.63609 26 8.72083V17.2792C26 20.3639 26 21.9063 25.3902 23.0803C24.8762 24.0696 24.0696 24.8762 23.0803 25.3902C21.9063 26 20.3639 26 17.2792 26H8.72083C5.63609 26 4.09372 26 2.91972 25.3902C1.9304 24.8762 1.12375 24.0696 0.609844 23.0803C0 21.9063 0 20.3639 0 17.2792V8.72083Z" fill="#1977F3"/>
<path id="Vector" fill-rule="evenodd" clip-rule="evenodd" d="M17.638 12.9851H14.9683V21H10.9237V12.9851H9V10.1675H10.9237V8.34488C10.9237 7.0417 11.6787 5 15.005 5L18 5.01061V7.74492H15.8267C15.4696 7.74492 14.9683 7.89112 14.9683 8.5124V10.1708H17.9924L17.638 12.9851Z" fill="white"/>
</g>
</g>
<defs>
<clipPath id="clip0_637_100">
<rect width="26" height="26" rx="10" fill="white"/>
</clipPath>
</defs>
</svg>
