<svg width="81" height="80" viewBox="0 0 81 80" fill="none" xmlns="http://www.w3.org/2000/svg">
<path fill-rule="evenodd" clip-rule="evenodd" d="M41.6318 10.6759C42.533 11.5771 42.533 13.0383 41.6318 13.9395L35.4779 20.0933C35.1998 20.3715 34.8683 20.5638 34.5163 20.6703C35.5767 22.2874 36.1538 24.1908 36.1538 26.1538C36.1538 28.806 35.1003 31.3496 33.2249 33.2249C31.3496 35.1003 28.806 36.1538 26.1538 36.1538C23.5017 36.1538 20.9581 35.1003 19.0828 33.2249C17.2074 31.3496 16.1538 28.806 16.1538 26.1538C16.1538 23.5017 17.2074 20.9581 19.0828 19.0828C20.9581 17.2074 23.5017 16.1538 26.1538 16.1538C28.1168 16.1538 30.0203 16.731 31.6374 17.7914C31.7439 17.4394 31.9362 17.1079 32.2144 16.8298L38.3682 10.6759C39.2694 9.7747 40.7306 9.7747 41.6318 10.6759ZM52.9289 12.9289C54.8043 11.0536 57.3478 10 60 10C62.6522 10 65.1957 11.0536 67.0711 12.9289C68.9464 14.8043 70 17.3478 70 20C70 22.6522 68.9464 25.1957 67.0711 27.0711C65.1957 28.9464 62.6522 30 60 30C58.037 30 56.1335 29.4228 54.5164 28.3625C54.41 28.7144 54.2176 29.0459 53.9395 29.3241L29.3241 53.9395C29.0459 54.2176 28.7144 54.41 28.3625 54.5164C29.4228 56.1335 30 58.037 30 60C30 62.6522 28.9464 65.1957 27.0711 67.0711C25.1957 68.9464 22.6522 70 20 70C17.3478 70 14.8043 68.9464 12.9289 67.0711C11.0536 65.1957 10 62.6522 10 60C10 57.3478 11.0536 54.8043 12.9289 52.9289C14.8043 51.0536 17.3478 50 20 50C21.963 50 23.8665 50.5772 25.4836 51.6375C25.59 51.2856 25.7824 50.9541 26.0605 50.6759L50.6759 26.0605C50.9541 25.7824 51.2856 25.59 51.6375 25.4836C50.5772 23.8665 50 21.963 50 20C50 17.3478 51.0536 14.8043 52.9289 12.9289ZM60 14.6154C58.5719 14.6154 57.2023 15.1827 56.1925 16.1925C55.1827 17.2023 54.6154 18.5719 54.6154 20C54.6154 21.4281 55.1827 22.7977 56.1925 23.8075C57.2023 24.8173 58.5719 25.3846 60 25.3846C61.4281 25.3846 62.7977 24.8173 63.8075 23.8075C64.8173 22.7977 65.3846 21.4281 65.3846 20C65.3846 18.5719 64.8173 17.2023 63.8075 16.1925C62.7977 15.1827 61.4281 14.6154 60 14.6154ZM26.1538 20.7692C24.7258 20.7692 23.3562 21.3365 22.3463 22.3463C21.3365 23.3562 20.7692 24.7258 20.7692 26.1538C20.7692 27.5819 21.3365 28.9515 22.3463 29.9613C23.3562 30.9712 24.7258 31.5385 26.1538 31.5385C27.5819 31.5385 28.9515 30.9712 29.9613 29.9613C30.9712 28.9515 31.5385 27.5819 31.5385 26.1538C31.5385 24.7258 30.9712 23.3562 29.9613 22.3463C28.9515 21.3365 27.5819 20.7692 26.1538 20.7692ZM46.7751 46.7751C48.6504 44.8997 51.194 43.8462 53.8462 43.8462C56.4983 43.8462 59.0419 44.8997 60.9172 46.7751C62.7926 48.6504 63.8462 51.194 63.8462 53.8462C63.8462 56.4983 62.7926 59.0419 60.9172 60.9172C59.0419 62.7926 56.4983 63.8462 53.8462 63.8462C51.8832 63.8462 49.9797 63.269 48.3626 62.2086C48.2561 62.5606 48.0638 62.8921 47.7856 63.1702L41.6318 69.3241C40.7306 70.2253 39.2694 70.2253 38.3682 69.3241C37.467 68.4229 37.467 66.9617 38.3682 66.0605L44.5221 59.9067C44.8002 59.6285 45.1317 59.4362 45.4837 59.3297C44.4233 57.7126 43.8462 55.8092 43.8462 53.8462C43.8462 51.194 44.8997 48.6504 46.7751 46.7751ZM53.8462 48.4615C52.4181 48.4615 51.0485 49.0288 50.0387 50.0387C49.0288 51.0485 48.4615 52.4181 48.4615 53.8462C48.4615 55.2742 49.0288 56.6438 50.0387 57.6537C51.0485 58.6635 52.4181 59.2308 53.8462 59.2308C55.2742 59.2308 56.6438 58.6635 57.6537 57.6537C58.6635 56.6438 59.2308 55.2742 59.2308 53.8462C59.2308 52.4181 58.6635 51.0485 57.6537 50.0387C56.6438 49.0288 55.2742 48.4615 53.8462 48.4615ZM20 54.6154C18.5719 54.6154 17.2023 55.1827 16.1925 56.1925C15.1827 57.2023 14.6154 58.5719 14.6154 60C14.6154 61.4281 15.1827 62.7977 16.1925 63.8075C17.2023 64.8173 18.5719 65.3846 20 65.3846C21.4281 65.3846 22.7977 64.8173 23.8075 63.8075C24.8173 62.7977 25.3846 61.4281 25.3846 60C25.3846 58.5719 24.8173 57.2023 23.8075 56.1925C22.7977 55.1827 21.4281 54.6154 20 54.6154Z" fill="white"/>
</svg>
