<svg width="134" height="50" viewBox="0 0 134 50" fill="none" xmlns="http://www.w3.org/2000/svg">
<mask id="mask0_107_404" style="mask-type:luminance" maskUnits="userSpaceOnUse" x="0" y="0" width="133" height="50">
<path d="M133 0H0V50H133V0Z" fill="white"/>
</mask>
<g mask="url(#mask0_107_404)">
<path d="M0 50H50V0H0V50ZM5.17599 5.17598H17.7795L35.1191 23.1884V11.9824L28.5715 5.17598H44.824V44.824H32.1946L14.881 26.8116V38.0176L21.4286 44.824H5.17599V5.17598Z" fill="#346AF7"/>
<path d="M72.2039 10H60.7961C55.8984 10 53.5 12.3092 53.5 17.0841V32.9159C53.5 37.6712 55.8783 40 60.7961 40H72.2039C77.1016 40 79.5 37.6908 79.5 32.9159V17.0841C79.5 12.3092 77.1016 10 72.2039 10ZM73.0705 32.8963C73.0705 34.0509 72.5868 34.0509 72.2039 34.0509H60.7961C60.4132 34.0509 59.9295 34.0509 59.9295 32.8963V17.0841C59.9295 15.9295 60.4132 15.9296 60.7961 15.9296H72.2039C72.5868 15.9296 73.0705 15.9295 73.0705 17.0841V32.8963Z" fill="white"/>
<path d="M80.5 15.9334H89.9065V40H96.0935V15.9334H105.5V10H80.5V15.9334Z" fill="white"/>
<path d="M107.5 10V15.9334H116.899V40H123.101V15.9334H132.5V10H107.5Z" fill="white"/>
</g>
</svg>
