<svg width="26" height="26" viewBox="0 0 26 26" fill="none" xmlns="http://www.w3.org/2000/svg">
<g id="Discord">
<g clip-path="url(#clip0_637_88)">
<path id="Container" d="M0.0136719 8.72083C0.0136719 5.63609 0.0136719 4.09372 0.623516 2.91972C1.13742 1.9304 1.94408 1.12375 2.93339 0.609844C4.10739 0 5.64976 0 8.73451 0H17.2928C20.3776 0 21.92 0 23.094 0.609844C24.0833 1.12375 24.8899 1.9304 25.4038 2.91972C26.0137 4.09372 26.0137 5.63609 26.0137 8.72083V17.2792C26.0137 20.3639 26.0137 21.9063 25.4038 23.0803C24.8899 24.0696 24.0833 24.8762 23.094 25.3902C21.92 26 20.3776 26 17.2928 26H8.73451C5.64976 26 4.10739 26 2.93339 25.3902C1.94408 24.8762 1.13742 24.0696 0.623516 23.0803C0.0136719 21.9063 0.0136719 20.3639 0.0136719 17.2792V8.72083Z" fill="#3F3F3F"/>
<g id="icon">
<path id="Icon" d="M10.2844 21C10.8301 21 10.9843 20.7788 10.9843 20.4962C10.9843 20.2135 10.9843 19.5991 10.9724 18.7266C8.13733 19.3533 7.53234 17.3257 7.53234 17.3257C7.06971 16.1336 6.39355 15.8018 6.39355 15.8018C5.46829 15.1628 6.46473 15.1751 6.46473 15.1751C7.4849 15.2488 8.03057 16.2442 8.03057 16.2442C8.94397 17.8418 10.4149 17.3748 10.9962 17.1045C11.0436 16.576 11.269 16.0722 11.6486 15.7035C9.38288 15.4455 6.99854 14.5484 6.99854 10.5668C6.98667 9.53456 7.36627 8.52688 8.05429 7.77726C7.93567 7.5192 7.59166 6.46236 8.13733 5.02458C8.13733 5.02458 8.99142 4.74193 10.9487 6.0937C12.6213 5.62673 14.3769 5.62673 16.0495 6.0937C17.9831 4.75422 18.8491 5.02458 18.8491 5.02458C19.3947 6.45008 19.0507 7.50691 18.9558 7.77726C19.6439 8.52688 20.0116 9.53456 19.9997 10.5668C19.9997 14.5607 17.6154 15.4332 15.3378 15.6912C15.6937 15.9985 16.0258 16.6375 16.0258 17.6083C16.0258 19.0092 16.014 20.1152 16.014 20.447C16.014 20.7174 16.1326 20.9386 16.7138 20.9386L10.2844 21Z" fill="white"/>
</g>
</g>
</g>
<defs>
<clipPath id="clip0_637_88">
<rect width="26" height="26" rx="10" fill="white"/>
</clipPath>
</defs>
</svg>
