<svg width="46" height="46" viewBox="0 0 46 46" fill="none" xmlns="http://www.w3.org/2000/svg">
<g filter="url(#filter0_d_1030_2140)">
<g clip-path="url(#clip0_1030_2140)">
<path d="M10.0137 18.7208C10.0137 15.6361 10.0137 14.0937 10.6235 12.9197C11.1374 11.9304 11.9441 11.1238 12.9334 10.6098C14.1074 10 15.6498 10 18.7345 10H27.2928C30.3776 10 31.92 10 33.094 10.6098C34.0833 11.1238 34.8899 11.9304 35.4038 12.9197C36.0137 14.0937 36.0137 15.6361 36.0137 18.7208V27.2792C36.0137 30.3639 36.0137 31.9063 35.4038 33.0803C34.8899 34.0696 34.0833 34.8762 33.094 35.3902C31.92 36 30.3776 36 27.2928 36H18.7345C15.6498 36 14.1074 36 12.9334 35.3902C11.9441 34.8762 11.1374 34.0696 10.6235 33.0803C10.0137 31.9063 10.0137 30.3639 10.0137 27.2792V18.7208Z" fill="#3F3F3F"/>
<path d="M20.2844 31C20.8301 31 20.9843 30.7788 20.9843 30.4962C20.9843 30.2135 20.9843 29.5991 20.9724 28.7266C18.1373 29.3533 17.5323 27.3257 17.5323 27.3257C17.0697 26.1336 16.3936 25.8018 16.3936 25.8018C15.4683 25.1628 16.4647 25.1751 16.4647 25.1751C17.4849 25.2488 18.0306 26.2442 18.0306 26.2442C18.944 27.8418 20.4149 27.3748 20.9962 27.1045C21.0436 26.576 21.269 26.0722 21.6486 25.7035C19.3829 25.4455 16.9985 24.5484 16.9985 20.5668C16.9867 19.5346 17.3663 18.5269 18.0543 17.7773C17.9357 17.5192 17.5917 16.4624 18.1373 15.0246C18.1373 15.0246 18.9914 14.7419 20.9487 16.0937C22.6213 15.6267 24.3769 15.6267 26.0495 16.0937C27.9831 14.7542 28.8491 15.0246 28.8491 15.0246C29.3947 16.4501 29.0507 17.5069 28.9558 17.7773C29.6439 18.5269 30.0116 19.5346 29.9997 20.5668C29.9997 24.5607 27.6154 25.4332 25.3378 25.6912C25.6937 25.9985 26.0258 26.6375 26.0258 27.6083C26.0258 29.0092 26.014 30.1152 26.014 30.447C26.014 30.7174 26.1326 30.9386 26.7138 30.9386L20.2844 31Z" fill="white"/>
</g>
</g>
<defs>
<filter id="filter0_d_1030_2140" x="0" y="0" width="46" height="46" filterUnits="userSpaceOnUse" color-interpolation-filters="sRGB">
<feFlood flood-opacity="0" result="BackgroundImageFix"/>
<feColorMatrix in="SourceAlpha" type="matrix" values="0 0 0 0 0 0 0 0 0 0 0 0 0 0 0 0 0 0 127 0" result="hardAlpha"/>
<feOffset/>
<feGaussianBlur stdDeviation="5"/>
<feComposite in2="hardAlpha" operator="out"/>
<feColorMatrix type="matrix" values="0 0 0 0 0.409722 0 0 0 0 0.409722 0 0 0 0 0.409722 0 0 0 0.44 0"/>
<feBlend mode="normal" in2="BackgroundImageFix" result="effect1_dropShadow_1030_2140"/>
<feBlend mode="normal" in="SourceGraphic" in2="effect1_dropShadow_1030_2140" result="shape"/>
</filter>
<clipPath id="clip0_1030_2140">
<rect x="10" y="10" width="26" height="26" rx="10" fill="white"/>
</clipPath>
</defs>
</svg>
