<svg width="24" height="24" viewBox="0 0 24 24" fill="none" xmlns="http://www.w3.org/2000/svg">
<g id="help (1) 1">
<g id="Group 1">
<path id="Vector" d="M12 22C10.0222 22 8.08879 21.4135 6.4443 20.3147C4.79981 19.2159 3.51809 17.6541 2.76121 15.8268C2.00433 13.9996 1.8063 11.9889 2.19215 10.0491C2.578 8.10929 3.53041 6.32746 4.92894 4.92894C6.32746 3.53041 8.10929 2.578 10.0491 2.19215C11.9889 1.8063 13.9996 2.00433 15.8268 2.76121C17.6541 3.51809 19.2159 4.79981 20.3147 6.4443C21.4135 8.08879 22 10.0222 22 12C21.9969 14.6512 20.9424 17.193 19.0677 19.0677C17.193 20.9424 14.6512 21.9969 12 22ZM12 3.53847C10.3265 3.53847 8.69052 4.03473 7.29902 4.96449C5.90753 5.89426 4.823 7.21577 4.18256 8.76191C3.54213 10.3081 3.37456 12.0094 3.70105 13.6508C4.02754 15.2921 4.83343 16.7998 6.01679 17.9832C7.20016 19.1666 8.70786 19.9725 10.3492 20.299C11.9906 20.6254 13.6919 20.4579 15.2381 19.8174C16.7842 19.177 18.1057 18.0925 19.0355 16.701C19.9653 15.3095 20.4615 13.6735 20.4615 12C20.4589 9.75668 19.5666 7.60599 17.9803 6.01972C16.394 4.43344 14.2433 3.54111 12 3.53847Z" fill="white"/>
<path id="Vector_2" d="M11.9999 15.0768C11.7959 15.0768 11.6002 14.9958 11.456 14.8515C11.3117 14.7073 11.2307 14.5116 11.2307 14.3076C11.28 13.824 11.4278 13.3557 11.665 12.9314C11.9022 12.5072 12.2238 12.136 12.6099 11.8407C13.0876 11.363 13.5384 10.9122 13.5384 10.4614C13.5384 10.0534 13.3763 9.66211 13.0878 9.37359C12.7992 9.08507 12.4079 8.92298 11.9999 8.92298C11.5919 8.92298 11.2006 9.08507 10.912 9.37359C10.6235 9.66211 10.4614 10.0534 10.4614 10.4614C10.4614 10.6655 10.3804 10.8611 10.2361 11.0054C10.0919 11.1496 9.89622 11.2307 9.6922 11.2307C9.48819 11.2307 9.29253 11.1496 9.14828 11.0054C9.00402 10.8611 8.92297 10.6655 8.92297 10.4614C8.92297 9.64539 9.24715 8.86277 9.82418 8.28573C10.4012 7.7087 11.1838 7.38452 11.9999 7.38452C12.8159 7.38452 13.5986 7.7087 14.1756 8.28573C14.7526 8.86277 15.0768 9.64539 15.0768 10.4614C15.0275 10.945 14.8796 11.4133 14.6424 11.8376C14.4052 12.2619 14.0837 12.6331 13.6976 12.9284C13.2199 13.4061 12.7691 13.8568 12.7691 14.3076C12.7691 14.5116 12.6881 14.7073 12.5438 14.8515C12.3996 14.9958 12.2039 15.0768 11.9999 15.0768Z" fill="white"/>
<path id="Vector_3" d="M11.9998 17.3847C12.4247 17.3847 12.7691 17.0403 12.7691 16.6154C12.7691 16.1906 12.4247 15.8462 11.9998 15.8462C11.575 15.8462 11.2306 16.1906 11.2306 16.6154C11.2306 17.0403 11.575 17.3847 11.9998 17.3847Z" fill="white"/>
</g>
</g>
</svg>
