<svg width="444" height="57" viewBox="0 0 444 57" fill="none" xmlns="http://www.w3.org/2000/svg">
<path d="M443.667 3C443.667 4.47276 442.473 5.66667 441 5.66667C439.527 5.66667 438.333 4.47276 438.333 3C438.333 1.52724 439.527 0.333333 441 0.333333C442.473 0.333333 443.667 1.52724 443.667 3ZM6.16666 54C6.16666 55.4728 4.97275 56.6667 3.5 56.6667C2.02725 56.6667 0.833344 55.4728 0.833344 54C0.833344 52.5272 2.02725 51.3333 3.5 51.3333C4.97275 51.3333 6.16666 52.5272 6.16666 54ZM103.5 3L103.273 2.55458L103.38 2.5H103.5V3ZM441 3.5H103.5V2.5H441V3.5ZM103.727 3.44542L3.72717 54.4454L3.27283 53.5546L103.273 2.55458L103.727 3.44542Z" fill="#346AF7"/>
</svg>
