<svg width="24" height="24" viewBox="0 0 24 24" fill="none" xmlns="http://www.w3.org/2000/svg">
<g id="info (2) 1">
<g id="Export-(Final---R1)">
<g id="info">
<path id="circle" d="M12 2C17.5228 2 22 6.47715 22 12C22 17.5228 17.5228 22 12 22C6.47715 22 2 17.5228 2 12C2 6.47715 6.47715 2 12 2ZM12 3.42857C7.26613 3.42857 3.42857 7.26613 3.42857 12C3.42857 16.7339 7.26613 20.5714 12 20.5714C16.7339 20.5714 20.5714 16.7339 20.5714 12C20.5714 7.26613 16.7339 3.42857 12 3.42857Z" fill="#346AF7"/>
<path id="dot" d="M12.2038 8.22455C12.711 8.22455 13.1221 7.81339 13.1221 7.30618C13.1221 6.79898 12.711 6.38782 12.2038 6.38782C11.6966 6.38782 11.2854 6.79898 11.2854 7.30618C11.2854 7.81339 11.6966 8.22455 12.2038 8.22455Z" fill="#346AF7"/>
<path id="dot (Stroke)" fill-rule="evenodd" clip-rule="evenodd" d="M12.204 6.48997C11.7532 6.48997 11.3877 6.85545 11.3877 7.3063C11.3877 7.75714 11.7532 8.12262 12.204 8.12262C12.6548 8.12262 13.0203 7.75714 13.0203 7.3063C13.0203 6.85545 12.6548 6.48997 12.204 6.48997ZM11.1836 7.3063C11.1836 6.74274 11.6404 6.28589 12.204 6.28589C12.7676 6.28589 13.2244 6.74274 13.2244 7.3063C13.2244 7.86985 12.7676 8.3267 12.204 8.3267C11.6404 8.3267 11.1836 7.86985 11.1836 7.3063Z" fill="#346AF7"/>
<path id="stroke" d="M14.4327 15.5455C15.3256 15.5887 15.3256 16.9287 14.4327 16.9719L10.3915 16.973C9.99704 16.973 9.67725 16.6532 9.67725 16.2587C9.67725 15.8774 9.97608 15.5658 10.3523 15.5455L11.694 15.5443V10.8L10.7758 10.8002C10.3945 10.8002 10.0829 10.5013 10.0626 10.1251L10.0615 10.0859C10.0615 9.70453 10.3604 9.39298 10.7366 9.37264L10.7758 9.37158H12.4085C12.7898 9.37158 13.1013 9.67041 13.1217 10.0467L13.1228 10.0859L13.1225 15.5443L14.4327 15.5455Z" fill="#346AF7"/>
</g>
</g>
</g>
</svg>
