<svg width="26" height="26" viewBox="0 0 26 26" fill="none" xmlns="http://www.w3.org/2000/svg">
<g clip-path="url(#clip0_637_82)">
<path d="M0.0136719 8.72083C0.0136719 5.63609 0.0136719 4.09372 0.623516 2.91972C1.13742 1.9304 1.94408 1.12375 2.93339 0.609844C4.10739 0 5.64976 0 8.73451 0H17.2928C20.3776 0 21.92 0 23.094 0.609844C24.0833 1.12375 24.8899 1.9304 25.4038 2.91972C26.0137 4.09372 26.0137 5.63609 26.0137 8.72083V17.2792C26.0137 20.3639 26.0137 21.9063 25.4038 23.0803C24.8899 24.0696 24.0833 24.8762 23.094 25.3902C21.92 26 20.3776 26 17.2928 26H8.73451C5.64976 26 4.10739 26 2.93339 25.3902C1.94408 24.8762 1.13742 24.0696 0.623516 23.0803C0.0136719 21.9063 0.0136719 20.3639 0.0136719 17.2792V8.72083Z" fill="#007FBC"/>
<path d="M10.148 7.77273C10.148 8.12334 10.044 8.46608 9.84924 8.7576C9.65445 9.04912 9.37758 9.27634 9.05366 9.41051C8.72974 9.54469 8.3733 9.57979 8.02942 9.51139C7.68555 9.44299 7.36968 9.27415 7.12176 9.02623C6.87384 8.77831 6.705 8.46244 6.6366 8.11857C6.5682 7.77469 6.60331 7.41826 6.73748 7.09433C6.87165 6.77041 7.09887 6.49355 7.39039 6.29876C7.68192 6.10397 8.02465 6 8.37527 6C8.84542 6 9.29632 6.18677 9.62877 6.51922C9.96123 6.85167 10.148 7.30257 10.148 7.77273Z" fill="white"/>
<path d="M9.74655 10.7267V18.5587C9.74686 18.6164 9.73575 18.6737 9.71385 18.7272C9.69196 18.7806 9.65971 18.8293 9.61896 18.8702C9.57822 18.9112 9.52978 18.9437 9.47643 18.9659C9.42308 18.9881 9.36587 18.9995 9.30809 18.9995H7.43964C7.38186 18.9996 7.32462 18.9884 7.27121 18.9663C7.2178 18.9443 7.16928 18.9119 7.12842 18.8711C7.08757 18.8302 7.05519 18.7817 7.03315 18.7283C7.01111 18.6748 6.99985 18.6176 7 18.5598V10.7267C7 10.6101 7.04632 10.4983 7.12877 10.4159C7.21122 10.3334 7.32304 10.2871 7.43964 10.2871H9.30809C9.42449 10.2874 9.53601 10.3339 9.6182 10.4163C9.70039 10.4987 9.74655 10.6104 9.74655 10.7267Z" fill="white"/>
<path d="M19.5126 14.8051V18.5964C19.5127 18.6495 19.5024 18.7021 19.4821 18.7512C19.4619 18.8003 19.4321 18.845 19.3945 18.8825C19.357 18.9201 19.3124 18.9499 19.2633 18.9701C19.2141 18.9904 19.1615 19.0007 19.1084 19.0006H17.0993C17.0462 19.0007 16.9936 18.9904 16.9444 18.9701C16.8953 18.9499 16.8507 18.9201 16.8132 18.8825C16.7756 18.845 16.7458 18.8003 16.7256 18.7512C16.7053 18.7021 16.695 18.6495 16.6951 18.5964V14.9221C16.6951 14.3737 16.8559 12.5207 15.2616 12.5207C14.0266 12.5207 13.7749 13.7887 13.7252 14.3584V18.5964C13.7252 18.7026 13.6835 18.8045 13.6089 18.8801C13.5344 18.9557 13.4331 18.999 13.3269 19.0006H11.3864C11.3334 19.0006 11.2809 18.9901 11.2319 18.9698C11.1829 18.9494 11.1385 18.9197 11.101 18.8821C11.0636 18.8446 11.0339 18.8 11.0137 18.751C10.9936 18.7019 10.9832 18.6494 10.9834 18.5964V10.6936C10.9832 10.6405 10.9936 10.588 11.0137 10.539C11.0339 10.49 11.0636 10.4454 11.101 10.4078C11.1385 10.3703 11.1829 10.3405 11.2319 10.3202C11.2809 10.2998 11.3334 10.2894 11.3864 10.2894H13.3269C13.4341 10.2894 13.5369 10.332 13.6127 10.4078C13.6885 10.4836 13.7311 10.5864 13.7311 10.6936V11.3767C14.1897 10.6888 14.8692 10.1582 16.3193 10.1582C19.5315 10.1582 19.5126 13.1577 19.5126 14.8051Z" fill="white"/>
</g>
<defs>
<clipPath id="clip0_637_82">
<rect width="26" height="26" rx="10" fill="white"/>
</clipPath>
</defs>
</svg>
