<svg width="46" height="46" viewBox="0 0 46 46" fill="none" xmlns="http://www.w3.org/2000/svg">
<g filter="url(#filter0_d_1030_2094)">
<g clip-path="url(#clip0_1030_2094)">
<path d="M10.0137 18.7208C10.0137 15.6361 10.0137 14.0937 10.6235 12.9197C11.1374 11.9304 11.9441 11.1238 12.9334 10.6098C14.1074 10 15.6498 10 18.7345 10H27.2928C30.3776 10 31.92 10 33.094 10.6098C34.0833 11.1238 34.8899 11.9304 35.4038 12.9197C36.0137 14.0937 36.0137 15.6361 36.0137 18.7208V27.2792C36.0137 30.3639 36.0137 31.9063 35.4038 33.0803C34.8899 34.0696 34.0833 34.8762 33.094 35.3902C31.92 36 30.3776 36 27.2928 36H18.7345C15.6498 36 14.1074 36 12.9334 35.3902C11.9441 34.8762 11.1374 34.0696 10.6235 33.0803C10.0137 31.9063 10.0137 30.3639 10.0137 27.2792V18.7208Z" fill="#007FBC"/>
<path d="M20.148 17.7727C20.148 18.1233 20.044 18.4661 19.8492 18.7576C19.6544 19.0491 19.3776 19.2763 19.0537 19.4105C18.7297 19.5447 18.3733 19.5798 18.0294 19.5114C17.6855 19.443 17.3697 19.2742 17.1218 19.0262C16.8738 18.7783 16.705 18.4624 16.6366 18.1186C16.5682 17.7747 16.6033 17.4183 16.7375 17.0943C16.8717 16.7704 17.0989 16.4935 17.3904 16.2988C17.6819 16.104 18.0247 16 18.3753 16C18.8454 16 19.2963 16.1868 19.6288 16.5192C19.9612 16.8517 20.148 17.3026 20.148 17.7727Z" fill="white"/>
<path d="M19.7465 20.7272V28.5591C19.7469 28.6169 19.7357 28.6742 19.7139 28.7277C19.692 28.7811 19.6597 28.8297 19.619 28.8707C19.5782 28.9117 19.5298 28.9442 19.4764 28.9664C19.4231 28.9885 19.3659 29 19.3081 29H17.4396C17.3819 29.0001 17.3246 28.9888 17.2712 28.9668C17.2178 28.9448 17.1693 28.9124 17.1284 28.8715C17.0876 28.8307 17.0552 28.7822 17.0331 28.7287C17.0111 28.6753 16.9998 28.6181 17 28.5603V20.7272C17 20.6106 17.0463 20.4988 17.1288 20.4164C17.2112 20.3339 17.323 20.2876 17.4396 20.2876H19.3081C19.4245 20.2879 19.536 20.3344 19.6182 20.4168C19.7004 20.4992 19.7465 20.6108 19.7465 20.7272Z" fill="white"/>
<path d="M29.5126 24.8046V28.5959C29.5127 28.649 29.5024 28.7016 29.4821 28.7508C29.4619 28.7999 29.4321 28.8445 29.3945 28.882C29.357 28.9196 29.3124 28.9494 29.2633 28.9696C29.2141 28.9899 29.1615 29.0002 29.1084 29.0001H27.0993C27.0462 29.0002 26.9936 28.9899 26.9444 28.9696C26.8953 28.9494 26.8507 28.9196 26.8132 28.882C26.7756 28.8445 26.7458 28.7999 26.7256 28.7508C26.7053 28.7016 26.695 28.649 26.6951 28.5959V24.9216C26.6951 24.3733 26.8559 22.5202 25.2616 22.5202C24.0266 22.5202 23.7749 23.7883 23.7252 24.3579V28.5959C23.7252 28.7021 23.6835 28.804 23.6089 28.8796C23.5344 28.9553 23.4331 28.9985 23.3269 29.0001H21.3864C21.3334 29.0001 21.2809 28.9896 21.2319 28.9693C21.1829 28.949 21.1385 28.9192 21.101 28.8816C21.0636 28.8441 21.0339 28.7995 21.0137 28.7505C20.9936 28.7014 20.9832 28.6489 20.9834 28.5959V20.6931C20.9832 20.6401 20.9936 20.5875 21.0137 20.5385C21.0339 20.4895 21.0636 20.4449 21.101 20.4073C21.1385 20.3698 21.1829 20.34 21.2319 20.3197C21.2809 20.2994 21.3334 20.2889 21.3864 20.2889H23.3269C23.4341 20.2889 23.5369 20.3315 23.6127 20.4073C23.6885 20.4831 23.7311 20.5859 23.7311 20.6931V21.3762C24.1897 20.6884 24.8692 20.1577 26.3193 20.1577C29.5315 20.1577 29.5126 23.1572 29.5126 24.8046Z" fill="white"/>
</g>
</g>
<defs>
<filter id="filter0_d_1030_2094" x="0" y="0" width="46" height="46" filterUnits="userSpaceOnUse" color-interpolation-filters="sRGB">
<feFlood flood-opacity="0" result="BackgroundImageFix"/>
<feColorMatrix in="SourceAlpha" type="matrix" values="0 0 0 0 0 0 0 0 0 0 0 0 0 0 0 0 0 0 127 0" result="hardAlpha"/>
<feOffset/>
<feGaussianBlur stdDeviation="5"/>
<feComposite in2="hardAlpha" operator="out"/>
<feColorMatrix type="matrix" values="0 0 0 0 0.191667 0 0 0 0 0.682884 0 0 0 0 1 0 0 0 0.44 0"/>
<feBlend mode="normal" in2="BackgroundImageFix" result="effect1_dropShadow_1030_2094"/>
<feBlend mode="normal" in="SourceGraphic" in2="effect1_dropShadow_1030_2094" result="shape"/>
</filter>
<clipPath id="clip0_1030_2094">
<rect x="10" y="10" width="26" height="26" rx="10" fill="white"/>
</clipPath>
</defs>
</svg>
