<svg width="94" height="40" viewBox="0 0 94 40" fill="none" xmlns="http://www.w3.org/2000/svg">
<g clip-path="url(#clip0_4_916)">
<path d="M2.3339 40H37.4229C38.7106 40 39.7568 38.9452 39.7568 37.6471V2.35294C39.7568 1.05477 38.7106 0 37.4229 0H2.3339C1.04623 0 0 1.05477 0 2.35294V37.7282C0 39.0264 1.04623 40 2.3339 40ZM26.2363 15.0913V10.142C26.2363 9.81744 26.0753 9.41177 25.8339 9.16836L22.7757 5.92292C22.1318 5.27383 22.6147 4.13793 23.5 4.13793H33.238C34.5257 4.13793 35.5719 5.1927 35.5719 6.49087V33.5903C35.5719 34.8884 34.5257 35.9432 33.238 35.9432H28.1678C27.524 35.9432 26.8801 35.6998 26.4777 35.213L15.8545 23.9351C14.9692 23.0426 13.4401 23.6105 13.4401 24.9087V29.858C13.4401 30.1826 13.601 30.5882 13.8425 30.8316L16.9007 34.0771C17.5445 34.7262 17.0616 35.8621 16.1764 35.8621H6.43836C5.15068 35.8621 4.10445 34.8073 4.10445 33.5091V6.49087C4.10445 5.1927 5.15068 4.13793 6.43836 4.13793H11.5086C12.1524 4.13793 12.7962 4.38134 13.1986 4.86815L23.9024 16.0649C24.7877 16.9574 26.2363 16.3895 26.2363 15.0913Z" fill="#346AF7"/>
<path d="M89.9761 35.5375H94.0805V35.0507C94.0805 32.7789 92.2295 30.9127 89.9761 30.9127C88.6884 30.9127 88.6079 30.0203 88.6079 29.1278V13.9553H91.7466C93.0343 13.9553 94 12.9006 94 11.6835C94 10.4665 92.9538 9.41173 91.7466 9.41173H88.6079V4.54358H87.8836C85.5497 4.54358 83.6987 6.40971 83.6987 8.76265V9.3306H78.2261V4.54358H77.5017C75.1678 4.54358 73.3168 6.40971 73.3168 8.76265V9.3306H51.1045C46.1148 9.3306 43.8613 11.6024 43.8613 16.6328V28.2353C43.8613 33.2657 46.1148 35.5375 51.1045 35.5375H60.6815C65.6713 35.5375 67.9247 33.2657 67.9247 28.2353V16.6328C67.9247 15.8215 67.8442 15.0912 67.7637 14.361L67.6028 13.8742H73.3168V29.2089C73.3168 32.6977 76.1336 35.5375 79.5942 35.5375H83.6987V35.0507C83.6987 32.7789 81.8476 30.9127 79.5942 30.9127C78.3065 30.9127 78.2261 30.0203 78.2261 29.1278V13.9553H83.6987V29.2089C83.6987 32.6977 86.5154 35.5375 89.9761 35.5375ZM62.935 28.2353C62.935 30.5071 61.6473 30.9939 60.6011 30.9939H51.1045C50.0582 30.9939 48.7706 30.5071 48.7706 28.2353V16.6328C48.7706 14.361 50.0582 13.8742 51.1045 13.8742H60.6815C61.7278 13.8742 63.0154 14.361 63.0154 16.6328V28.2353H62.935Z" fill="#333333"/>
</g>
<defs>
<clipPath id="clip0_4_916">
<rect width="94" height="40" fill="white"/>
</clipPath>
</defs>
</svg>
