<svg width="14" height="14" viewBox="0 0 14 14" fill="none" xmlns="http://www.w3.org/2000/svg">
<g id="loudspeaker 1">
<g id="Line">
<path id="Vector" d="M4.66683 5.00134H1.4585C1.22643 5.00134 1.00387 5.09353 0.839778 5.25762C0.675683 5.42172 0.583496 5.64428 0.583496 5.87634V7.91801C0.583496 8.15007 0.675683 8.37263 0.839778 8.53673C1.00387 8.70082 1.22643 8.79301 1.4585 8.79301H4.66683V5.00134Z" fill="#1B1B1D"/>
<path id="Vector_2" d="M11.8679 1.94466C11.7462 1.86231 11.6057 1.81192 11.4595 1.79816C11.3132 1.7844 11.1658 1.8077 11.0308 1.86591L5.25 4.81758V8.97966L11.0279 11.9488C11.3073 12.0347 11.6093 12.0064 11.8679 11.8701C11.9857 11.7898 12.0821 11.6819 12.1487 11.5558C12.2153 11.4297 12.2501 11.2893 12.25 11.1467V2.668C12.2501 2.52542 12.2153 2.385 12.1487 2.25893C12.0821 2.13286 11.9857 2.02498 11.8679 1.94466Z" fill="#1B1B1D"/>
<path id="Vector_3" d="M4.82737 9.37634H2.4707L3.28737 12.2405C3.33946 12.4238 3.44998 12.5851 3.60212 12.6999C3.75426 12.8147 3.93971 12.8766 4.13029 12.8763H4.66695C4.80019 12.8706 4.93049 12.8354 5.04852 12.7733C5.16656 12.7112 5.2694 12.6238 5.34969 12.5173C5.42997 12.4109 5.4857 12.2879 5.51289 12.1574C5.54008 12.0268 5.53805 11.8919 5.50695 11.7622L4.82737 9.37634Z" fill="#1B1B1D"/>
<path id="Vector_4" d="M12.8335 5.92883V7.8655C13.0037 7.80532 13.1511 7.69398 13.2556 7.54673C13.36 7.39947 13.4163 7.22352 13.4168 7.043V6.75133C13.4163 6.57081 13.36 6.39486 13.2556 6.24761C13.1511 6.10035 13.0037 5.98901 12.8335 5.92883Z" fill="#1B1B1D"/>
</g>
</g>
</svg>
