<svg width="194" height="194" viewBox="0 0 194 194" fill="none" xmlns="http://www.w3.org/2000/svg">
<g id="Mail Alert">
<g id="Group 1000002101">
<g id="Group 1000002098">
<path id="Ellipse 54" d="M166.255 27.5693C166.255 29.3731 164.795 30.8322 162.998 30.8322C161.201 30.8322 159.742 29.3731 159.742 27.5693C159.742 25.7656 161.201 24.3064 162.998 24.3064C164.795 24.3064 166.255 25.7656 166.255 27.5693Z" stroke="#FFAF82" stroke-width="2.61276"/>
<path id="Ellipse 58" d="M39.1417 160.732C39.1417 162.536 37.682 163.995 35.8851 163.995C34.0881 163.995 32.6284 162.536 32.6284 160.732C32.6284 158.928 34.0881 157.469 35.8851 157.469C37.682 157.469 39.1417 158.928 39.1417 160.732Z" stroke="#527FF4" stroke-width="2.61276"/>
<path id="Ellipse 59" d="M149.307 167.912C149.307 169.716 147.847 171.175 146.05 171.175C144.253 171.175 142.793 169.716 142.793 167.912C142.793 166.108 144.253 164.649 146.05 164.649C147.847 164.649 149.307 166.108 149.307 167.912Z" stroke="#FFDC60" stroke-width="2.61276"/>
<path id="Star 1" d="M15.7104 64.0953C15.4375 61.9171 18.2755 60.8419 19.5108 62.6555L21.2185 65.1628C21.6598 65.8108 22.4266 66.1569 23.2044 66.0591L26.2203 65.6802C28.3964 65.4067 29.4683 68.2439 27.6564 69.4814L25.1453 71.1963C24.4977 71.6387 24.1517 72.4063 24.2492 73.1845L24.6265 76.1958C24.8995 78.374 22.0614 79.4492 20.8262 77.6356L19.1185 75.1283C18.6772 74.4803 17.9104 74.1343 17.1326 74.232L14.1167 74.611C11.9406 74.8844 10.8686 72.0472 12.6806 70.8098L15.1916 69.0948C15.8393 68.6525 16.1853 67.8848 16.0878 67.1066L15.7104 64.0953Z" fill="#37AEE2"/>
<path id="Star 2" d="M180.564 146.654C181.73 144.795 184.607 145.761 184.416 147.948L184.153 150.971C184.085 151.753 184.46 152.507 185.124 152.924L187.699 154.543C189.556 155.711 188.592 158.586 186.407 158.396L183.379 158.131C182.598 158.063 181.845 158.438 181.429 159.102L179.817 161.672C178.651 163.532 175.775 162.565 175.965 160.378L176.228 157.355C176.296 156.573 175.921 155.819 175.257 155.402L172.683 153.783C170.825 152.616 171.789 149.74 173.974 149.931L177.002 150.195C177.783 150.263 178.536 149.888 178.953 149.224L180.564 146.654Z" fill="#2DB162"/>
<path id="Polygon 1" d="M11.2853 132.332C12.6083 132.12 13.6643 133.421 13.1862 134.675L11.3094 139.596C10.8312 140.85 9.17716 141.115 8.33217 140.074L5.01443 135.986C4.16944 134.944 4.76739 133.377 6.09066 133.165L11.2853 132.332Z" fill="#FFAF82"/>
<path id="Polygon 2" d="M181.446 68.3452C181.115 67.045 182.313 65.8735 183.603 66.2365L188.668 67.6617C189.958 68.0247 190.372 69.6499 189.413 70.5871L185.648 74.2667C184.689 75.2039 183.076 74.7501 182.745 73.45L181.446 68.3452Z" fill="#1665C2"/>
</g>
<path id="Shape" d="M135.105 143.992V123.368C138.358 122.447 141.48 121.212 144.437 119.699V143.992C144.437 154.314 136.081 162.681 125.773 162.681H51.1191C40.8115 162.681 32.4556 154.314 32.4556 143.992V87.9245C32.4556 77.6027 40.8115 69.2353 51.1191 69.2353H69.9919C69.8534 70.7742 69.7826 72.3326 69.7826 73.9076C69.7826 75.4826 69.8534 77.041 69.9919 78.5799H51.1191C45.9653 78.5799 41.7873 82.7636 41.7873 87.9245V94.8372L88.447 119.996L93.5252 117.258C96.7336 119.309 100.185 121.013 103.826 122.317L90.6591 129.417C89.2782 130.161 87.6159 130.161 86.235 129.417L41.7873 105.45V143.992C41.7873 149.153 45.9653 153.337 51.1191 153.337H125.773C130.927 153.337 135.105 149.153 135.105 143.992ZM121.107 115.958C144.299 115.958 163.1 97.1315 163.1 73.9076C163.1 50.6837 144.299 31.8569 121.107 31.8569C97.9153 31.8569 79.1144 50.6837 79.1144 73.9076C79.1144 97.1315 97.9153 115.958 121.107 115.958ZM116.441 55.2184C116.441 52.638 118.53 50.5461 121.107 50.5461C123.684 50.5461 125.773 52.638 125.773 55.2184V73.9076C125.773 76.488 123.684 78.5799 121.107 78.5799C118.53 78.5799 116.441 76.488 116.441 73.9076V55.2184ZM126.94 92.5968C126.94 95.8223 124.328 98.4371 121.107 98.4371C117.886 98.4371 115.275 95.8223 115.275 92.5968C115.275 89.3712 117.886 86.7564 121.107 86.7564C124.328 86.7564 126.94 89.3712 126.94 92.5968Z" fill="#70BAFF"/>
</g>
</g>
</svg>
