<svg width="60" height="60" viewBox="0 0 60 60" fill="none" xmlns="http://www.w3.org/2000/svg">
<g id="market-analysis 1">
<g id="Group">
<g id="Market_analysis_1_">
<g id="Group_2">
<path id="Vector" d="M26.3183 56.9868C14.1188 55.4617 4.5353 45.8782 3.01175 33.6818C2.89234 32.7395 3.62853 31.9033 4.58171 31.9033H10.9774C11.75 31.9033 12.4082 32.4611 12.5381 33.2213C13.768 40.5055 19.49 46.229 26.7788 47.4605C27.5391 47.5902 28.0969 48.2486 28.0969 49.0212V55.4168C28.0968 56.3579 27.2809 57.1014 26.3183 56.9868Z" fill="#333333"/>
</g>
<g id="Group_3">
<path id="Vector_2" d="M10.9781 28.3169H4.58243C3.62872 28.3169 2.89316 27.4802 3.01247 26.5384C4.6875 13.1196 16.1531 3 29.6799 3C35.6893 3 41.3865 4.95932 46.1565 8.66634C46.9152 9.25823 46.9721 10.3681 46.3048 11.0352L41.7836 15.558C41.2365 16.1065 40.3774 16.1746 39.7469 15.728C36.7785 13.6125 33.2971 12.4938 29.6798 12.4938C21.1672 12.4938 13.9572 18.5943 12.5387 26.9988C12.4089 27.759 11.7507 28.3169 10.9781 28.3169Z" fill="#333333"/>
</g>
<g id="Group_4">
<path id="Vector_3" d="M31.6836 55.4184V49.0228C31.6836 48.2502 32.2414 47.5919 33.0017 47.4621C41.4061 46.0436 47.5066 38.8336 47.5066 30.321C47.5066 26.7036 46.3879 23.2222 44.2725 20.2538C43.8244 19.6249 43.8955 18.7627 44.4425 18.2172L48.9653 13.6959C49.6239 13.0374 50.7372 13.0791 51.3341 13.8442C55.0412 18.6144 57.0005 24.3116 57.0005 30.3209C57.0005 43.8477 46.8808 55.3133 33.4621 56.9883C32.489 57.1043 31.6836 56.3485 31.6836 55.4184Z" fill="#333333"/>
</g>
</g>
<path id="Vector_4" d="M23.6664 23.6755C23.6664 22.8017 22.9579 22.0932 22.0841 22.0932H18.9195C18.0456 22.0932 17.3372 22.8017 17.3372 23.6755V36.3339C17.3372 37.2078 18.0456 37.9162 18.9195 37.9162H22.0841C22.9579 37.9162 23.6664 37.2078 23.6664 36.3339V23.6755Z" fill="#333333"/>
<path id="Vector_5" d="M33.1605 36.334V20.511C33.1605 19.6371 32.4521 18.9286 31.5782 18.9286H28.4136C27.5397 18.9286 26.8313 19.6371 26.8313 20.511V36.334C26.8313 37.2079 27.5397 37.9163 28.4136 37.9163H31.5782C32.4522 37.9163 33.1605 37.2079 33.1605 36.334Z" fill="#333333"/>
<path id="Vector_6" d="M42.6537 36.3338V30.0046C42.6537 29.1308 41.9452 28.4223 41.0714 28.4223H37.9068C37.0329 28.4223 36.3245 29.1308 36.3245 30.0046V36.3338C36.3245 37.2077 37.0329 37.9161 37.9068 37.9161H41.0714C41.9453 37.9161 42.6537 37.2077 42.6537 36.3338Z" fill="#333333"/>
</g>
</g>
</svg>
