<svg width="60" height="60" viewBox="0 0 60 60" fill="none" xmlns="http://www.w3.org/2000/svg">
<path fill-rule="evenodd" clip-rule="evenodd" d="M30.002 27.4998C29.3389 27.4998 28.703 27.7631 28.2342 28.232C27.7653 28.7008 27.502 29.3367 27.502 29.9998C27.502 30.6628 27.7653 31.2987 28.2342 31.7675C28.703 32.2364 29.3389 32.4998 30.002 32.4998C30.665 32.4998 31.3009 32.2364 31.7697 31.7675C32.2386 31.2987 32.502 30.6628 32.502 29.9998C32.502 29.3367 32.2386 28.7008 31.7697 28.232C31.3009 27.7631 30.665 27.4998 30.002 27.4998Z" fill="#346AF7"/>
<path fill-rule="evenodd" clip-rule="evenodd" d="M27.502 10.1748C23.1022 10.7336 19.0129 12.7386 15.8769 15.8747C12.7408 19.0107 10.7358 23.1 10.177 27.4998H7.50195C6.12124 27.4998 5.00195 28.619 5.00195 29.9998C5.00195 31.3805 6.12124 32.4998 7.50195 32.4998H10.177C10.7358 36.8995 12.7408 40.9888 15.8769 44.1249C19.0129 47.2609 23.1022 49.266 27.502 49.8248V52.4998C27.502 53.8805 28.6212 54.9998 30.002 54.9998C31.3827 54.9998 32.502 53.8805 32.502 52.4998V49.8248C36.9017 49.266 40.991 47.2609 44.1271 44.1249C47.2631 40.9888 49.2682 36.8995 49.827 32.4998H52.502C53.8827 32.4998 55.002 31.3805 55.002 29.9998C55.002 28.619 53.8827 27.4998 52.502 27.4998H49.827C49.2682 23.1 47.2631 19.0107 44.1271 15.8747C40.991 12.7386 36.9017 10.7336 32.502 10.1748V7.49951C32.502 6.1188 31.3827 4.99951 30.002 4.99951C28.6212 4.99951 27.502 6.1188 27.502 7.49951V10.1748ZM27.502 17.4998V15.1998C21.252 16.2498 16.252 21.2498 15.227 27.4998H17.502C18.8827 27.4998 20.002 28.619 20.002 29.9998C20.002 31.3805 18.8827 32.4998 17.502 32.4998H15.202C16.252 38.7498 21.252 43.7498 27.502 44.7748V42.4998C27.502 41.119 28.6212 39.9998 30.002 39.9998C31.3827 39.9998 32.502 41.119 32.502 42.4998V44.7998C38.752 43.7498 43.752 38.7498 44.777 32.4998H42.502C41.1212 32.4998 40.002 31.3805 40.002 29.9998C40.002 28.619 41.1212 27.4998 42.502 27.4998H44.802C43.752 21.2498 38.752 16.2498 32.502 15.2248V17.4998C32.502 18.8805 31.3827 19.9998 30.002 19.9998C28.6212 19.9998 27.502 18.8805 27.502 17.4998Z" fill="#346AF7"/>
</svg>
