<svg width="21" height="20" viewBox="0 0 21 20" fill="none" xmlns="http://www.w3.org/2000/svg">
<g id="megaphone 1">
<g id="Group">
<path id="Vector" d="M15.7461 4.40051V14.8C15.7461 14.9616 15.6463 15.1075 15.4929 15.1696C15.3332 15.2333 15.1593 15.1933 15.0458 15.0829C15.0157 15.0533 12.0645 12.2727 9.12891 12.0247V7.17611C12.0695 6.92839 15.0157 4.14718 15.0458 4.11759C15.1634 4.00319 15.3395 3.96799 15.4929 4.03092C15.6463 4.09279 15.7461 4.23891 15.7461 4.40051Z" fill="#333333"/>
<path id="Vector_2" d="M17.3867 9.60085C17.3867 10.192 17.0564 10.7091 16.5664 10.9861V8.21558C17.0564 8.49263 17.3867 9.00967 17.3867 9.60085Z" fill="#333333"/>
<path id="Vector_3" d="M9.75384 14.2359C9.83114 14.1328 9.85318 14 9.81313 13.8781C9.69831 13.5273 9.61956 13.1964 9.57701 12.8927C9.29947 12.8386 9.02136 12.8035 8.74538 12.8017C8.76996 13.055 8.81057 13.3186 8.88068 13.6H8.27189C8.18732 13.3457 8.10772 13.0796 8.04598 12.8H5.84773C5.73669 12.8 5.63169 12.7786 5.52344 12.7681C5.72955 14.3543 6.25934 15.6803 6.28712 15.7484C6.3496 15.9003 6.50021 15.9999 6.66805 15.9999H8.71883C9.0376 15.9999 9.23423 15.66 9.0705 15.3945C9.0653 15.3859 8.83228 14.9915 8.57637 14.4H9.42257C9.55355 14.4 9.67652 14.339 9.75384 14.2359Z" fill="#333333"/>
<path id="Vector_4" d="M5.84766 11.9997H8.30859V7.19995H5.84766C4.49061 7.19995 3.38672 8.27646 3.38672 9.59984C3.38672 10.9232 4.49061 11.9997 5.84766 11.9997Z" fill="#333333"/>
</g>
</g>
</svg>
