<svg width="81" height="80" viewBox="0 0 81 80" fill="none" xmlns="http://www.w3.org/2000/svg">
<path d="M37.5368 46.5712C36.8833 46.5712 36.2566 46.3116 35.7945 45.8495C35.3324 45.3874 35.0728 44.7606 35.0728 44.1071C35.0728 43.4536 35.3324 42.8269 35.7945 42.3648C36.2566 41.9027 36.8833 41.6431 37.5368 41.6431C38.1903 41.6431 38.8171 41.9027 39.2792 42.3648C39.7413 42.8269 40.0009 43.4536 40.0009 44.1071C40.0009 44.7606 39.7413 45.3874 39.2792 45.8495C38.8171 46.3116 38.1903 46.5712 37.5368 46.5712Z" fill="white"/>
<path fill-rule="evenodd" clip-rule="evenodd" d="M16.064 33.4291C16.3827 33.4291 16.6964 33.4028 17.002 33.3502V46.5708H12.8952C12.6774 46.5708 12.4685 46.6573 12.3144 46.8113C12.1604 46.9654 12.0739 47.1743 12.0739 47.3921V49.0348C12.0739 49.2527 12.1604 49.4616 12.3144 49.6156C12.4685 49.7697 12.6774 49.8562 12.8952 49.8562H67.1047C67.3225 49.8562 67.5314 49.7697 67.6854 49.6156C67.8395 49.4616 67.926 49.2527 67.926 49.0348V47.3921C67.926 47.1743 67.8395 46.9654 67.6854 46.8113C67.5314 46.6573 67.3225 46.5708 67.1047 46.5708H62.9979V33.3502C63.3034 33.4028 63.6172 33.4291 63.9359 33.4291C67.0603 33.4291 69.5687 30.8796 69.5687 27.7634V23.8373C69.5689 23.3164 69.4783 22.7994 69.301 22.3096L65.7199 12.4369C65.5074 11.8493 65.119 11.3414 64.6075 10.9825C64.0961 10.6236 63.4864 10.4311 62.8615 10.4312H17.1367C16.5122 10.4319 15.9031 10.625 15.3923 10.9841C14.8814 11.3433 14.4936 11.8511 14.2817 12.4385L10.7006 22.3096C10.5226 22.7993 10.4315 23.3163 10.4312 23.8373V27.7634C10.4312 30.8796 12.9396 33.4291 16.064 33.4291ZM13.7889 23.4299L17.3125 13.7166H62.6858L66.2094 23.4299C66.2587 23.5613 66.2817 23.6977 66.2817 23.8373V27.7634C66.2856 28.3902 66.0406 28.9929 65.6005 29.4392C65.1603 29.8855 64.561 30.1389 63.9342 30.1437C62.6529 30.1437 61.5884 29.0923 61.5884 27.7634C61.5884 27.3277 61.4154 26.9099 61.1073 26.6018C60.7992 26.2937 60.3814 26.1207 59.9457 26.1207C59.5101 26.1207 59.0922 26.2937 58.7842 26.6018C58.4761 26.9099 58.303 27.3277 58.303 27.7634C58.3069 28.3902 58.0619 28.9929 57.6218 29.4392C57.1817 29.8855 56.5824 30.1389 55.9556 30.1437C54.6743 30.1437 53.6098 29.0923 53.6098 27.765C53.6098 27.3294 53.4367 26.9115 53.1287 26.6035C52.8206 26.2954 52.4028 26.1223 51.9671 26.1223C51.5314 26.1223 51.1136 26.2954 50.8055 26.6035C50.4974 26.9115 50.3244 27.3294 50.3244 27.765C50.3244 29.0923 49.2599 30.1437 47.9769 30.1437C46.694 30.1437 45.6311 29.0923 45.6311 27.7634C45.6311 27.3277 45.4581 26.9099 45.15 26.6018C44.8419 26.2937 44.4241 26.1207 43.9884 26.1207C43.5528 26.1207 43.1349 26.2937 42.8269 26.6018C42.5188 26.9099 42.3457 27.3277 42.3457 27.7634C42.3501 28.39 42.1055 28.9928 41.6656 29.4391C41.2257 29.8855 40.6266 30.1389 39.9999 30.1437C39.3734 30.1389 38.7744 29.8858 38.3343 29.4398C37.8942 28.9939 37.649 28.3916 37.6525 27.765C37.6525 27.3294 37.4794 26.9115 37.1714 26.6035C36.8633 26.2954 36.4455 26.1223 36.0098 26.1223C35.5741 26.1223 35.1563 26.2954 34.8482 26.6035C34.5402 26.9115 34.3671 27.3294 34.3671 27.765C34.3671 29.0923 33.3043 30.1437 32.0213 30.1437C30.7383 30.1437 29.6739 29.0923 29.6739 27.7634C29.6739 27.3277 29.5008 26.9099 29.1927 26.6018C28.8847 26.2937 28.4668 26.1207 28.0312 26.1207C27.5955 26.1207 27.1776 26.2937 26.8696 26.6018C26.5615 26.9099 26.3884 27.3277 26.3884 27.7634C26.3884 29.0907 25.3256 30.1437 24.0427 30.1437C22.7597 30.1437 21.6952 29.0923 21.6952 27.7634C21.6952 27.3277 21.5221 26.9099 21.2141 26.6018C20.906 26.2937 20.4882 26.1207 20.0525 26.1207C19.6168 26.1207 19.199 26.2937 18.8909 26.6018C18.5829 26.9099 18.4098 27.3277 18.4098 27.7634C18.4098 29.0907 17.347 30.1437 16.064 30.1437C14.7794 30.1437 13.7166 29.0923 13.7166 27.7634V23.8373C13.7165 23.6983 13.741 23.5604 13.7889 23.4299ZM59.7125 31.9868C58.6832 32.9172 57.3446 33.4313 55.9572 33.4291C55.2151 33.43 54.4803 33.2832 53.7955 32.9972C53.1108 32.7112 52.4898 32.2918 51.9687 31.7634C51.4475 32.292 50.8262 32.7115 50.1412 32.9975C49.4561 33.2835 48.7209 33.4302 47.9786 33.4291C47.2365 33.43 46.5017 33.2832 45.8169 32.9972C45.1321 32.7112 44.5111 32.2918 43.9901 31.7634C43.4689 32.292 42.8476 32.7115 42.1625 32.9975C41.4775 33.2835 40.7423 33.4302 39.9999 33.4291C39.2576 33.4302 38.5224 33.2835 37.8374 32.9975C37.1523 32.7115 36.531 32.292 36.0098 31.7634C35.4888 32.2918 34.8678 32.7112 34.183 32.9972C33.4982 33.2832 32.7634 33.43 32.0213 33.4291C30.4591 33.4291 29.048 32.7901 28.0312 31.7634C27.5101 32.2918 26.8891 32.7112 26.2044 32.9972C25.5196 33.2832 24.7847 33.43 24.0427 33.4291C22.5971 33.4291 21.2829 32.8821 20.2874 31.9868V46.5708H24.3942C24.1764 46.5708 23.9674 46.4842 23.8134 46.3302C23.6594 46.1762 23.5728 45.9673 23.5728 45.7494V42.464C23.5728 42.2462 23.6594 42.0373 23.8134 41.8832C23.9674 41.7292 24.1764 41.6427 24.3942 41.6427H29.3223C29.5402 41.6427 29.7491 41.7292 29.9031 41.8832C30.0571 42.0373 30.1437 42.2462 30.1437 42.464V43.2854H32.6077C32.8256 43.2854 33.0345 43.3719 33.1885 43.5259C33.3426 43.68 33.4291 43.8889 33.4291 44.1067V45.7494C33.4291 45.9673 33.3426 46.1762 33.1885 46.3302C33.0345 46.4842 32.8256 46.5708 32.6077 46.5708H59.7125V31.9868ZM13.7166 54.7843C13.7166 54.3487 13.8896 53.9308 14.1977 53.6228C14.5058 53.3147 14.9236 53.1416 15.3593 53.1416H64.6406C65.0763 53.1416 65.4941 53.3147 65.8022 53.6228C66.1102 53.9308 66.2833 54.3487 66.2833 54.7843V67.926C66.2833 68.3617 66.1102 68.7795 65.8022 69.0876C65.4941 69.3957 65.0763 69.5687 64.6406 69.5687H15.3593C14.9236 69.5687 14.5058 69.3957 14.1977 69.0876C13.8896 68.7795 13.7166 68.3617 13.7166 67.926V54.7843ZM17.002 66.2833V56.427H62.9979V66.2833H17.002Z" fill="white"/>
<path fill-rule="evenodd" clip-rule="evenodd" d="M17.1368 10.4312H62.8616C63.4864 10.4311 64.0961 10.6237 64.6076 10.9826C65.1191 11.3415 65.5075 11.8493 65.7199 12.437L69.301 22.3097C69.4783 22.7995 69.5689 23.3164 69.5688 23.8374V27.7635C69.5688 30.8797 67.0604 33.4292 63.9359 33.4292C63.7654 33.4292 63.5963 33.4216 63.4292 33.4066C63.2839 33.3935 63.14 33.3747 62.9979 33.3503V46.5708H67.1047C67.3226 46.5708 67.5315 46.6574 67.6855 46.8114C67.8395 46.9654 67.9261 47.1744 67.9261 47.3922V49.0349C67.9261 49.2527 67.8395 49.4617 67.6855 49.6157C67.5315 49.7697 67.3226 49.8563 67.1047 49.8563H12.8953C12.6774 49.8563 12.4685 49.7697 12.3145 49.6157C12.1605 49.4617 12.0739 49.2527 12.0739 49.0349V47.3922C12.0739 47.1744 12.1605 46.9654 12.3145 46.8114C12.4685 46.6574 12.6774 46.5708 12.8953 46.5708H17.0021V33.3503C16.86 33.3747 16.7161 33.3935 16.5708 33.4066C16.4037 33.4216 16.2346 33.4292 16.0641 33.4292C12.9396 33.4292 10.4312 30.8797 10.4312 27.7635V23.8374C10.4315 23.3163 10.5227 22.7994 10.7006 22.3097L14.2817 12.4386C14.4937 11.8512 14.8815 11.3434 15.3923 10.9842C15.9032 10.625 16.5123 10.4319 17.1368 10.4312ZM13.8762 12.2919C13.8762 12.292 13.8763 12.2918 13.8762 12.2919C14.1183 11.6213 14.5611 11.0415 15.1443 10.6315C15.7277 10.2213 16.4232 10.0008 17.1363 10L62.8615 10C63.575 9.99992 64.2712 10.2198 64.8553 10.6296C65.4392 11.0394 65.8827 11.6191 66.1253 12.2899M66.1253 12.2899L69.7064 22.1626C69.9007 22.6995 70.0001 23.2664 70 23.8374C70 23.8373 70 23.8374 70 23.8374V27.7635C70 31.1141 67.3022 33.8604 63.9359 33.8604C63.7658 33.8604 63.5968 33.8534 63.4292 33.8394V46.1396H67.1047C67.4369 46.1396 67.7555 46.2716 67.9904 46.5065C68.2253 46.7414 68.3573 47.06 68.3573 47.3922V49.0349C68.3573 49.3671 68.2253 49.6857 67.9904 49.9206C67.7555 50.1555 67.4369 50.2875 67.1047 50.2875H12.8953C12.5631 50.2875 12.2445 50.1555 12.0096 49.9206C11.7747 49.6857 11.6427 49.3671 11.6427 49.0349V47.3922C11.6427 47.06 11.7747 46.7414 12.0096 46.5065C12.2445 46.2716 12.5631 46.1396 12.8953 46.1396H16.5708V33.8394C16.4032 33.8534 16.2342 33.8604 16.0641 33.8604C12.6978 33.8604 10 31.1141 10 27.7635V23.8374C10.0003 23.2663 10.1003 22.6994 10.2953 22.1626C10.2952 22.1627 10.2953 22.1625 10.2953 22.1626L13.8762 12.2919M14.1938 23.5784C14.1634 23.6613 14.1478 23.749 14.1478 23.8373V27.7635C14.1478 28.8568 15.0202 29.7125 16.0641 29.7125C17.1059 29.7125 17.9786 28.8555 17.9786 27.7635C17.9786 27.2134 18.1971 26.6859 18.5861 26.297C18.975 25.908 19.5025 25.6895 20.0526 25.6895C20.6026 25.6895 21.1301 25.908 21.5191 26.297C21.908 26.6859 22.1265 27.2134 22.1265 27.7635C22.1265 28.8566 23.0002 29.7125 24.0427 29.7125C25.0846 29.7125 25.9573 28.8555 25.9573 27.7635C25.9573 27.2134 26.1758 26.6859 26.5647 26.297C26.9537 25.908 27.4812 25.6895 28.0312 25.6895C28.5813 25.6895 29.1088 25.908 29.4977 26.297C29.8866 26.6859 30.1051 27.2134 30.1051 27.7635C30.1051 28.8566 30.9789 29.7125 32.0214 29.7125C33.0636 29.7125 33.9359 28.8568 33.9359 27.7651C33.9359 27.2151 34.1544 26.6875 34.5434 26.2986C34.9323 25.9097 35.4598 25.6912 36.0099 25.6912C36.5599 25.6912 37.0874 25.9097 37.4763 26.2986C37.8653 26.6875 38.0838 27.2151 38.0838 27.7651V27.7675C38.0809 28.2798 38.2814 28.7723 38.6413 29.137C39.0004 29.5009 39.4889 29.7077 40 29.7125C40.5111 29.7077 40.9996 29.5007 41.3585 29.1365C41.7182 28.7716 41.9182 28.2788 41.9146 27.7665L41.9146 27.7635C41.9146 27.2134 42.1331 26.6859 42.522 26.297C42.9109 25.908 43.4385 25.6895 43.9885 25.6895C44.5385 25.6895 45.066 25.908 45.455 26.297C45.8439 26.6859 46.0624 27.2134 46.0624 27.7635C46.0624 28.857 46.9349 29.7125 47.977 29.7125C49.0197 29.7125 49.8932 28.8564 49.8932 27.7651C49.8932 27.2151 50.1117 26.6875 50.5007 26.2986C50.8896 25.9097 51.4171 25.6912 51.9671 25.6912C52.5172 25.6912 53.0447 25.9097 53.4336 26.2986C53.8226 26.6875 54.0411 27.2151 54.0411 27.7651C54.0411 28.856 54.9139 29.7117 55.9541 29.7125C56.466 29.7082 56.9553 29.5011 57.3148 29.1365C57.6747 28.7716 57.8751 28.2787 57.8719 27.7662L57.8719 27.7635C57.8719 27.2134 58.0904 26.6859 58.4793 26.297C58.8682 25.908 59.3957 25.6895 59.9458 25.6895C60.4958 25.6895 61.0233 25.908 61.4123 26.297C61.8012 26.6859 62.0197 27.2134 62.0197 27.7635C62.0197 28.8562 62.8928 29.7117 63.9327 29.7125C64.4446 29.7082 64.934 29.5011 65.2935 29.1365C65.6534 28.7716 65.8537 28.2787 65.8505 27.7662L65.8505 27.7635L65.8505 23.8374C65.8505 23.7459 65.8356 23.6612 65.8057 23.5814L65.8041 23.577L62.3835 14.1478H17.6148L14.1938 23.5784ZM17.3125 13.7166L13.7889 23.43C13.7411 23.5605 13.7166 23.6984 13.7166 23.8374V27.7635C13.7166 29.0924 14.7795 30.1437 16.0641 30.1437C17.347 30.1437 18.4099 29.0908 18.4099 27.7635C18.4099 27.3278 18.5829 26.9099 18.891 26.6019C19.1991 26.2938 19.6169 26.1207 20.0526 26.1207C20.4882 26.1207 20.9061 26.2938 21.2141 26.6019C21.5222 26.9099 21.6953 27.3278 21.6953 27.7635C21.6953 29.0924 22.7598 30.1437 24.0427 30.1437C25.3257 30.1437 26.3885 29.0908 26.3885 27.7635C26.3885 27.3278 26.5616 26.9099 26.8696 26.6019C27.1777 26.2938 27.5955 26.1207 28.0312 26.1207C28.4669 26.1207 28.8847 26.2938 29.1928 26.6019C29.5008 26.9099 29.6739 27.3278 29.6739 27.7635C29.6739 29.0924 30.7384 30.1437 32.0214 30.1437C33.3043 30.1437 34.3671 29.0924 34.3671 27.7651C34.3671 27.3294 34.5402 26.9116 34.8483 26.6035C35.1564 26.2955 35.5742 26.1224 36.0099 26.1224C36.4455 26.1224 36.8634 26.2955 37.1714 26.6035C37.4795 26.9116 37.6526 27.3294 37.6526 27.7651C37.6491 28.3916 37.8943 28.9939 38.3344 29.4399C38.7745 29.8858 39.3735 30.139 40 30.1437C40.6267 30.139 41.2258 29.8855 41.6656 29.4392C42.1055 28.9929 42.3502 28.3901 42.3458 27.7635C42.3458 27.3278 42.5189 26.9099 42.8269 26.6019C43.135 26.2938 43.5528 26.1207 43.9885 26.1207C44.4242 26.1207 44.842 26.2938 45.1501 26.6019C45.4581 26.9099 45.6312 27.3278 45.6312 27.7635C45.6312 29.0924 46.694 30.1437 47.977 30.1437C49.26 30.1437 50.3244 29.0924 50.3244 27.7651C50.3244 27.3294 50.4975 26.9116 50.8056 26.6035C51.1136 26.2955 51.5315 26.1224 51.9671 26.1224C52.4028 26.1224 52.8206 26.2955 53.1287 26.6035C53.4368 26.9116 53.6099 27.3294 53.6099 27.7651C53.6099 29.0924 54.6743 30.1437 55.9556 30.1437C56.5824 30.139 57.1817 29.8856 57.6219 29.4393C58.062 28.993 58.307 28.3903 58.3031 27.7635C58.3031 27.3278 58.4762 26.9099 58.7842 26.6019C59.0923 26.2938 59.5101 26.1207 59.9458 26.1207C60.3815 26.1207 60.7993 26.2938 61.1074 26.6019C61.4154 26.9099 61.5885 27.3278 61.5885 27.7635C61.5885 29.0924 62.653 30.1437 63.9343 30.1437C64.5611 30.139 65.1604 29.8856 65.6005 29.4393C66.0406 28.993 66.2857 28.3903 66.2817 27.7635V23.8374C66.2817 23.6977 66.2587 23.5614 66.2094 23.43L62.6858 13.7166H17.3125ZM59.7125 46.5708V31.9869C59.5742 32.1119 59.4302 32.2295 59.2813 32.3392C58.3225 33.0461 57.1582 33.4311 55.9573 33.4292C55.2152 33.4301 54.4804 33.2832 53.7956 32.9973C53.1592 32.7315 52.5779 32.3505 52.0808 31.8739C52.043 31.8376 52.0057 31.8008 51.9688 31.7635C51.9688 31.7635 51.9689 31.7635 51.9688 31.7635C51.932 31.8009 51.8945 31.8377 51.8567 31.874C51.3593 32.3507 50.7778 32.7318 50.1412 32.9976C49.4562 33.2836 48.721 33.4303 47.9786 33.4292C47.2366 33.4301 46.5017 33.2832 45.8169 32.9973C45.1806 32.7315 44.5994 32.3505 44.1022 31.8739C44.0644 31.8377 44.027 31.8008 43.9901 31.7634C43.9533 31.8008 43.9159 31.8377 43.8781 31.874C43.3807 32.3507 42.7992 32.7318 42.1626 32.9976C41.4775 33.2836 40.7424 33.4303 40 33.4292C39.2576 33.4303 38.5225 33.2836 37.8374 32.9976C37.2008 32.7318 36.6193 32.3507 36.1219 31.8739C36.0841 31.8377 36.0467 31.8008 36.0099 31.7634C35.973 31.8008 35.9356 31.8377 35.8978 31.8739C35.4007 32.3505 34.8194 32.7315 34.1831 32.9973C33.4983 33.2832 32.7634 33.4301 32.0214 33.4292C30.5075 33.4292 29.1356 32.8291 28.1269 31.8578C28.0946 31.8267 28.0627 31.7953 28.0312 31.7634C28.0001 31.795 27.9687 31.8261 27.9369 31.8568C27.4359 32.3414 26.8483 32.7283 26.2044 32.9973C25.5196 33.2832 24.7848 33.4301 24.0427 33.4292C22.7972 33.4292 21.6493 33.0231 20.7187 32.3381C20.5692 32.228 20.4253 32.1108 20.2875 31.9869V46.5708H24.3942C24.1764 46.5708 23.9675 46.4843 23.8135 46.3303C23.7566 46.2734 23.709 46.2091 23.6715 46.1396C23.6073 46.0208 23.5729 45.8869 23.5729 45.7495V42.4641C23.5729 42.2462 23.6594 42.0373 23.8135 41.8833C23.9675 41.7292 24.1764 41.6427 24.3942 41.6427H29.3224C29.5402 41.6427 29.7491 41.7292 29.9032 41.8833C30.0572 42.0373 30.1437 42.2462 30.1437 42.4641V43.2854H32.6078C32.8256 43.2854 33.0346 43.372 33.1886 43.526C33.3426 43.68 33.4292 43.8889 33.4292 44.1068V45.7495C33.4292 45.8869 33.3947 46.0208 33.3306 46.1396C33.2931 46.2091 33.2454 46.2734 33.1886 46.3303C33.0346 46.4843 32.8256 46.5708 32.6078 46.5708H59.7125ZM33.7981 46.1396H59.2813V32.8649C58.3006 33.5122 57.1455 33.8621 55.9572 33.8604C55.1581 33.8613 54.3668 33.7031 53.6294 33.3952C53.022 33.1415 52.4612 32.7904 51.9688 32.3565C51.4761 32.7906 50.915 33.1418 50.3074 33.3955C49.5696 33.7035 48.778 33.8615 47.9785 33.8604C47.1794 33.8613 46.3881 33.7031 45.6508 33.3952C45.0434 33.1415 44.4826 32.7904 43.9901 32.3565C43.4975 32.7906 42.9364 33.1418 42.3287 33.3955C41.591 33.7035 40.7994 33.8615 40 33.8604C39.2006 33.8615 38.409 33.7035 37.6713 33.3955C37.0636 33.1418 36.5025 32.7906 36.0099 32.3565C35.5174 32.7904 34.9566 33.1415 34.3492 33.3952C33.6117 33.7032 32.8201 33.8613 32.0208 33.8604C32.0207 33.8604 32.021 33.8604 32.0208 33.8604C30.4907 33.8602 29.095 33.2904 28.0317 32.356C27.5392 32.7901 26.9782 33.1414 26.3706 33.3952C25.633 33.7032 24.8415 33.8613 24.0422 33.8604M24.0422 33.8604C22.813 33.8603 21.6717 33.4926 20.7187 32.8636V46.1396H23.204C23.1631 46.0148 23.1417 45.8833 23.1417 45.7495V42.4641C23.1417 42.1319 23.2736 41.8133 23.5086 41.5784C23.7435 41.3435 24.062 41.2115 24.3942 41.2115H29.3224C29.6546 41.2115 29.9732 41.3435 30.2081 41.5784C30.443 41.8133 30.5749 42.1319 30.5749 42.4641V42.8542H32.6078C32.94 42.8542 33.2586 42.9862 33.4935 43.2211C33.7284 43.456 33.8604 43.7746 33.8604 44.1068V45.7495C33.8604 45.8833 33.839 46.0148 33.7981 46.1396M13.2854 54.7844C13.2854 54.2344 13.5039 53.7068 13.8929 53.3179C14.2818 52.929 14.8093 52.7105 15.3593 52.7105H64.6407C65.1907 52.7105 65.7182 52.929 66.1071 53.3179C66.4961 53.7068 66.7146 54.2344 66.7146 54.7844V67.9261C66.7146 68.4761 66.4961 69.0036 66.1071 69.3926C65.7182 69.7815 65.1907 70 64.6407 70H15.3593C14.8093 70 14.2818 69.7815 13.8929 69.3926C13.5039 69.0036 13.2854 68.4761 13.2854 67.9261V54.7844ZM17.4333 56.8583V65.8522H62.5667V56.8583H17.4333ZM14.1978 53.6228C13.8897 53.9309 13.7166 54.3487 13.7166 54.7844V67.9261C13.7166 68.3617 13.8897 68.7796 14.1978 69.0876C14.5058 69.3957 14.9237 69.5688 15.3593 69.5688H64.6407C65.0763 69.5688 65.4942 69.3957 65.8022 69.0876C66.1103 68.7796 66.2834 68.3617 66.2834 67.9261V54.7844C66.2834 54.3487 66.1103 53.9309 65.8022 53.6228C65.4942 53.3148 65.0763 53.1417 64.6407 53.1417H15.3593C14.9237 53.1417 14.5058 53.3148 14.1978 53.6228ZM17.0021 66.2834H62.9979V56.4271H17.0021V66.2834Z" fill="white"/>
</svg>
