<svg width="80" height="80" viewBox="0 0 80 80" fill="none" xmlns="http://www.w3.org/2000/svg">
<path d="M55 40.0005C55.0036 37.133 54.0734 34.3423 52.35 32.0505L59 25.4505C60.3004 25.9914 61.6918 26.2799 63.1 26.3005C64.374 26.3405 65.6433 26.1291 66.8356 25.6782C68.0278 25.2274 69.1194 24.546 70.0481 23.673C70.9768 22.8 71.7244 21.7525 72.248 20.5905C72.7717 19.4284 73.0612 18.1745 73.1 16.9005C73.1 14.2483 72.0464 11.7048 70.1711 9.82945C68.2957 7.95408 65.7522 6.90051 63.1 6.90051C60.4478 6.90051 57.9043 7.95408 56.0289 9.82945C54.1536 11.7048 53.1 14.2483 53.1 16.9005C53.1064 18.4471 53.5203 19.9648 54.3 21.3005L47.65 27.9505C45.3124 26.6421 42.6789 25.9536 40 25.9505C36.6924 25.9049 33.4626 26.954 30.813 28.9343C28.1634 30.9147 26.2428 33.7154 25.35 36.9005H21.9C21.1449 35.0333 19.8435 33.4376 18.1662 32.3224C16.4889 31.2072 14.514 30.6244 12.5 30.6505C9.93544 30.5695 7.44327 31.508 5.56906 33.2603C3.69485 35.0127 2.5913 37.4363 2.5 40.0005C2.53879 41.2745 2.82829 42.5284 3.35195 43.6905C3.87562 44.8525 4.62317 45.9 5.55188 46.773C6.48059 47.646 7.57225 48.3274 8.76445 48.7782C9.95666 49.2291 11.226 49.4405 12.5 49.4005C14.514 49.4266 16.4889 48.8439 18.1662 47.7287C19.8435 46.6135 21.1449 45.0178 21.9 43.1505H25.35C26.2428 46.3356 28.1634 49.1363 30.813 51.1167C33.4626 53.0971 36.6924 54.1461 40 54.1005C41.911 54.1605 43.815 53.8433 45.6033 53.1671C47.3916 52.4908 49.0291 51.4687 50.4222 50.1592C51.8153 48.8497 52.9366 47.2785 53.7221 45.5354C54.5076 43.7924 54.9418 41.9115 55 40.0005ZM63.1 13.8005C64.0078 13.7169 64.9118 13.996 65.6145 14.5769C66.3172 15.1578 66.7614 15.9932 66.85 16.9005C66.7043 17.79 66.2471 18.5987 65.5602 19.1822C64.8733 19.7657 64.0013 20.0861 63.1 20.0861C62.1987 20.0861 61.3267 19.7657 60.6398 19.1822C59.9529 18.5987 59.4957 17.79 59.35 16.9005C59.451 15.9984 59.8986 15.1707 60.5983 14.5924C61.2979 14.014 62.195 13.73 63.1 13.8005ZM12.5 43.1505C11.5871 43.2202 10.6833 42.9295 9.98229 42.3406C9.28128 41.7518 8.83889 40.9117 8.75 40.0005C8.85101 39.0984 9.29858 38.2707 9.99825 37.6924C10.6979 37.114 11.595 36.83 12.5 36.9005C13.4051 36.83 14.3021 37.114 15.0017 37.6924C15.7014 38.2707 16.149 39.0984 16.25 40.0005C16.1611 40.9117 15.7187 41.7518 15.0177 42.3406C14.3167 42.9295 13.4129 43.2202 12.5 43.1505ZM40 47.8505C37.8012 47.9598 35.6483 47.1963 34.0096 45.7261C32.3709 44.256 31.3791 42.1982 31.25 40.0005C31.3789 37.8069 32.3724 35.754 34.0127 34.2918C35.653 32.8297 37.8061 32.0776 40 32.2005C42.1906 32.0909 44.3364 32.8476 45.9737 34.3071C47.611 35.7666 48.6083 37.8117 48.75 40.0005C48.6082 42.1935 47.6127 44.2436 45.9769 45.7111C44.3412 47.1786 42.1955 47.9467 40 47.8505Z" fill="#0F244D"/>
<path d="M12.5 21.9013C13.9113 21.9105 15.3086 21.6208 16.6 21.0513L25.4 30.0013C26.6742 28.2998 28.23 26.8286 30 25.6513L21.3 16.9013C22.0797 15.5656 22.4936 14.048 22.5 12.5013C22.4087 9.93711 21.3051 7.51353 19.4309 5.76115C17.5567 4.00876 15.0646 3.07034 12.5 3.15132C9.93544 3.07034 7.44327 4.00876 5.56906 5.76115C3.69485 7.51353 2.5913 9.93711 2.5 12.5013C2.53879 13.7753 2.82829 15.0292 3.35195 16.1913C3.87562 17.3533 4.62317 18.4008 5.55188 19.2738C6.48059 20.1468 7.57225 20.8282 8.76445 21.279C9.95666 21.7299 11.226 21.9413 12.5 21.9013ZM12.5 9.40132C13.405 9.33084 14.3021 9.61476 15.0017 10.1932C15.7014 10.7716 16.149 11.5992 16.25 12.5013C16.1611 13.4125 15.7187 14.2526 15.0177 14.8415C14.3167 15.4303 13.4129 15.721 12.5 15.6513C11.5871 15.721 10.6833 15.4303 9.98229 14.8415C9.28127 14.2526 8.83889 13.4125 8.75 12.5013C8.85101 11.5992 9.29858 10.7716 9.99825 10.1932C10.6979 9.61476 11.595 9.33084 12.5 9.40132ZM67.5 58.1513C66.0887 58.1422 64.6914 58.4318 63.4 59.0013L54.6 50.0013C53.298 51.6535 51.7258 53.0736 49.95 54.2013L58.65 62.9013C57.8856 64.241 57.4888 65.7589 57.5 67.3013C57.5 69.9535 58.5536 72.497 60.4289 74.3724C62.3043 76.2478 64.8478 77.3013 67.5 77.3013C70.1522 77.3013 72.6957 76.2478 74.5711 74.3724C76.4464 72.497 77.5 69.9535 77.5 67.3013C77.3577 64.7725 76.232 62.3997 74.3634 60.6899C72.4947 58.9801 70.0315 58.069 67.5 58.1513ZM67.5 70.6513C66.5871 70.721 65.6833 70.4303 64.9823 69.8415C64.2813 69.2526 63.8389 68.4125 63.75 67.5013C63.8957 66.6119 64.3529 65.8032 65.0398 65.2196C65.7267 64.6361 66.5987 64.3157 67.5 64.3157C68.4013 64.3157 69.2733 64.6361 69.9602 65.2196C70.6471 65.8032 71.1043 66.6119 71.25 67.5013C71.1611 68.4125 70.7187 69.2526 70.0177 69.8415C69.3167 70.4303 68.4129 70.721 67.5 70.6513Z" fill="#0F244D"/>
</svg>
