<svg width="116" height="116" viewBox="0 0 116 116" fill="none" xmlns="http://www.w3.org/2000/svg">
<path d="M79.751 58.0006C79.7562 53.8428 78.4074 49.7963 75.9085 46.4731L85.551 36.9031C87.4365 37.6874 89.4541 38.1057 91.496 38.1356C93.3432 38.1936 95.1838 37.887 96.9125 37.2333C98.6412 36.5795 100.224 35.5915 101.571 34.3257C102.917 33.0599 104.001 31.541 104.761 29.856C105.52 28.1711 105.94 26.3529 105.996 24.5056C105.996 20.66 104.468 16.9718 101.749 14.2526C99.0298 11.5333 95.3416 10.0056 91.496 10.0056C87.6503 10.0056 83.9622 11.5333 81.2429 14.2526C78.5237 16.9718 76.996 20.66 76.996 24.5056C77.0052 26.7482 77.6054 28.9488 78.736 30.8856L69.0935 40.5281C65.7039 38.6309 61.8853 37.6326 58.001 37.6281C53.205 37.562 48.5217 39.0831 44.6798 41.9547C40.838 44.8262 38.0531 48.8872 36.7585 53.5056H31.756C30.661 50.7981 28.774 48.4843 26.342 46.8673C23.9099 45.2503 21.0463 44.4053 18.126 44.4431C14.4074 44.3257 10.7937 45.6864 8.07612 48.2274C5.35851 50.7683 3.75837 54.2825 3.62598 58.0006C3.68223 59.8479 4.102 61.6661 4.86131 63.351C5.62062 65.036 6.70457 66.5549 8.0512 67.8207C9.39783 69.0865 10.9807 70.0746 12.7094 70.7283C14.4381 71.382 16.2787 71.6886 18.126 71.6306C21.0463 71.6684 23.9099 70.8235 26.342 69.2064C28.774 67.5894 30.661 65.2756 31.756 62.5681H36.7585C38.0531 67.1865 40.838 71.2475 44.6798 74.1191C48.5217 76.9906 53.205 78.5117 58.001 78.4456C60.7719 78.5326 63.5328 78.0727 66.1258 77.0921C68.7188 76.1115 71.0932 74.6295 73.1131 72.7307C75.1331 70.832 76.759 68.5538 77.898 66.0263C79.0369 63.4988 79.6666 60.7716 79.751 58.0006ZM91.496 20.0106C92.8123 19.8894 94.1232 20.2941 95.142 21.1364C96.1609 21.9787 96.8049 23.19 96.9335 24.5056C96.7222 25.7953 96.0593 26.9679 95.0633 27.8141C94.0672 28.6602 92.8029 29.1247 91.496 29.1247C90.1891 29.1247 88.9247 28.6602 87.9287 27.8141C86.9326 26.9679 86.2698 25.7953 86.0585 24.5056C86.2049 23.1975 86.8539 21.9975 87.8685 21.1588C88.883 20.3201 90.1837 19.9084 91.496 20.0106ZM18.126 62.5681C16.8023 62.6692 15.4918 62.2476 14.4753 61.3938C13.4588 60.54 12.8174 59.3218 12.6885 58.0006C12.8349 56.6925 13.4839 55.4925 14.4984 54.6538C15.513 53.8151 16.8137 53.4034 18.126 53.5056C19.4383 53.4034 20.739 53.8151 21.7535 54.6538C22.768 55.4925 23.417 56.6925 23.5635 58.0006C23.4346 59.3218 22.7931 60.54 21.7767 61.3938C20.7602 62.2476 19.4496 62.6692 18.126 62.5681ZM58.001 69.3831C54.8128 69.5415 51.691 68.4345 49.3149 66.3028C46.9388 64.1711 45.5007 61.1873 45.3135 58.0006C45.5004 54.8199 46.941 51.8432 49.3194 49.723C51.6978 47.6029 54.8198 46.5124 58.001 46.6906C61.1774 46.5316 64.2888 47.6288 66.6629 49.7451C69.0369 51.8614 70.483 54.8269 70.6885 58.0006C70.4829 61.1804 69.0394 64.1531 66.6675 66.281C64.2957 68.4089 61.1844 69.5225 58.001 69.3831Z" fill="#313131"/>
<path d="M18.126 31.7556C20.1724 31.7689 22.1985 31.3488 24.071 30.5231L36.831 43.5006C38.6786 41.0333 40.9344 38.9001 43.501 37.1931L30.886 24.5056C32.0166 22.5687 32.6167 20.3682 32.626 18.1256C32.4936 14.4074 30.8934 10.8933 28.1758 8.3523C25.4582 5.81134 21.8446 4.45063 18.126 4.56805C14.4074 4.45063 10.7937 5.81134 8.07612 8.3523C5.35851 10.8933 3.75837 14.4074 3.62598 18.1256C3.68223 19.9729 4.102 21.791 4.86131 23.476C5.62062 25.161 6.70457 26.6798 8.0512 27.9456C9.39783 29.2115 10.9807 30.1995 12.7094 30.8532C14.4381 31.5069 16.2787 31.8136 18.126 31.7556ZM18.126 13.6306C19.4383 13.5284 20.739 13.94 21.7535 14.7787C22.768 15.6174 23.417 16.8174 23.5635 18.1256C23.4346 19.4468 22.7931 20.6649 21.7767 21.5187C20.7602 22.3726 19.4496 22.7941 18.126 22.6931C16.8023 22.7941 15.4918 22.3726 14.4753 21.5187C13.4588 20.6649 12.8174 19.4468 12.6885 18.1256C12.8349 16.8174 13.4839 15.6174 14.4984 14.7787C15.513 13.94 16.8137 13.5284 18.126 13.6306ZM97.876 84.3181C95.8295 84.3048 93.8035 84.7248 91.931 85.5506L79.171 72.5006C77.283 74.8963 75.0033 76.9553 72.4285 78.5906L85.0435 91.2056C83.935 93.1481 83.3598 95.3491 83.376 97.5856C83.376 101.431 84.9037 105.119 87.6229 107.839C90.3422 110.558 94.0303 112.086 97.876 112.086C101.722 112.086 105.41 110.558 108.129 107.839C110.848 105.119 112.376 101.431 112.376 97.5856C112.17 93.9188 110.537 90.4781 107.828 87.9989C105.118 85.5197 101.547 84.1987 97.876 84.3181ZM97.876 102.443C96.5523 102.544 95.2418 102.123 94.2253 101.269C93.2088 100.415 92.5674 99.1968 92.4385 97.8756C92.6498 96.5858 93.3126 95.4132 94.3087 94.5671C95.3047 93.721 96.5691 93.2564 97.876 93.2564C99.1829 93.2564 100.447 93.721 101.443 94.5671C102.439 95.4132 103.102 96.5858 103.313 97.8756C103.185 99.1968 102.543 100.415 101.527 101.269C100.51 102.123 99.1996 102.544 97.876 102.443Z" fill="#313131"/>
</svg>
