<svg width="60" height="60" viewBox="0 0 60 60" fill="none" xmlns="http://www.w3.org/2000/svg">
<path d="M41.25 30.0003C41.2527 27.8497 40.555 25.7567 39.2625 24.0378L44.25 19.0878C45.2253 19.4934 46.2688 19.7098 47.325 19.7253C48.2805 19.7553 49.2325 19.5967 50.1267 19.2586C51.0208 18.9204 51.8396 18.4094 52.5361 17.7546C53.2326 17.0999 53.7933 16.3143 54.186 15.4428C54.5788 14.5712 54.7959 13.6308 54.825 12.6753C54.825 10.6862 54.0348 8.77852 52.6283 7.37199C51.2218 5.96547 49.3141 5.17529 47.325 5.17529C45.3359 5.17529 43.4282 5.96547 42.0217 7.37199C40.6152 8.77852 39.825 10.6862 39.825 12.6753C39.8298 13.8353 40.1402 14.9735 40.725 15.9753L35.7375 20.9628C33.9843 19.9815 32.0092 19.4651 30 19.4628C27.5193 19.4286 25.0969 20.2154 23.1098 21.7007C21.1226 23.186 19.6821 25.2865 19.0125 27.6753H16.425C15.8586 26.2749 14.8826 25.0781 13.6246 24.2417C12.3667 23.4053 10.8855 22.9682 9.375 22.9878C7.45158 22.9271 5.58245 23.6309 4.1768 24.9452C2.77114 26.2595 1.94348 28.0771 1.875 30.0003C1.90409 30.9558 2.12122 31.8962 2.51397 32.7678C2.90671 33.6393 3.46738 34.4249 4.16391 35.0796C4.86044 35.7344 5.67919 36.2454 6.57334 36.5836C7.46749 36.9217 8.41952 37.0803 9.375 37.0503C10.8855 37.0698 12.3667 36.6328 13.6246 35.7964C14.8826 34.96 15.8586 33.7632 16.425 32.3628H19.0125C19.6821 34.7516 21.1226 36.8521 23.1098 38.3374C25.0969 39.8227 27.5193 40.6095 30 40.5753C31.4332 40.6203 32.8613 40.3824 34.2025 39.8752C35.5437 39.368 36.7718 38.6014 37.8166 37.6193C38.8614 36.6372 39.7024 35.4588 40.2916 34.1515C40.8807 32.8442 41.2064 31.4336 41.25 30.0003ZM47.325 10.3503C48.0059 10.2876 48.6839 10.4969 49.2109 10.9326C49.7379 11.3682 50.071 11.9948 50.1375 12.6753C50.0282 13.3424 49.6853 13.9489 49.1702 14.3866C48.655 14.8242 48.001 15.0645 47.325 15.0645C46.649 15.0645 45.995 14.8242 45.4798 14.3866C44.9647 13.9489 44.6218 13.3424 44.5125 12.6753C44.5883 11.9987 44.9239 11.378 45.4487 10.9442C45.9734 10.5104 46.6462 10.2974 47.325 10.3503ZM9.375 32.3628C8.69036 32.4151 8.01248 32.197 7.48672 31.7554C6.96096 31.3138 6.62917 30.6837 6.5625 30.0003C6.63826 29.3237 6.97394 28.703 7.49869 28.2692C8.02344 27.8354 8.69621 27.6224 9.375 27.6753C10.0538 27.6224 10.7266 27.8354 11.2513 28.2692C11.7761 28.703 12.1117 29.3237 12.1875 30.0003C12.1208 30.6837 11.789 31.3138 11.2633 31.7554C10.7375 32.197 10.0596 32.4151 9.375 32.3628ZM30 35.8878C28.3509 35.9697 26.7362 35.3971 25.5072 34.2945C24.2782 33.1919 23.5343 31.6486 23.4375 30.0003C23.5342 28.3551 24.2793 26.8154 25.5095 25.7188C26.7397 24.6222 28.3546 24.0581 30 24.1503C31.643 24.0681 33.2523 24.6356 34.4803 25.7302C35.7083 26.8249 36.4562 28.3587 36.5625 30.0003C36.4562 31.645 35.7095 33.1826 34.4827 34.2832C33.2559 35.3839 31.6466 35.9599 30 35.8878Z" fill="#346AF7"/>
<path d="M9.375 16.426C10.4335 16.4329 11.4815 16.2156 12.45 15.7885L19.05 22.501C20.0057 21.2248 21.1725 20.1214 22.5 19.2385L15.975 12.676C16.5598 11.6742 16.8702 10.536 16.875 9.37599C16.8065 7.45283 15.9789 5.63515 14.5732 4.32086C13.1675 3.00657 11.2984 2.30276 9.375 2.36349C7.45158 2.30276 5.58245 3.00657 4.1768 4.32086C2.77114 5.63515 1.94348 7.45283 1.875 9.37599C1.90409 10.3315 2.12122 11.2719 2.51397 12.1435C2.90671 13.015 3.46738 13.8006 4.16391 14.4553C4.86044 15.1101 5.67919 15.6211 6.57334 15.9593C7.46749 16.2974 8.41952 16.456 9.375 16.426ZM9.375 7.05099C10.0538 6.99813 10.7266 7.21107 11.2513 7.64487C11.7761 8.07867 12.1117 8.69938 12.1875 9.37599C12.1208 10.0594 11.789 10.6895 11.2633 11.1311C10.7375 11.5727 10.0596 11.7908 9.375 11.7385C8.69036 11.7908 8.01248 11.5727 7.48672 11.1311C6.96096 10.6895 6.62917 10.0594 6.5625 9.37599C6.63826 8.69938 6.97394 8.07867 7.49869 7.64487C8.02344 7.21107 8.69621 6.99813 9.375 7.05099ZM50.625 43.6135C49.5665 43.6066 48.5185 43.8239 47.55 44.251L40.95 37.501C39.9735 38.7402 38.7943 39.8052 37.4625 40.651L43.9875 47.176C43.4142 48.1807 43.1166 49.3192 43.125 50.476C43.125 52.4651 43.9152 54.3728 45.3217 55.7793C46.7282 57.1858 48.6359 57.976 50.625 57.976C52.6141 57.976 54.5218 57.1858 55.9283 55.7793C57.3348 54.3728 58.125 52.4651 58.125 50.476C58.0183 48.5794 57.174 46.7997 55.7725 45.5174C54.3711 44.2351 52.5236 43.5517 50.625 43.6135ZM50.625 52.9885C49.9404 53.0408 49.2625 52.8227 48.7367 52.3811C48.211 51.9394 47.8792 51.3094 47.8125 50.626C47.9218 49.9589 48.2647 49.3524 48.7798 48.9147C49.295 48.4771 49.949 48.2368 50.625 48.2368C51.301 48.2368 51.955 48.4771 52.4702 48.9147C52.9853 49.3524 53.3282 49.9589 53.4375 50.626C53.3708 51.3094 53.039 51.9394 52.5133 52.3811C51.9875 52.8227 51.3096 53.0408 50.625 52.9885Z" fill="#346AF7"/>
</svg>
