<svg width="18" height="18" viewBox="0 0 18 18" fill="none" xmlns="http://www.w3.org/2000/svg">
<path d="M9 0C4.02996 0 0 4.02934 0 9C0 13.9707 4.02956 18 9 18C13.9708 18 18 13.9707 18 9C18 4.02934 13.9708 0 9 0ZM9 2.6911C10.6446 2.6911 11.9772 4.0242 11.9772 5.66804C11.9772 7.31228 10.6446 8.64498 9 8.64498C7.35623 8.64498 6.02359 7.31228 6.02359 5.66804C6.02359 4.0242 7.35623 2.6911 9 2.6911ZM8.99802 15.6469C7.35781 15.6469 5.85557 15.0496 4.69687 14.0608C4.41461 13.82 4.25173 13.467 4.25173 13.0966C4.25173 11.4294 5.60098 10.0951 7.26847 10.0951H10.7323C12.4002 10.0951 13.7443 11.4294 13.7443 13.0966C13.7443 13.4674 13.5822 13.8196 13.2996 14.0604C12.1413 15.0496 10.6386 15.6469 8.99802 15.6469Z" fill="white"/>
</svg>
