<svg xmlns="http://www.w3.org/2000/svg" width="14" height="10" viewBox="0 0 14 10" fill="none">
  <path d="M3.07093 9.78417C2.8736 9.92806 2.68861 10 2.51594 10C2.31861 10 2.13362 9.91607 1.96096 9.7482L1.29497 9.13669C1.09764 8.94485 0.998979 8.77698 0.998978 8.63309C0.998978 8.46523 1.12231 8.28537 1.36897 8.09353C2.42961 7.32614 2.95993 6.46283 2.95993 5.5036C2.73794 5.23981 2.47894 5.10792 2.18295 5.10792L0.776983 5.10792C0.530323 5.10792 0.345327 5.03597 0.221997 4.89209C0.0739999 4.77218 4.8092e-07 4.59233 4.59956e-07 4.35252L1.4863e-07 0.791367C1.27665e-07 0.551559 0.0739995 0.359713 0.221996 0.215828C0.345327 0.0959237 0.530322 0.0359709 0.776982 0.0359709L5.06888 0.0359705C5.58687 0.0359705 5.84586 0.27578 5.84586 0.755397C5.8952 1.61871 5.91986 2.35012 5.91986 2.94964C5.91986 4.53238 5.7472 5.83933 5.40188 6.8705C5.03189 7.90168 4.2549 8.8729 3.07093 9.78417ZM11.1511 9.7482C10.9537 9.89209 10.7687 9.96403 10.5961 9.96403C10.3987 9.96403 10.2138 9.8801 10.0411 9.71223L9.37511 9.10072C9.17778 8.90887 9.07911 8.74101 9.07911 8.59712C9.07911 8.42926 9.20244 8.2494 9.44911 8.05756C10.5097 7.29017 11.0401 6.42686 11.0401 5.46763C10.8181 5.20384 10.5591 5.07194 10.2631 5.07194L8.85712 5.07194C8.61046 5.07194 8.42546 5 8.30213 4.85612C8.15413 4.73621 8.08014 4.55635 8.08014 4.31655L8.08014 0.755396C8.08014 0.515588 8.15413 0.323741 8.30213 0.179857C8.42546 0.0599523 8.61046 -4.82506e-07 8.85712 -5.04069e-07L13.149 -8.79279e-07C13.667 -9.24563e-07 13.926 0.239808 13.926 0.719425C13.9753 1.58273 14 2.31415 14 2.91367C14 4.4964 13.8273 5.80336 13.482 6.83453C13.112 7.86571 12.335 8.83693 11.1511 9.7482Z" fill="white"/>
</svg>