<svg xmlns="http://www.w3.org/2000/svg" width="21" height="16" viewBox="0 0 21 16" fill="none">
  <path d="M16.3936 0.345323C16.6896 0.115108 16.9671 0 17.2261 0C17.5221 0 17.7996 0.134292 18.0586 0.402876L19.0575 1.38129C19.3535 1.68825 19.5015 1.95684 19.5015 2.18705C19.5015 2.45564 19.3165 2.74341 18.9465 3.05036C17.3556 4.27818 16.5601 5.65947 16.5601 7.19425C16.8931 7.61631 17.2816 7.82734 17.7256 7.82734H19.8345C20.2045 7.82734 20.482 7.94244 20.667 8.17266C20.889 8.36451 21 8.65228 21 9.03597V14.7338C21 15.1175 20.889 15.4245 20.667 15.6547C20.482 15.8465 20.2045 15.9424 19.8345 15.9424H13.3967C12.6197 15.9424 12.2312 15.5588 12.2312 14.7914C12.1572 13.4101 12.1202 12.2398 12.1202 11.2806C12.1202 8.7482 12.3792 6.65707 12.8972 5.0072C13.4522 3.35731 14.6176 1.80336 16.3936 0.345323ZM4.2734 0.402876C4.56939 0.172661 4.84689 0.0575544 5.10588 0.0575544C5.40188 0.0575544 5.67937 0.191847 5.93836 0.460433L6.93734 1.43885C7.23333 1.7458 7.38133 2.01439 7.38133 2.2446C7.38133 2.51319 7.19633 2.80096 6.82634 3.10791C5.23538 4.33573 4.4399 5.71703 4.4399 7.2518C4.77289 7.67386 5.16138 7.88489 5.60537 7.88489H7.71432C8.08431 7.88489 8.36181 8 8.5468 8.23022C8.7688 8.42206 8.87979 8.70983 8.87979 9.09353V14.7914C8.87979 15.1751 8.7688 15.482 8.5468 15.7122C8.36181 15.9041 8.08431 16 7.71432 16H1.27647C0.499489 16 0.110997 15.6163 0.110997 14.8489C0.0369992 13.4676 0 12.2974 0 11.3381C0 8.80576 0.258994 6.71463 0.776982 5.06475C1.33197 3.41487 2.49744 1.86091 4.2734 0.402876Z" fill="white"/>
</svg>