<svg width="60" height="60" viewBox="0 0 60 60" fill="none" xmlns="http://www.w3.org/2000/svg">
<g id="shield 1">
<g id="Group 4">
<path id="Vector" d="M52.3097 10.9828C50.3442 10.2704 48.5019 9.25535 46.8497 7.97428C45.8193 7.16872 44.8698 6.26478 44.0145 5.27524C43.6659 4.87559 43.2359 4.55506 42.7533 4.33513C42.2707 4.11519 41.7467 4.00093 41.2164 4H18.7821C18.2518 4.00093 17.7278 4.11519 17.2452 4.33513C16.7627 4.55506 16.3327 4.87559 15.9841 5.27524C15.1288 6.26478 14.1792 7.16872 13.1488 7.97428C11.4966 9.25535 9.65439 10.2704 7.68883 10.9828C6.97097 11.2424 6.3505 11.7168 5.91187 12.3415C5.47323 12.9662 5.23773 13.7109 5.2374 14.4743V26.9419C5.22574 31.1241 6.27888 35.2404 8.29762 38.9032C10.3164 42.5659 13.2342 45.6545 16.7764 47.878L29.3431 55.8142C29.5404 55.9357 29.7676 56 29.9993 56C30.231 56 30.4581 55.9357 30.6555 55.8142L43.2221 47.878C46.7643 45.6545 49.6822 42.5659 51.7009 38.9032C53.7197 35.2404 54.7728 31.1241 54.7611 26.9419V14.4743C54.7608 13.7109 54.5253 12.9662 54.0867 12.3415C53.648 11.7168 53.0276 11.2424 52.3097 10.9828ZM52.285 26.9419C52.2938 30.706 51.345 34.4105 49.5278 37.707C47.7106 41.0034 45.0848 43.7835 41.8974 45.7857L29.9993 53.3009L18.1012 45.7857C14.9137 43.7835 12.2879 41.0034 10.4707 37.707C8.65358 34.4105 7.70478 30.706 7.71359 26.9419V14.4743C7.71059 14.2191 7.78787 13.9695 7.9345 13.7606C8.08114 13.5518 8.28971 13.3943 8.53073 13.3105C10.7391 12.5141 12.8075 11.3733 14.6593 9.93047C15.8238 9.02985 16.894 8.01355 17.8536 6.89714C17.9686 6.76387 18.1112 6.6572 18.2716 6.58451C18.4319 6.51183 18.6061 6.47487 18.7821 6.47619H41.2164C41.3924 6.47487 41.5667 6.51183 41.727 6.58451C41.8873 6.6572 42.0299 6.76387 42.145 6.89714C43.1045 8.01355 44.1748 9.02985 45.3393 9.93047C47.191 11.3733 49.2595 12.5141 51.4678 13.3105C51.7088 13.3943 51.9174 13.5518 52.064 13.7606C52.2107 13.9695 52.288 14.2191 52.285 14.4743V26.9419Z" fill="#333333"/>
<path id="Vector_2" d="M31.2373 25.0476H48.8801V17C48.8794 16.7305 48.7907 16.4686 48.6276 16.2541C48.4645 16.0396 48.2358 15.8842 47.9763 15.8114C46.1096 15.2928 44.3607 14.4184 42.8259 13.2362C41.8696 12.4904 41.0088 11.6296 40.263 10.6733C40.1486 10.5224 40.0007 10.4002 39.831 10.3164C39.6612 10.2326 39.4742 10.1895 39.2849 10.1904H31.2373V25.0476Z" fill="#333333"/>
<path id="Vector_3" d="M28.761 25.0476V10.1904H20.7134C20.5241 10.1895 20.3371 10.2326 20.1673 10.3164C19.9976 10.4002 19.8497 10.5224 19.7353 10.6733C18.9895 11.6296 18.1287 12.4904 17.1724 13.2362C15.6376 14.4184 13.8887 15.2928 12.022 15.8114C11.7625 15.8842 11.5338 16.0396 11.3707 16.2541C11.2076 16.4686 11.1189 16.7305 11.1182 17V25.0476H28.761Z" fill="#333333"/>
<path id="Vector_4" d="M28.7611 27.5242H11.1182V27.7099C11.1104 30.8985 11.9144 34.0365 13.4544 36.8286C14.9945 39.6206 17.2199 41.9746 19.9211 43.6689L28.7611 49.2552V27.5242Z" fill="#333333"/>
<path id="Vector_5" d="M31.2373 27.524V49.2551L40.2259 43.5821C42.8832 41.913 45.0719 39.5949 46.586 36.8462C48.1 34.0976 48.8895 31.0088 48.8801 27.8707V27.524H31.2373Z" fill="#333333"/>
</g>
</g>
</svg>
