<svg width="44" height="44" viewBox="0 0 44 44" fill="none" xmlns="http://www.w3.org/2000/svg">
<g id="Shifts Team">
<path id="Shape" d="M22 14.3001C22 13.6926 21.5075 13.2001 20.9 13.2001C20.2925 13.2001 19.8 13.6926 19.8 14.3001V23.1001C19.8 23.7076 20.2925 24.2001 20.9 24.2001H27.5C28.1075 24.2001 28.6 23.7076 28.6 23.1001C28.6 22.4926 28.1075 22.0001 27.5 22.0001H22V14.3001ZM13.2 6.6001C9.55493 6.6001 6.60001 9.55502 6.60001 13.2001V22.2278C7.12453 22.0795 7.678 22.0001 8.25001 22.0001C8.43541 22.0001 8.61886 22.0084 8.80001 22.0248V13.2001C8.80001 10.77 10.77 8.8001 13.2 8.8001H30.8C33.2301 8.8001 35.2 10.77 35.2 13.2001V30.8001C35.2 33.2302 33.2301 35.2001 30.8 35.2001H23.9976C24.1301 35.6392 24.2008 36.102 24.2008 36.5751C24.2008 36.8493 24.1825 37.1251 24.1452 37.4001H30.8C34.4451 37.4001 37.4 34.4452 37.4 30.8001V13.2001C37.4 9.55502 34.4451 6.6001 30.8 6.6001H13.2ZM8.25001 31.9001C10.3763 31.9001 12.1 30.1764 12.1 28.0501C12.1 25.9238 10.3763 24.2001 8.25001 24.2001C6.12372 24.2001 4.40001 25.9238 4.40001 28.0501C4.40001 30.1764 6.12372 31.9001 8.25001 31.9001ZM8.80001 41.8001C13.5143 41.8001 15.4 39.3846 15.4 36.9876C15.4 35.3929 14.1336 34.1001 12.5714 34.1001H5.02858C3.46641 34.1001 2.20001 35.3929 2.20001 36.9876C2.20001 39.3937 4.08573 41.8001 8.80001 41.8001ZM16.5008 40.7001L16.4485 40.7C17.2346 39.5693 17.6008 38.269 17.6008 36.9876C17.6008 35.9236 17.2741 34.9256 16.7117 34.1001H19.6436C20.9455 34.1001 22.0008 35.2082 22.0008 36.5751C22.0008 38.6297 20.4294 40.7001 16.5008 40.7001ZM17.05 31.9001C18.5688 31.9001 19.8 30.6689 19.8 29.1501C19.8 27.6313 18.5688 26.4001 17.05 26.4001C15.5312 26.4001 14.3 27.6313 14.3 29.1501C14.3 30.6689 15.5312 31.9001 17.05 31.9001Z" fill="white"/>
</g>
</svg>
