<svg width="24" height="24" viewBox="0 0 24 24" fill="none" xmlns="http://www.w3.org/2000/svg">
<g id="shopping-cart">
<g id="Icon">
<path id="Vector" fill-rule="evenodd" clip-rule="evenodd" d="M5.69114 3.95117H21.2404C21.5887 3.95117 21.9204 4.10044 22.1516 4.35995C22.3828 4.62044 22.4921 4.96776 22.4511 5.31312L21.5848 12.678C21.5194 13.239 21.0755 13.6819 20.5136 13.7463L8.21406 15.1658C7.84919 15.2078 7.50967 14.9726 7.42089 14.6165L4.98187 4.86044C4.92723 4.6419 4.97601 4.40971 5.11455 4.23215C5.25309 4.05459 5.46577 3.95117 5.69114 3.95117Z" fill="white"/>
<path id="Vector_2" d="M18.8611 22.0001C20.0735 22.0001 21.0563 21.0173 21.0563 19.805C21.0563 18.5927 20.0735 17.6099 18.8611 17.6099C17.6488 17.6099 16.666 18.5927 16.666 19.805C16.666 21.0173 17.6488 22.0001 18.8611 22.0001Z" fill="white"/>
<path id="Vector_3" d="M9.59368 22.0001C10.806 22.0001 11.7888 21.0173 11.7888 19.805C11.7888 18.5927 10.806 17.6099 9.59368 17.6099C8.38135 17.6099 7.39856 18.5927 7.39856 19.805C7.39856 21.0173 8.38135 22.0001 9.59368 22.0001Z" fill="white"/>
<path id="Vector_4" fill-rule="evenodd" clip-rule="evenodd" d="M2.27663 3.46342C1.87273 3.46342 1.54492 3.13561 1.54492 2.73171C1.54492 2.3278 1.87273 2 2.27663 2H4.42102C5.22102 2 5.9137 2.5561 6.08736 3.33659L8.50492 14.2156C8.62883 14.7737 9.12444 15.1707 9.69615 15.1707H19.8376C20.2415 15.1707 20.5693 15.4985 20.5693 15.9024C20.5693 16.3063 20.2415 16.6342 19.8376 16.6342H9.69615C8.43858 16.6342 7.3498 15.761 7.07663 14.5337L4.65907 3.65463C4.63468 3.54244 4.53517 3.46342 4.42102 3.46342H2.27663Z" fill="white"/>
</g>
</g>
</svg>
