<svg width="80" height="80" viewBox="0 0 80 80" fill="none" xmlns="http://www.w3.org/2000/svg">
<path d="M57.4987 23.3339C57.4987 22.6708 57.2353 22.0349 56.7665 21.5661C56.2976 21.0973 55.6617 20.8339 54.9987 20.8339C54.3357 20.8339 53.6998 21.0973 53.2309 21.5661C52.7621 22.0349 52.4987 22.6708 52.4987 23.3339V27.5005H48.332C47.669 27.5005 47.0331 27.7639 46.5643 28.2328C46.0954 28.7016 45.832 29.3375 45.832 30.0005C45.832 30.6636 46.0954 31.2995 46.5643 31.7683C47.0331 32.2371 47.669 32.5005 48.332 32.5005H52.4987V36.6672C52.4987 37.3302 52.7621 37.9661 53.2309 38.435C53.6998 38.9038 54.3357 39.1672 54.9987 39.1672C55.6617 39.1672 56.2976 38.9038 56.7665 38.435C57.2353 37.9661 57.4987 37.3302 57.4987 36.6672V32.5005H61.6654C62.3284 32.5005 62.9643 32.2371 63.4331 31.7683C63.902 31.2995 64.1654 30.6636 64.1654 30.0005C64.1654 29.3375 63.902 28.7016 63.4331 28.2328C62.9643 27.7639 62.3284 27.5005 61.6654 27.5005H57.4987V23.3339Z" fill="#2563EB"/>
<path d="M28.4284 67.2899L28.4303 67.2915L28.5012 67.3491C32.4398 70.5493 35.4601 73.0034 40.0023 73.0034C44.5388 73.0034 47.5498 70.5589 51.4797 67.3682L51.5741 67.2916L51.5762 67.2899L52.0206 66.9251C52.0209 66.9248 52.0213 66.9245 52.0217 66.9242C57.0092 62.8792 63.0003 57.4395 67.7724 51.3553L67.3789 51.0468L67.7724 51.3553C72.4853 45.3461 76.3356 38.2889 76.3356 31.0601C76.3356 19.8343 71.3249 11.3311 63.3845 8.22446C56.1488 5.38798 47.5582 7.46625 40.0023 14.3626C32.4462 7.46615 23.8555 5.38792 16.6198 8.22458C8.6796 11.3313 3.66895 19.8344 3.66895 31.0568C3.66895 38.2889 7.51925 45.3461 12.2322 51.3553L12.6256 51.0468L12.2322 51.3553C17.0043 57.4396 22.9954 62.876 27.9827 66.924C27.9831 66.9244 27.9835 66.9247 27.9838 66.925L28.4284 67.2899ZM63.0488 47.6515L63.0487 47.6517C58.6679 53.2435 53.0598 58.3566 48.2406 62.2684C45.9103 64.1588 44.4055 65.343 43.1877 66.0601C41.9984 66.7604 41.1076 67.0001 40.0023 67.0001C38.897 67.0001 38.0062 66.7604 36.8169 66.0597C35.5992 65.3422 34.0945 64.1573 31.7641 62.2652L31.7639 62.2651C26.9449 58.3567 21.3366 53.2402 16.9557 47.6548L16.5623 47.9634L16.9557 47.6548C12.5153 41.9941 9.66895 36.2613 9.66895 31.0601C9.66895 21.5189 13.8226 15.7633 18.8044 13.8091C23.7738 11.8657 30.8635 13.2012 37.8104 20.6316C38.091 20.9319 38.4304 21.1713 38.8074 21.335C39.1845 21.4988 39.5912 21.5833 40.0023 21.5833C40.4134 21.5833 40.8201 21.4988 41.1971 21.335C41.5742 21.1713 41.9135 20.9319 42.1942 20.6316C49.1409 13.2013 56.2305 11.8658 61.2 13.809C66.1816 15.7597 70.3356 21.5184 70.3356 31.0601C70.3356 36.2612 67.486 41.9939 63.0488 47.6515Z" fill="#2563EB" stroke="#2563EB"/>
</svg>
