<svg width="60" height="60" viewBox="0 0 60 60" fill="none" xmlns="http://www.w3.org/2000/svg">
<path d="M43.124 17.5005C43.124 17.0032 42.9265 16.5263 42.5748 16.1747C42.2232 15.823 41.7463 15.6255 41.249 15.6255C40.7517 15.6255 40.2748 15.823 39.9232 16.1747C39.5716 16.5263 39.374 17.0032 39.374 17.5005V20.6255H36.249C35.7517 20.6255 35.2748 20.823 34.9232 21.1747C34.5716 21.5263 34.374 22.0032 34.374 22.5005C34.374 22.9978 34.5716 23.4747 34.9232 23.8263C35.2748 24.1779 35.7517 24.3755 36.249 24.3755H39.374V27.5005C39.374 27.9978 39.5716 28.4747 39.9232 28.8263C40.2748 29.1779 40.7517 29.3755 41.249 29.3755C41.7463 29.3755 42.2232 29.1779 42.5748 28.8263C42.9265 28.4747 43.124 27.9978 43.124 27.5005V24.3755H46.249C46.7463 24.3755 47.2232 24.1779 47.5748 23.8263C47.9265 23.4747 48.124 22.9978 48.124 22.5005C48.124 22.0032 47.9265 21.5263 47.5748 21.1747C47.2232 20.823 46.7463 20.6255 46.249 20.6255H43.124V17.5005Z" fill="#346AF7"/>
<path d="M12.4198 6.05193C6.40274 8.40609 2.62695 14.8409 2.62695 23.2926C2.62695 28.7588 5.53559 34.0794 9.07602 38.5936L9.46945 38.2851L9.07603 38.5936C12.6631 43.167 17.1643 47.251 20.9082 50.2899C20.9086 50.2902 20.909 50.2905 20.9094 50.2908L21.2422 50.564L21.2442 50.5656L21.3143 50.6226C24.2539 53.0112 26.5508 54.8776 30.002 54.8776C33.4489 54.8776 35.7389 53.0183 38.6722 50.6367L38.7596 50.5657L38.7617 50.564L39.0944 50.2909C39.0948 50.2906 39.0951 50.2903 39.0955 50.29C42.8397 47.2534 47.3408 43.167 50.9279 38.5936L50.5345 38.2851L50.9279 38.5936C54.4683 34.0794 57.377 28.7589 57.377 23.2951C57.377 14.8409 53.6012 8.4061 47.5841 6.05193C42.1283 3.91319 35.6735 5.4693 30.002 10.603C24.3304 5.4693 17.8756 3.91319 12.4198 6.05193ZM12.4198 6.05193L12.602 6.51756L12.4195 6.05206C12.4196 6.05202 12.4197 6.05198 12.4198 6.05193ZM47.1885 35.6615L47.1884 35.6617C43.9109 39.8451 39.7128 43.6732 36.102 46.6043C34.352 48.0238 33.2312 48.9052 32.3276 49.4373C31.4524 49.9527 30.806 50.1251 30.002 50.1251C29.1979 50.1251 28.5515 49.9527 27.6764 49.4371C26.7728 48.9047 25.6521 48.0227 23.9021 46.6019L23.9019 46.6017C20.2913 43.6734 16.093 39.8427 12.8154 35.664L12.8154 35.664C9.4908 31.4257 7.37695 27.1538 7.37695 23.2951C7.37695 16.1747 10.4739 11.9149 14.1491 10.4732C17.8143 9.0399 23.0798 10.0111 28.2666 15.5589C28.4888 15.7967 28.7575 15.9863 29.056 16.1159C29.3545 16.2456 29.6765 16.3124 30.002 16.3124C30.3274 16.3124 30.6494 16.2456 30.9479 16.1159C31.2464 15.9863 31.5151 15.7967 31.7373 15.5589C36.924 10.0113 42.1894 9.03994 45.8546 10.4731C49.5296 11.9122 52.627 16.1742 52.627 23.2951C52.627 27.1537 50.5107 31.4256 47.1885 35.6615Z" fill="#346AF7" stroke="#346AF7"/>
</svg>
