<svg width="60" height="60" viewBox="0 0 60 60" fill="none" xmlns="http://www.w3.org/2000/svg">
<g id="streaming 1">
<path id="Vector" fill-rule="evenodd" clip-rule="evenodd" d="M15.4256 46.642C16.0708 45.5271 17.2771 44.7762 18.6571 44.7762C20.0371 44.7762 21.2429 45.5271 21.8886 46.642H54.1046C55.1344 46.642 55.9704 47.478 55.9704 48.5074C55.9704 49.5372 55.1344 50.3732 54.1046 50.3732H21.8886C21.2429 51.4881 20.0371 52.239 18.6571 52.239C17.2771 52.239 16.0708 51.4881 15.4256 50.3732H5.59727C4.56742 50.3732 3.73145 49.5372 3.73145 48.5074C3.73145 47.478 4.56742 46.642 5.59727 46.642H15.4256ZM55.9704 13.0599C55.9704 9.96856 53.4647 7.46289 50.3734 7.46289C41.338 7.46289 18.3643 7.46289 9.32846 7.46289C6.23756 7.46289 3.73145 9.96856 3.73145 13.0599V35.448C3.73145 38.5389 6.23756 41.045 9.32846 41.045H50.3734C53.4647 41.045 55.9704 38.5389 55.9704 35.448V13.0599ZM34.7017 25.7463C35.1714 25.3939 35.4482 24.841 35.4482 24.2539C35.4482 23.6665 35.1714 23.1135 34.7017 22.7611L27.2389 17.1641C26.6738 16.7401 25.9176 16.672 25.2853 16.9881C24.6531 17.3042 24.2541 17.9499 24.2541 18.6569V29.851C24.2541 30.5575 24.6531 31.2036 25.2853 31.5193C25.9176 31.8354 26.6738 31.7674 27.2389 31.3433L34.7017 25.7463Z" fill="#333333"/>
</g>
</svg>
