<svg width="60" height="60" viewBox="0 0 60 60" fill="none" xmlns="http://www.w3.org/2000/svg">
<path d="M33.8196 14.2325C35.9315 15.9567 37.9542 17.7874 39.8796 19.7175C41.8088 21.6431 43.6387 23.6658 45.3621 25.7775C46.6794 23.7924 47.8324 21.7029 48.8096 19.53C49.9446 16.9475 50.5121 14.745 50.5846 13.035C50.6571 11.33 50.2346 10.3875 49.7196 9.87505C49.2071 9.36005 48.2646 8.94005 46.5596 9.01255C44.8521 9.08255 42.6496 9.65005 40.0646 10.7875C37.8931 11.765 35.8046 12.9171 33.8196 14.2325ZM29.5996 11.05C32.5071 9.02505 35.3646 7.39255 38.0496 6.21005C40.9696 4.92755 43.8046 4.12255 46.3496 4.01505C48.8996 3.91005 51.4196 4.50255 53.2571 6.34005C55.0946 8.17755 55.6871 10.6975 55.5821 13.245C55.4721 15.79 54.6696 18.6275 53.3846 21.545C52.2046 24.23 50.5696 27.0875 48.5471 29.995C50.5721 32.905 52.2046 35.7625 53.3871 38.45C54.6696 41.3675 55.4746 44.205 55.5821 46.75C55.6871 49.295 55.0946 51.8175 53.2571 53.655C51.4196 55.4925 48.8996 56.085 46.3521 55.98C43.8071 55.8725 40.9696 55.0675 38.0521 53.7825C35.3671 52.6025 32.5071 50.9675 29.5996 48.9425C26.6921 50.9675 23.8321 52.6025 21.1471 53.7825C18.2296 55.0675 15.3921 55.87 12.8471 55.9775C10.2996 56.085 7.77709 55.4925 5.94209 53.6525C4.10459 51.8175 3.50959 49.295 3.61709 46.7475C3.72459 44.205 4.52959 41.3675 5.81209 38.4475C6.99459 35.7625 8.62959 32.905 10.6521 29.9975C8.62959 27.0875 6.99459 24.23 5.81459 21.545C4.52959 18.6275 3.72709 15.79 3.61959 13.245C3.51209 10.6975 4.10459 8.17755 5.94459 6.34005C7.77959 4.50255 10.3021 3.91005 12.8496 4.01505C15.3921 4.12255 18.2296 4.92755 21.1496 6.21005C23.8321 7.39255 26.6921 9.02755 29.5996 11.05ZM13.8371 25.775C15.5598 23.6642 17.3888 21.6424 19.3171 19.7175C21.2435 17.7875 23.2669 15.9567 25.3796 14.2325C23.395 12.9163 21.3065 11.7642 19.1346 10.7875C16.5496 9.65005 14.3471 9.08255 12.6396 9.01255C10.9346 8.94005 9.98959 9.36255 9.47709 9.87505C8.96459 10.3875 8.54209 11.33 8.61459 13.035C8.68709 14.745 9.25459 16.9475 10.3896 19.53C11.3669 21.7028 12.5199 23.7898 13.8371 25.775ZM16.8671 29.9975C18.7245 32.3658 20.724 34.6191 22.8546 36.745C24.9798 38.8754 27.2322 40.8749 29.5996 42.7325C31.967 40.8751 34.2195 38.8755 36.3446 36.745C38.4752 34.6192 40.4747 32.3659 42.3321 29.9975C40.4745 27.6309 38.475 25.3793 36.3446 23.255C34.2196 21.1236 31.9671 19.1233 29.5996 17.265C27.2313 19.1225 24.978 21.122 22.8521 23.2525C20.7217 25.3768 18.7222 27.6285 16.8646 29.995M13.8346 34.215C12.5164 36.201 11.3626 38.2913 10.3846 40.465C9.24959 43.0475 8.68459 45.25 8.60959 46.9575C8.53959 48.6625 8.95959 49.6075 9.47459 50.12C9.98709 50.6325 10.9296 51.055 12.6346 50.9825C14.3421 50.91 16.5471 50.3425 19.1296 49.2075C21.3033 48.2295 23.3936 47.0757 25.3796 45.7575C23.267 44.035 21.2435 42.206 19.3171 40.2775C17.3878 38.3511 15.558 36.3276 13.8346 34.215ZM33.8171 45.76C35.8024 47.0772 37.8918 48.2302 40.0646 49.2075C42.6471 50.3425 44.8521 50.91 46.5596 50.9825C48.2646 51.055 49.2071 50.6325 49.7196 50.12C50.2321 49.605 50.6546 48.6625 50.5821 46.9575C50.5121 45.25 49.9446 43.0475 48.8071 40.4625C47.8298 38.2897 46.6768 36.2003 45.3596 34.215C43.6362 36.3276 41.8063 38.3511 39.8771 40.2775C37.9515 42.2068 35.9289 44.0366 33.8171 45.76ZM27.5021 27.5H32.5121V32.51H27.5021V27.5Z" fill="#346AF7"/>
</svg>
