<svg width="68" height="68" viewBox="0 0 68 68" fill="none" xmlns="http://www.w3.org/2000/svg">
<g filter="url(#filter0_d_37_92)">
<g clip-path="url(#clip0_37_92)">
<path d="M10 26.1C10 20.4051 10 17.5576 11.1259 15.3903C12.0746 13.5638 13.5638 12.0746 15.3903 11.1259C17.5576 10 20.4051 10 26.1 10H41.9C47.5949 10 50.4424 10 52.6097 11.1259C54.4362 12.0746 55.9254 13.5638 56.8741 15.3903C58 17.5576 58 20.4051 58 26.1V41.9C58 47.5949 58 50.4424 56.8741 52.6097C55.9254 54.4362 54.4362 55.9254 52.6097 56.8741C50.4424 58 47.5949 58 41.9 58H26.1C20.4051 58 17.5576 58 15.3903 56.8741C13.5638 55.9254 12.0746 54.4362 11.1259 52.6097C10 50.4424 10 47.5949 10 41.9V26.1Z" fill="url(#paint0_linear_37_92)"/>
<path d="M28.5 46.75C27.5281 46.75 27.6932 46.383 27.358 45.4576L24.5 36.0515L46.5 23" fill="#C8DAEA"/>
<path d="M28.5 46.7498C29.25 46.7498 29.5814 46.4068 30 45.9998L34 42.1103L29.0105 39.1016" fill="#A9C9DD"/>
<path d="M29.01 39.1024L41.1 48.0346C42.4797 48.7958 43.4754 48.4017 43.819 46.7537L48.7403 23.563C49.2441 21.5429 47.9703 20.6267 46.6504 21.2259L17.7529 32.3687C15.7804 33.1599 15.7919 34.2603 17.3934 34.7507L24.8091 37.0653L41.9774 26.234C42.7879 25.7425 43.5317 26.0068 42.9212 26.5486" fill="url(#paint1_linear_37_92)"/>
</g>
</g>
<defs>
<filter id="filter0_d_37_92" x="0" y="0" width="68" height="68" filterUnits="userSpaceOnUse" color-interpolation-filters="sRGB">
<feFlood flood-opacity="0" result="BackgroundImageFix"/>
<feColorMatrix in="SourceAlpha" type="matrix" values="0 0 0 0 0 0 0 0 0 0 0 0 0 0 0 0 0 0 127 0" result="hardAlpha"/>
<feOffset/>
<feGaussianBlur stdDeviation="5"/>
<feComposite in2="hardAlpha" operator="out"/>
<feColorMatrix type="matrix" values="0 0 0 0 0.191667 0 0 0 0 0.682884 0 0 0 0 1 0 0 0 0.44 0"/>
<feBlend mode="normal" in2="BackgroundImageFix" result="effect1_dropShadow_37_92"/>
<feBlend mode="normal" in="SourceGraphic" in2="effect1_dropShadow_37_92" result="shape"/>
</filter>
<linearGradient id="paint0_linear_37_92" x1="42.0016" y1="18.0016" x2="30.0016" y2="46" gradientUnits="userSpaceOnUse">
<stop stop-color="#37AEE2"/>
<stop offset="1" stop-color="#1E96C8"/>
</linearGradient>
<linearGradient id="paint1_linear_37_92" x1="37.7513" y1="32.9996" x2="42.446" y2="43.6828" gradientUnits="userSpaceOnUse">
<stop stop-color="#EFF7FC"/>
<stop offset="1" stop-color="white"/>
</linearGradient>
<clipPath id="clip0_37_92">
<rect x="10" y="10" width="48" height="48" rx="10" fill="white"/>
</clipPath>
</defs>
</svg>
