<svg width="26" height="26" viewBox="0 0 26 26" fill="none" xmlns="http://www.w3.org/2000/svg">
<g id="Telegram">
<g clip-path="url(#clip0_637_92)">
<path id="Container" d="M0 8.72083C0 5.63609 0 4.09372 0.609844 2.91972C1.12375 1.9304 1.9304 1.12375 2.91972 0.609844C4.09372 0 5.63609 0 8.72083 0H17.2792C20.3639 0 21.9063 0 23.0803 0.609844C24.0696 1.12375 24.8762 1.9304 25.3902 2.91972C26 4.09372 26 5.63609 26 8.72083V17.2792C26 20.3639 26 21.9063 25.3902 23.0803C24.8762 24.0696 24.0696 24.8762 23.0803 25.3902C21.9063 26 20.3639 26 17.2792 26H8.72083C5.63609 26 4.09372 26 2.91972 25.3902C1.9304 24.8762 1.12375 24.0696 0.609844 23.0803C0 21.9063 0 20.3639 0 17.2792V8.72083Z" fill="url(#paint0_linear_637_92)"/>
<path id="Vector" d="M10.0202 19.9056C9.49374 19.9056 9.58319 19.7068 9.40163 19.2056L7.85352 14.1106L19.7702 7.04102" fill="#C8DAEA"/>
<path id="Vector_2" d="M10.0215 19.9065C10.4277 19.9065 10.6072 19.7207 10.834 19.5002L13.0007 17.3934L10.298 15.7637" fill="#A9C9DD"/>
<path id="Vector_3" d="M10.2977 15.7635L16.8464 20.6018C17.5937 21.0142 18.1331 20.8007 18.3192 19.908L20.9849 7.34637C21.2578 6.25218 20.5678 5.7559 19.8529 6.08047L4.20007 12.1161C3.13162 12.5447 3.13785 13.1408 4.00532 13.4064L8.02218 14.6601L17.3217 8.79318C17.7607 8.52696 18.1636 8.67009 17.8329 8.96359" fill="url(#paint1_linear_637_92)"/>
</g>
</g>
<defs>
<linearGradient id="paint0_linear_637_92" x1="17.3342" y1="4.3342" x2="10.8342" y2="19.5" gradientUnits="userSpaceOnUse">
<stop stop-color="#37AEE2"/>
<stop offset="1" stop-color="#1E96C8"/>
</linearGradient>
<linearGradient id="paint1_linear_637_92" x1="15.0325" y1="12.4578" x2="17.5755" y2="18.2446" gradientUnits="userSpaceOnUse">
<stop stop-color="#EFF7FC"/>
<stop offset="1" stop-color="white"/>
</linearGradient>
<clipPath id="clip0_637_92">
<rect width="26" height="26" rx="10" fill="white"/>
</clipPath>
</defs>
</svg>
