<svg width="50" height="50" viewBox="0 0 50 50" fill="none" xmlns="http://www.w3.org/2000/svg">
<g id="tick" clip-path="url(#clip0_2_682)">
<g id="Group">
<path id="Vector" d="M7.32534 42.6766C-2.43934 32.912 -2.43934 17.0903 7.32534 7.32565C17.09 -2.43895 32.9118 -2.43895 42.6765 7.32565C52.4412 17.0903 52.4412 32.912 42.6765 42.6766C32.9118 52.4412 17.09 52.4412 7.32534 42.6766ZM40.1482 9.84497C31.7772 1.47404 18.2246 1.47404 9.84468 9.84497C1.46475 18.2159 1.47368 31.7684 9.84468 40.1483C18.2157 48.5282 31.7683 48.5192 40.1482 40.1483C48.5282 31.7774 48.5282 18.2248 40.1482 9.84497Z" fill="#FF3D44"/>
<path id="Vector_2" d="M33.2833 30.8307L27.5633 25.1107L33.2833 19.3906C33.9767 18.6973 33.9767 17.6313 33.2833 16.938C32.59 16.2446 31.524 16.2446 30.8307 16.938L25.1107 22.658L19.3906 16.938C18.6973 16.2446 17.6313 16.2446 16.938 16.938C16.2446 17.6313 16.2446 18.6973 16.938 19.3906L22.658 25.1107L16.938 30.8307C16.2446 31.524 16.2446 32.59 16.938 33.2833C17.6313 33.9767 18.6973 33.9767 19.3906 33.2833L25.1107 27.5633L30.8307 33.2833C31.524 33.9767 32.59 33.9767 33.2833 33.2833C33.9767 32.59 33.9854 31.524 33.2833 30.8307Z" fill="#FF3D44"/>
</g>
</g>
<defs>
<clipPath id="clip0_2_682">
<rect width="50" height="50" fill="white"/>
</clipPath>
</defs>
</svg>
