<svg width="46" height="46" viewBox="0 0 46 46" fill="none" xmlns="http://www.w3.org/2000/svg">
<g filter="url(#filter0_d_1030_2051)">
<path d="M10 18.7208C10 15.6361 10 14.0937 10.6098 12.9197C11.1238 11.9304 11.9304 11.1238 12.9197 10.6098C14.0937 10 15.6361 10 18.7208 10H27.2792C30.3639 10 31.9063 10 33.0803 10.6098C34.0696 11.1238 34.8762 11.9304 35.3902 12.9197C36 14.0937 36 15.6361 36 18.7208V27.2792C36 30.3639 36 31.9063 35.3902 33.0803C34.8762 34.0696 34.0696 34.8762 33.0803 35.3902C31.9063 36 30.3639 36 27.2792 36H18.7208C15.6361 36 14.0937 36 12.9197 35.3902C11.9304 34.8762 11.1238 34.0696 10.6098 33.0803C10 31.9063 10 30.3639 10 27.2792V18.7208Z" fill="#1EA1F2"/>
<path fill-rule="evenodd" clip-rule="evenodd" d="M30.2156 19.8322C30.2219 19.9946 30.224 20.157 30.224 20.3193C30.224 25.2428 26.7606 30.9267 20.4272 30.9267C18.4817 30.9267 16.6727 30.3066 15.1484 29.2511C15.4179 29.2806 15.6915 29.3028 15.9693 29.3028C17.5824 29.3028 19.0682 28.7048 20.2467 27.7009C18.7399 27.6787 17.4677 26.5936 17.0289 25.1173C17.2395 25.1616 17.4564 25.1838 17.6783 25.1838C17.9911 25.1838 18.2948 25.1396 18.586 25.051C17.0093 24.7115 15.8217 23.2057 15.8217 21.3972C15.8217 21.3751 15.8217 21.3676 15.8217 21.3529C16.2864 21.626 16.8182 21.7957 17.383 21.8178C16.4578 21.1461 15.8496 20.002 15.8496 18.7102C15.8496 18.0311 16.019 17.3889 16.3171 16.8353C18.0149 19.094 20.5532 20.5777 23.4148 20.7328C23.356 20.4596 23.3259 20.1718 23.3259 19.884C23.3259 17.8245 24.8676 16.1562 26.7697 16.1562C27.7599 16.1562 28.6543 16.6066 29.2821 17.33C30.068 17.1676 30.8042 16.8576 31.4704 16.4295C31.2122 17.3005 30.667 18.0311 29.9546 18.4887C30.6516 18.4002 31.3165 18.201 31.933 17.9058C31.4704 18.6513 30.8882 19.3081 30.2156 19.8322Z" fill="white"/>
</g>
<defs>
<filter id="filter0_d_1030_2051" x="0" y="0" width="46" height="46" filterUnits="userSpaceOnUse" color-interpolation-filters="sRGB">
<feFlood flood-opacity="0" result="BackgroundImageFix"/>
<feColorMatrix in="SourceAlpha" type="matrix" values="0 0 0 0 0 0 0 0 0 0 0 0 0 0 0 0 0 0 127 0" result="hardAlpha"/>
<feOffset/>
<feGaussianBlur stdDeviation="5"/>
<feComposite in2="hardAlpha" operator="out"/>
<feColorMatrix type="matrix" values="0 0 0 0 0.191667 0 0 0 0 0.682884 0 0 0 0 1 0 0 0 0.44 0"/>
<feBlend mode="normal" in2="BackgroundImageFix" result="effect1_dropShadow_1030_2051"/>
<feBlend mode="normal" in="SourceGraphic" in2="effect1_dropShadow_1030_2051" result="shape"/>
</filter>
</defs>
</svg>
