<svg width="68" height="68" viewBox="0 0 68 68" fill="none" xmlns="http://www.w3.org/2000/svg">
<g filter="url(#filter0_d_37_100)">
<path d="M10 26.1C10 20.4051 10 17.5576 11.1259 15.3903C12.0746 13.5638 13.5638 12.0746 15.3903 11.1259C17.5576 10 20.4051 10 26.1 10H41.9C47.5949 10 50.4424 10 52.6097 11.1259C54.4362 12.0746 55.9254 13.5638 56.8741 15.3903C58 17.5576 58 20.4051 58 26.1V41.9C58 47.5949 58 50.4424 56.8741 52.6097C55.9254 54.4362 54.4362 55.9254 52.6097 56.8741C50.4424 58 47.5949 58 41.9 58H26.1C20.4051 58 17.5576 58 15.3903 56.8741C13.5638 55.9254 12.0746 54.4362 11.1259 52.6097C10 50.4424 10 47.5949 10 41.9V26.1Z" fill="#1EA1F2"/>
<path fill-rule="evenodd" clip-rule="evenodd" d="M47.323 28.1521C47.3346 28.452 47.3385 28.7516 47.3385 29.0514C47.3385 38.1409 40.9444 48.6342 29.252 48.6342C25.6603 48.6342 22.3205 47.4895 19.5066 45.5407C20.004 45.5953 20.5092 45.6362 21.0221 45.6362C24.0001 45.6362 26.743 44.5322 28.9187 42.6789C26.137 42.638 23.7882 40.6347 22.9782 37.9093C23.367 37.991 23.7675 38.032 24.1771 38.032C24.7546 38.032 25.3153 37.9504 25.8528 37.7868C22.942 37.16 20.7495 34.38 20.7495 31.0413C20.7495 31.0004 20.7495 30.9867 20.7495 30.9595C21.6074 31.4637 22.5893 31.777 23.6319 31.8178C21.9239 30.5777 20.8011 28.4656 20.8011 26.0808C20.8011 24.827 21.1138 23.6414 21.6642 22.6193C24.7985 26.7893 29.4846 29.5285 34.7675 29.8147C34.659 29.3104 34.6034 28.7791 34.6034 28.2476C34.6034 24.4456 37.4496 21.3657 40.9612 21.3657C42.7894 21.3657 44.4405 22.1971 45.5994 23.5326C47.0503 23.2328 48.4095 22.6605 49.6395 21.8701C49.1627 23.4781 48.1563 24.827 46.841 25.6719C48.1278 25.5083 49.3553 25.1407 50.4935 24.5956C49.6395 25.9719 48.5646 27.1846 47.323 28.1521Z" fill="white"/>
</g>
<defs>
<filter id="filter0_d_37_100" x="0" y="0" width="68" height="68" filterUnits="userSpaceOnUse" color-interpolation-filters="sRGB">
<feFlood flood-opacity="0" result="BackgroundImageFix"/>
<feColorMatrix in="SourceAlpha" type="matrix" values="0 0 0 0 0 0 0 0 0 0 0 0 0 0 0 0 0 0 127 0" result="hardAlpha"/>
<feOffset/>
<feGaussianBlur stdDeviation="5"/>
<feComposite in2="hardAlpha" operator="out"/>
<feColorMatrix type="matrix" values="0 0 0 0 0.191667 0 0 0 0 0.682884 0 0 0 0 1 0 0 0 0.44 0"/>
<feBlend mode="normal" in2="BackgroundImageFix" result="effect1_dropShadow_37_100"/>
<feBlend mode="normal" in="SourceGraphic" in2="effect1_dropShadow_37_100" result="shape"/>
</filter>
</defs>
</svg>
