<svg width="54" height="55" viewBox="0 0 54 55" fill="none" xmlns="http://www.w3.org/2000/svg">
<g filter="url(#filter0_d_565_655)">
<path d="M10 21.9999C10 17.966 10 15.9491 10.7975 14.4139C11.4695 13.1201 12.5244 12.0653 13.8181 11.3933C15.3533 10.5958 17.3703 10.5958 21.4042 10.5958H32.5958C36.6297 10.5958 38.6467 10.5958 40.1819 11.3933C41.4756 12.0653 42.5305 13.1201 43.2025 14.4139C44 15.9491 44 17.966 44 21.9999V33.1916C44 37.2255 44 39.2424 43.2025 40.7777C42.5305 42.0714 41.4756 43.1262 40.1819 43.7983C38.6467 44.5958 36.6297 44.5958 32.5958 44.5958H21.4042C17.3703 44.5958 15.3533 44.5958 13.8181 43.7983C12.5244 43.1262 11.4695 42.0714 10.7975 40.7777C10 39.2424 10 37.2255 10 33.1916V21.9999Z" fill="#1EA1F2"/>
<path fill-rule="evenodd" clip-rule="evenodd" d="M36.4367 23.4536C36.4449 23.666 36.4476 23.8782 36.4476 24.0906C36.4476 30.529 31.9185 37.9617 23.6364 37.9617C21.0923 37.9617 18.7266 37.1509 16.7334 35.7705C17.0857 35.8091 17.4436 35.8382 17.8069 35.8382C19.9163 35.8382 21.8592 35.0561 23.4003 33.7434C21.43 33.7144 19.7662 32.2954 19.1924 30.3649C19.4679 30.4228 19.7516 30.4518 20.0417 30.4518C20.4507 30.4518 20.8479 30.394 21.2286 30.2782C19.1668 29.8341 17.6138 27.865 17.6138 25.5001C17.6138 25.4711 17.6138 25.4614 17.6138 25.4421C18.2214 25.7993 18.9169 26.0212 19.6555 26.0501C18.4456 25.1717 17.6504 23.6756 17.6504 21.9864C17.6504 21.0983 17.8718 20.2585 18.2617 19.5345C20.4819 22.4883 23.8011 24.4285 27.5432 24.6312C27.4663 24.2741 27.427 23.8977 27.427 23.5212C27.427 20.8281 29.443 18.6465 31.9304 18.6465C33.2254 18.6465 34.3949 19.2354 35.2158 20.1814C36.2435 19.9691 37.2063 19.5637 38.0775 19.0038C37.7398 20.1428 37.0269 21.0983 36.0953 21.6967C37.0068 21.5809 37.8762 21.3205 38.6825 20.9344C38.0775 21.9093 37.3161 22.7683 36.4367 23.4536Z" fill="white"/>
</g>
<defs>
<filter id="filter0_d_565_655" x="0" y="0.595764" width="54" height="54" filterUnits="userSpaceOnUse" color-interpolation-filters="sRGB">
<feFlood flood-opacity="0" result="BackgroundImageFix"/>
<feColorMatrix in="SourceAlpha" type="matrix" values="0 0 0 0 0 0 0 0 0 0 0 0 0 0 0 0 0 0 127 0" result="hardAlpha"/>
<feOffset/>
<feGaussianBlur stdDeviation="5"/>
<feComposite in2="hardAlpha" operator="out"/>
<feColorMatrix type="matrix" values="0 0 0 0 0.191667 0 0 0 0 0.682884 0 0 0 0 1 0 0 0 0.44 0"/>
<feBlend mode="normal" in2="BackgroundImageFix" result="effect1_dropShadow_565_655"/>
<feBlend mode="normal" in="SourceGraphic" in2="effect1_dropShadow_565_655" result="shape"/>
</filter>
</defs>
</svg>
