<svg width="80" height="80" viewBox="0 0 80 80" fill="none" xmlns="http://www.w3.org/2000/svg">
<path fill-rule="evenodd" clip-rule="evenodd" d="M40 13.3962C25.3071 13.3962 13.3962 25.3071 13.3962 40C13.3962 54.6929 25.3071 66.6038 40 66.6038C54.6929 66.6038 66.6038 54.6929 66.6038 40C66.6038 25.3071 54.6929 13.3962 40 13.3962ZM10 40C10 23.4315 23.4315 10 40 10C56.5685 10 70 23.4315 70 40C70 56.5685 56.5685 70 40 70C23.4315 70 10 56.5685 10 40Z" fill="white"/>
<path d="M45.4359 35.8324V31.6302C45.4359 31.3546 45.2984 31.0102 45.0922 30.8035L42.4794 28.0479C41.9294 27.4968 42.3419 26.5324 43.0982 26.5324H51.4177C52.5178 26.5324 53.4116 27.4279 53.4116 28.5302V51.5391C53.4116 52.6413 52.5178 53.5369 51.4177 53.5369H47.0861C46.536 53.5369 45.986 53.3302 45.6422 52.9169L36.5664 43.3413C35.8101 42.5835 34.5037 43.0657 34.5037 44.168V48.3702C34.5037 48.6457 34.6413 48.9902 34.8475 49.1968L37.4602 51.9524C38.0103 52.5035 37.5978 53.468 36.8414 53.468H28.522C27.4219 53.468 26.528 52.5724 26.528 51.4702V28.5302C26.528 27.4279 27.4219 26.5324 28.522 26.5324H32.8536C33.4036 26.5324 33.9537 26.739 34.2975 27.1524L43.442 36.6591C44.1983 37.4168 45.4359 36.9346 45.4359 35.8324Z" fill="white"/>
<path d="M65.75 7.58333L70.3333 9.66667L65.75 11.75L63.6667 16.3333L61.5833 11.75L57 9.66667L61.5833 7.58333L63.6667 3L65.75 7.58333Z" fill="white"/>
</svg>
