<svg width="26" height="26" viewBox="0 0 26 26" fill="none" xmlns="http://www.w3.org/2000/svg">
<rect width="26" height="26" rx="6" fill="white"/>
<path d="M20.6704 8.87765C20.4859 8.14353 19.9456 7.56471 19.2602 7.36706C18.0082 7 13 7 13 7C13 7 7.99175 7 6.7397 7.35294C6.06754 7.55059 5.514 8.14353 5.32949 8.87765C5 10.2188 5 13 5 13C5 13 5 15.7953 5.32949 17.1224C5.514 17.8565 6.05436 18.4353 6.7397 18.6329C8.00493 19 13 19 13 19C13 19 18.0082 19 19.2602 18.6471C19.9456 18.4494 20.4859 17.8706 20.6704 17.1365C20.9999 15.7953 20.9999 13.0141 20.9999 13.0141C20.9999 13.0141 21.0131 10.2188 20.6704 8.87765Z" fill="#FF0000"/>
<path d="M10.8134 16.3438L16.8134 13.3438L10.8134 10.3438V16.3438Z" fill="white"/>
</svg>
