<svg width="26" height="26" viewBox="0 0 26 26" fill="none" xmlns="http://www.w3.org/2000/svg">
<g id="Discord">
<g clip-path="url(#clip0_637_97)">
<path id="Container" d="M0.0136719 8.72083C0.0136719 5.63609 0.0136719 4.09372 0.623516 2.91972C1.13742 1.9304 1.94408 1.12375 2.93339 0.609844C4.10739 0 5.64976 0 8.73451 0H17.2928C20.3776 0 21.92 0 23.094 0.609844C24.0833 1.12375 24.8899 1.9304 25.4038 2.91972C26.0137 4.09372 26.0137 5.63609 26.0137 8.72083V17.2792C26.0137 20.3639 26.0137 21.9063 25.4038 23.0803C24.8899 24.0696 24.0833 24.8762 23.094 25.3902C21.92 26 20.3776 26 17.2928 26H8.73451C5.64976 26 4.10739 26 2.93339 25.3902C1.94408 24.8762 1.13742 24.0696 0.623516 23.0803C0.0136719 21.9063 0.0136719 20.3639 0.0136719 17.2792V8.72083Z" fill="#5865F2"/>
<path id="Vector" d="M19.7576 6.80045C18.5147 6.23017 17.1819 5.81001 15.7884 5.56937C15.763 5.56473 15.7377 5.57633 15.7246 5.59955C15.5532 5.90441 15.3634 6.30213 15.2304 6.61474C13.7316 6.39034 12.2404 6.39034 10.7724 6.61474C10.6394 6.29517 10.4426 5.90441 10.2705 5.59955C10.2574 5.57711 10.232 5.5655 10.2067 5.56937C8.81393 5.80924 7.48114 6.2294 6.23751 6.80045C6.22675 6.80509 6.21753 6.81283 6.21138 6.82289C3.68338 10.5997 2.99085 14.2836 3.33058 17.9219C3.33212 17.9397 3.34211 17.9567 3.35595 17.9676C5.02386 19.1925 6.6395 19.9361 8.22517 20.429C8.25053 20.4367 8.27743 20.4274 8.29358 20.4065C8.66866 19.8943 9.00301 19.3542 9.28971 18.7862C9.30662 18.753 9.29048 18.7135 9.25589 18.7003C8.72554 18.4992 8.22056 18.2539 7.73479 17.9753C7.69636 17.9529 7.69328 17.8979 7.72864 17.8716C7.83086 17.795 7.93309 17.7153 8.03071 17.6349C8.04839 17.6202 8.07298 17.6171 8.09373 17.6263C11.2851 19.0834 14.74 19.0834 17.8937 17.6263C17.9144 17.6163 17.939 17.6194 17.9575 17.6341C18.0551 17.7146 18.1573 17.795 18.2603 17.8716C18.2957 17.8979 18.2933 17.9529 18.2549 17.9753C17.7691 18.2593 17.2642 18.4992 16.733 18.6996C16.6985 18.7127 16.6831 18.753 16.7 18.7862C16.9928 19.3534 17.3272 19.8935 17.6954 20.4057C17.7107 20.4274 17.7384 20.4367 17.7638 20.429C19.3571 19.9361 20.9728 19.1925 22.6407 17.9676C22.6553 17.9567 22.6645 17.9405 22.666 17.9227C23.0726 13.7165 21.985 10.0627 19.7829 6.82366C19.7776 6.81283 19.7683 6.80509 19.7576 6.80045ZM9.76625 15.7066C8.80548 15.7066 8.0138 14.8245 8.0138 13.7412C8.0138 12.6579 8.7901 11.7758 9.76625 11.7758C10.7501 11.7758 11.5341 12.6657 11.5187 13.7412C11.5187 14.8245 10.7424 15.7066 9.76625 15.7066ZM16.2457 15.7066C15.285 15.7066 14.4933 14.8245 14.4933 13.7412C14.4933 12.6579 15.2696 11.7758 16.2457 11.7758C17.2296 11.7758 18.0136 12.6657 17.9982 13.7412C17.9982 14.8245 17.2296 15.7066 16.2457 15.7066Z" fill="white"/>
</g>
</g>
<defs>
<clipPath id="clip0_637_97">
<rect width="26" height="26" rx="10" fill="white"/>
</clipPath>
</defs>
</svg>
