<svg width="194" height="194" viewBox="0 0 194 194" fill="none" xmlns="http://www.w3.org/2000/svg">
<path d="M58.3408 140.816H43.6542C39.4385 140.816 36 137.352 36 133.106V64.6691C36 60.4224 39.4385 56.9585 43.6542 56.9585H58.4379C60.3223 56.9585 61.8376 58.485 61.8376 60.3833C61.8376 62.2816 60.3223 63.808 58.4379 63.808H43.6542C43.1879 63.808 42.7994 64.1994 42.7994 64.6691V133.125C42.7994 133.595 43.1879 133.986 43.6542 133.986H58.3408C60.2252 133.986 61.7405 135.513 61.7405 137.411C61.7405 139.309 60.2058 140.816 58.3408 140.816Z" fill="#70BAFF"/>
<path d="M57.8159 74.5136H41.5169C39.6325 74.5136 38.1172 72.9871 38.1172 71.0888C38.1172 69.1905 39.6325 67.6641 41.5169 67.6641H57.8159C59.7003 67.6641 61.2156 69.1905 61.2156 71.0888C61.2156 72.9871 59.7003 74.5136 57.8159 74.5136Z" fill="#70BAFF"/>
<path d="M58.3993 94.2792H52.7849C50.9005 94.2792 49.3853 92.7528 49.3853 90.8545C49.3853 88.9562 50.9005 87.4297 52.7849 87.4297H58.3993C60.2837 87.4297 61.799 88.9562 61.799 90.8545C61.799 92.7528 60.2837 94.2792 58.3993 94.2792Z" fill="#70BAFF"/>
<path d="M58.3993 106.569H52.7849C50.9005 106.569 49.3853 105.043 49.3853 103.144C49.3853 101.246 50.9005 99.7197 52.7849 99.7197H58.3993C60.2837 99.7197 61.799 101.246 61.799 103.144C61.799 105.043 60.2837 106.569 58.3993 106.569Z" fill="#70BAFF"/>
<path d="M58.3993 118.879H52.7849C50.9005 118.879 49.3853 117.352 49.3853 115.454C49.3853 113.556 50.9005 112.029 52.7849 112.029H58.3993C60.2837 112.029 61.799 113.556 61.799 115.454C61.799 117.352 60.2837 118.879 58.3993 118.879Z" fill="#70BAFF"/>
<path d="M150.346 140.816H135.659C133.775 140.816 132.26 139.29 132.26 137.392C132.26 135.493 133.775 133.967 135.659 133.967H150.346C150.812 133.967 151.201 133.575 151.201 133.106V64.6691C151.201 64.1994 150.812 63.808 150.346 63.808H135.562C133.678 63.808 132.163 62.2816 132.163 60.3833C132.163 58.485 133.678 56.9585 135.562 56.9585H150.346C154.562 56.9585 158 60.4224 158 64.6691V133.125C158 137.352 154.562 140.816 150.346 140.816Z" fill="#70BAFF"/>
<path d="M152.483 74.5136H136.184C134.299 74.5136 132.784 72.9871 132.784 71.0888C132.784 69.1905 134.299 67.6641 136.184 67.6641H152.483C154.367 67.6641 155.883 69.1905 155.883 71.0888C155.883 72.9871 154.348 74.5136 152.483 74.5136Z" fill="#70BAFF"/>
<path d="M141.215 94.2792H135.795C133.911 94.2792 132.396 92.7528 132.396 90.8545C132.396 88.9562 133.911 87.4297 135.795 87.4297H141.215C143.1 87.4297 144.615 88.9562 144.615 90.8545C144.615 92.7528 143.1 94.2792 141.215 94.2792Z" fill="#70BAFF"/>
<path d="M141.215 106.569H135.795C133.911 106.569 132.396 105.043 132.396 103.144C132.396 101.246 133.911 99.7197 135.795 99.7197H141.215C143.1 99.7197 144.615 101.246 144.615 103.144C144.615 105.043 143.1 106.569 141.215 106.569Z" fill="#70BAFF"/>
<path d="M141.215 118.879H135.795C133.911 118.879 132.396 117.352 132.396 115.454C132.396 113.556 133.911 112.029 135.795 112.029H141.215C143.1 112.029 144.615 113.556 144.615 115.454C144.615 117.352 143.1 118.879 141.215 118.879Z" fill="#70BAFF"/>
<path d="M128.743 158H65.2566C59.8754 158 55.5044 153.597 55.5044 148.176V45.8242C55.5044 40.4033 59.8754 36 65.2566 36H128.763C134.144 36 138.515 40.4033 138.515 45.8242V148.176C138.496 153.597 134.125 158 128.743 158ZM65.2566 42.8691C63.6248 42.8691 62.3038 44.1999 62.3038 45.8438V148.195C62.3038 149.839 63.6248 151.17 65.2566 151.17H128.763C130.395 151.17 131.716 149.839 131.716 148.195V45.8438C131.716 44.1999 130.395 42.8691 128.763 42.8691H65.2566Z" fill="#FF6666"/>
<path d="M107.69 115.104C106.816 115.104 105.942 114.771 105.281 114.106C103.066 111.875 100.133 110.642 96.9858 110.642C93.8581 110.642 90.9052 111.875 88.6906 114.106C87.3695 115.437 85.2132 115.437 83.8921 114.106C82.5711 112.775 82.5711 110.603 83.8921 109.272C87.389 105.749 92.032 103.812 96.9858 103.812C101.94 103.812 106.583 105.749 110.079 109.272C111.4 110.603 111.4 112.775 110.079 114.106C109.438 114.771 108.564 115.104 107.69 115.104Z" fill="#FF6666"/>
<path d="M76.3689 96.4886C75.4947 96.4886 74.6205 96.156 73.96 95.4906C72.639 94.1598 72.639 91.9875 73.96 90.6568L83.4791 81.0674C84.8001 79.7366 86.9565 79.7366 88.2775 81.0674C89.5986 82.3982 89.5986 84.5705 88.2775 85.9012L78.7584 95.4906C78.0979 96.156 77.2431 96.4886 76.3689 96.4886Z" fill="#FF6666"/>
<path d="M85.888 96.4886C85.0138 96.4886 84.1396 96.156 83.4791 95.4906L73.96 85.9012C72.639 84.5705 72.639 82.3982 73.96 81.0674C75.281 79.7366 77.4374 79.7366 78.7584 81.0674L88.2775 90.6568C89.5986 91.9875 89.5986 94.1598 88.2775 95.4906C87.6365 96.156 86.7623 96.4886 85.888 96.4886Z" fill="#FF6666"/>
<path d="M108.113 96.4892C107.238 96.4892 106.364 96.1565 105.704 95.4911C104.383 94.1603 104.383 91.9881 105.704 90.6377L115.223 81.0484C116.544 79.7176 118.7 79.7176 120.021 81.0484C121.342 82.3791 121.342 84.5514 120.021 85.8822L110.502 95.4715C109.861 96.1565 108.987 96.4892 108.113 96.4892Z" fill="#FF6666"/>
<path d="M117.632 96.4892C116.757 96.4892 115.883 96.1565 115.223 95.4911L105.704 85.9018C104.383 84.5514 104.383 82.3791 105.704 81.0484C107.025 79.7176 109.181 79.7176 110.502 81.0484L120.021 90.6377C121.342 91.9685 121.342 94.1408 120.021 95.4715C119.38 96.1565 118.506 96.4892 117.632 96.4892Z" fill="#FF6666"/>
<path d="M161.694 21.5C161.694 23.2638 160.264 24.6936 158.5 24.6936C156.736 24.6936 155.306 23.2638 155.306 21.5C155.306 19.7362 156.736 18.3064 158.5 18.3064C160.264 18.3064 161.694 19.7362 161.694 21.5Z" stroke="#FFAF82" stroke-width="2.61276"/>
<circle cx="34.5" cy="154.5" r="3.19362" stroke="#527FF4" stroke-width="2.61276"/>
<circle cx="141.5" cy="161.5" r="3.19362" stroke="#FFDC60" stroke-width="2.61276"/>
<path d="M15.2686 58.3375C15.0011 56.1369 17.8482 55.0249 19.0587 56.8571L20.5786 59.1578C21.0087 59.8089 21.7658 60.1553 22.5396 60.0551L25.4135 59.6828C27.5666 59.4039 28.6027 62.2309 26.81 63.4932L24.417 65.178C23.7728 65.6316 23.4274 66.4086 23.5225 67.1906L23.8583 69.9537C24.1258 72.1543 21.2787 73.2663 20.0682 71.434L18.5483 69.1334C18.1182 68.4823 17.3611 68.1359 16.5873 68.2361L13.7134 68.6084C11.5603 68.8873 10.5242 66.0602 12.3169 64.798L14.7099 63.1132C15.3541 62.6596 15.6995 61.8825 15.6044 61.1005L15.2686 58.3375Z" fill="#37AEE2"/>
<path d="M175.018 140.867C176.16 138.989 179.049 139.99 178.863 142.199L178.629 144.966C178.563 145.751 178.937 146.514 179.598 146.942L182.056 148.535C183.895 149.727 182.964 152.589 180.802 152.394L177.91 152.134C177.133 152.064 176.389 152.44 175.983 153.107L174.552 155.459C173.41 157.337 170.521 156.336 170.707 154.127L170.941 151.36C171.007 150.575 170.633 149.813 169.972 149.384L167.514 147.791C165.675 146.599 166.606 143.737 168.768 143.932L171.66 144.192C172.437 144.262 173.181 143.886 173.587 143.219L175.018 140.867Z" fill="#2DB162"/>
<path d="M10.9169 126.337C12.2175 126.122 13.2499 127.434 12.7799 128.704L10.9909 133.54C10.5186 134.817 8.88514 135.094 8.05442 134.039L4.89193 130.021C4.06121 128.966 4.65834 127.372 5.96535 127.156L10.9169 126.337Z" fill="#FFAF82"/>
<path d="M176.014 62.391C175.688 61.071 176.869 59.8807 178.139 60.2493L182.967 61.6498C184.237 62.0182 184.643 63.6674 183.699 64.6189L180.11 68.2348C179.166 69.1864 177.579 68.7268 177.253 67.4075L176.014 62.391Z" fill="#1665C2"/>
</svg>
